SplineFontDB: 3.2
FontName: LibreFranklin-Regular
FullName: Libre Franklin Regular
FamilyName: Libre Franklin
Weight: Book
Copyright: Copyright 2020 The LibreFranklin Project Authors (https://github.com/impallari/Libre-Franklin)
Version: 2.000
ItalicAngle: 0
UnderlinePosition: -100
UnderlineWidth: 50
Ascent: 800
Descent: 200
InvalidEm: 0
sfntRevision: 0x00020000
LayerCount: 2
Layer: 0 1 "Back" 1
Layer: 1 1 "Fore" 0
XUID: [1021 798 -728526894 12451628]
StyleMap: 0x0040
FSType: 0
OS2Version: 4
OS2_WeightWidthSlopeOnly: 0
OS2_UseTypoMetrics: 1
CreationTime: 1479161609
ModificationTime: 1648746836
PfmFamily: 81
TTFWeight: 400
TTFWidth: 5
LineGap: 0
VLineGap: 0
Panose: 0 0 0 0 0 0 0 0 0 0
OS2TypoAscent: 966
OS2TypoAOffset: 0
OS2TypoDescent: -246
OS2TypoDOffset: 0
OS2TypoLinegap: 0
OS2WinAscent: 1177
OS2WinAOffset: 0
OS2WinDescent: 246
OS2WinDOffset: 0
HheadAscent: 966
HheadAOffset: 0
HheadDescent: -246
HheadDOffset: 0
OS2SubXSize: 650
OS2SubYSize: 600
OS2SubXOff: 0
OS2SubYOff: 75
OS2SupXSize: 650
OS2SupYSize: 600
OS2SupXOff: 0
OS2SupYOff: 350
OS2StrikeYSize: 50
OS2StrikeYPos: 318
OS2CapHeight: 742
OS2XHeight: 530
OS2Vendor: 'IMPA'
OS2CodePages: 20000193.00000000
OS2UnicodeRanges: a00000ff.4000205b.00000000.00000000
Lookup: 1 0 0 "'aalt' Access All Alternates in Latin lookup 0" { "'aalt' Access All Alternates in Latin lookup 0 subtable"  } ['aalt' ('DFLT' <'dflt' > 'latn' <'AZE ' 'CAT ' 'CRT ' 'KAZ ' 'MOL ' 'ROM ' 'TAT ' 'TRK ' 'dflt' > ) ]
Lookup: 3 0 0 "'aalt' Access All Alternates in Latin lookup 1" { "'aalt' Access All Alternates in Latin lookup 1 subtable"  } ['aalt' ('DFLT' <'dflt' > 'latn' <'AZE ' 'CAT ' 'CRT ' 'KAZ ' 'MOL ' 'ROM ' 'TAT ' 'TRK ' 'dflt' > ) ]

StartChar: .notdef
Encoding: 65536 -1 0
Width: 702
GlyphClass: 1
Flags: W
LayerCount: 2
Fore
SplineSet
-126 87 m 1,0,1
 -155 87 -155 87 -155 120 c 2,2,-1
 -155 568 l 2,3,4
 -155 584 -155 584 -149 589.5 c 128,-1,5
 -143 595 -143 595 -130 595 c 2,6,-1
 834 595 l 2,7,8
 857 595 857 595 857 576 c 2,9,-1
 857 105 l 2,10,11
 857 87 857 87 836 87 c 2,12,-1
 -126 87 l 1,13,-1
 -126 87 l 1,0,1
789 139 m 2,14,15
 807 139 807 139 807 154 c 2,16,-1
 807 527 l 2,17,18
 807 543 807 543 788 543 c 2,19,-1
 -84 543 l 2,20,21
 -94 543 -94 543 -99.5 538 c 128,-1,22
 -105 533 -105 533 -105 520 c 2,23,-1
 -105 167 l 2,24,25
 -105 139 -105 139 -81 139 c 2,26,-1
 789 139 l 2,14,15
816 574 m 1,27,-1
 843 522 l 1,28,-1
 -122 107 l 1,29,-1
 -127 167 l 1,30,-1
 816 574 l 1,27,-1
EndSplineSet
EndChar

StartChar: A
Encoding: 65 65 4
Width: 727
GlyphClass: 2
Flags: W
AnchorPoint: "Anchor-3" 3 67 basechar 0
AnchorPoint: "Anchor-2" -7 371 basechar 0
AnchorPoint: "Anchor-0" 735 373 basechar 0
LayerCount: 2
Fore
SplineSet
-7 680 m 1,0,1
 -7 686 -7 686 -2.5 688.5 c 128,-1,2
 2 691 2 691 10 689 c 2,3,-1
 721 430 l 2,4,5
 728 427 728 427 731.5 423 c 128,-1,6
 735 419 735 419 735 410 c 2,7,-1
 735 332 l 2,8,9
 735 314 735 314 720 309 c 2,10,-1
 10 53 l 2,11,12
 4 51 4 51 -1.5 53.5 c 128,-1,13
 -7 56 -7 56 -7 63 c 2,14,-1
 -7 134 l 2,15,16
 -7 146 -7 146 3 150 c 2,17,-1
 197 219 l 2,18,19
 201 221 201 221 203 223 c 128,-1,20
 205 225 205 225 205 231 c 2,21,-1
 205 522 l 2,22,23
 205 531 205 531 197 534 c 2,24,-1
 2 605 l 2,25,26
 -2 606 -2 606 -4.5 609.5 c 128,-1,27
 -7 613 -7 613 -7 620 c 2,28,-1
 -7 680 l 1,29,-1
 -7 680 l 1,0,1
281 257 m 2,30,31
 281 245 281 245 294 249 c 2,32,-1
 623 369 l 2,33,34
 632 373 632 373 632 376.5 c 128,-1,35
 632 380 632 380 623 383 c 2,36,-1
 292 505 l 2,37,38
 281 510 281 510 281 499 c 2,39,-1
 281 257 l 2,30,31
EndSplineSet
Substitution2: "Single Substitution lookup 27 subtable" ordfeminine
Substitution2: "'aalt' Access All Alternates in Latin lookup 0 subtable" ordfeminine
EndChar

StartChar: B
Encoding: 66 66 5
Width: 699
GlyphClass: 1
Flags: W
LayerCount: 2
Fore
SplineSet
-4 629 m 1,0,1
 -4 635 -4 635 -1 638 c 128,-1,2
 2 641 2 641 8 641 c 2,3,-1
 724 641 l 2,4,5
 731 641 731 641 734.5 637.5 c 128,-1,6
 738 634 738 634 738 628 c 2,7,-1
 738 397 l 2,8,9
 738 264 738 264 689 191.5 c 128,-1,10
 640 119 640 119 546 119 c 0,11,12
 486 119 486 119 444.5 150.5 c 128,-1,13
 403 182 403 182 379 250 c 0,14,15
 378 254 378 254 375 254 c 128,-1,16
 372 254 372 254 371 250 c 0,17,18
 353 178 353 178 309.5 139.5 c 128,-1,19
 266 101 266 101 194 101 c 0,20,21
 94 101 94 101 45 176 c 128,-1,22
 -4 251 -4 251 -4 390 c 2,23,-1
 -4 629 l 1,24,-1
 -4 629 l 1,0,1
66 395 m 2,25,26
 66 297 66 297 97.5 249 c 128,-1,27
 129 201 129 201 197 201 c 0,28,29
 246 201 246 201 276.5 225 c 128,-1,30
 307 249 307 249 321 290 c 128,-1,31
 335 331 335 331 335 384 c 2,32,-1
 335 531 l 2,33,34
 335 545 335 545 323 545 c 2,35,-1
 80 545 l 2,36,37
 66 545 66 545 66 536 c 2,38,-1
 66 395 l 2,25,26
407 384 m 2,39,40
 407 354 407 354 413 324 c 128,-1,41
 419 294 419 294 433.5 269.5 c 128,-1,42
 448 245 448 245 472.5 230.5 c 128,-1,43
 497 216 497 216 535 216 c 0,44,45
 603 216 603 216 635.5 265.5 c 128,-1,46
 668 315 668 315 668 397 c 2,47,-1
 668 532 l 2,48,49
 668 545 668 545 656 545 c 2,50,-1
 420 545 l 2,51,52
 407 545 407 545 407 536 c 2,53,-1
 407 384 l 2,39,40
EndSplineSet
EndChar

StartChar: C
Encoding: 67 67 6
Width: 707
GlyphClass: 2
Flags: W
AnchorPoint: "Anchor-2" -9.5 350.5 basechar 0
AnchorPoint: "Anchor-0" 732.5 354.5 basechar 0
LayerCount: 2
Fore
SplineSet
742.5 354.5 m 1,0,1
 742.5 304.5 742.5 304.5 726 258 c 128,-1,2
 709.5 211.5 709.5 211.5 681.5 174.5 c 128,-1,3
 653.5 137.5 653.5 137.5 616.5 113.5 c 128,-1,4
 579.5 89.5 579.5 89.5 537.5 83.5 c 0,5,6
 528.5 81.5 528.5 81.5 525.5 83 c 128,-1,7
 522.5 84.5 522.5 84.5 522.5 90.5 c 2,8,-1
 516.5 165.5 l 2,9,10
 515.5 170.5 515.5 170.5 518.5 172.5 c 128,-1,11
 521.5 174.5 521.5 174.5 526.5 175.5 c 0,12,13
 590.5 189.5 590.5 189.5 630 236 c 128,-1,14
 669.5 282.5 669.5 282.5 669.5 351.5 c 0,15,16
 669.5 455.5 669.5 455.5 592.5 511.5 c 128,-1,17
 515.5 567.5 515.5 567.5 360.5 567.5 c 0,18,19
 210.5 567.5 210.5 567.5 133.5 512.5 c 128,-1,20
 56.5 457.5 56.5 457.5 56.5 346.5 c 0,21,22
 56.5 275.5 56.5 275.5 90.5 228 c 128,-1,23
 124.5 180.5 124.5 180.5 199.5 151.5 c 0,24,25
 205.5 148.5 205.5 148.5 203.5 139.5 c 2,26,-1
 189.5 80.5 l 2,27,28
 188.5 77.5 188.5 77.5 185.5 75.5 c 128,-1,29
 182.5 73.5 182.5 73.5 175.5 75.5 c 0,30,31
 146.5 83.5 146.5 83.5 118.5 100 c 128,-1,32
 90.5 116.5 90.5 116.5 66 140.5 c 128,-1,33
 41.5 164.5 41.5 164.5 22 196.5 c 128,-1,34
 2.5 228.5 2.5 228.5 -8.5 267 c 128,-1,35
 -19.5 305.5 -19.5 305.5 -19.5 350.5 c 0,36,37
 -19.5 449.5 -19.5 449.5 26.5 521 c 128,-1,38
 72.5 592.5 72.5 592.5 158.5 630 c 128,-1,39
 244.5 667.5 244.5 667.5 362.5 667.5 c 256,40,41
 480.5 667.5 480.5 667.5 566 630 c 128,-1,42
 651.5 592.5 651.5 592.5 697 522 c 128,-1,43
 742.5 451.5 742.5 451.5 742.5 354.5 c 1,44,-1
 742.5 354.5 l 1,0,1
EndSplineSet
EndChar

StartChar: D
Encoding: 68 68 7
Width: 722
GlyphClass: 2
Flags: W
AnchorPoint: "Anchor-0" 748 397 basechar 0
LayerCount: 2
Fore
SplineSet
748 636 m 1,0,1
 748 629 748 629 748 607 c 128,-1,2
 748 585 748 585 747.5 559 c 128,-1,3
 747 533 747 533 747 511 c 128,-1,4
 747 489 747 489 747 480 c 0,5,6
 745 341 745 341 703 255.5 c 128,-1,7
 661 170 661 170 581 130.5 c 128,-1,8
 501 91 501 91 383 91 c 0,9,10
 258 91 258 91 174 134 c 128,-1,11
 90 177 90 177 48 266 c 128,-1,12
 6 355 6 355 6 490 c 2,13,-1
 6 637 l 2,14,15
 6 651 6 651 22 651 c 2,16,-1
 734 651 l 2,17,18
 741 651 741 651 744.5 647.5 c 128,-1,19
 748 644 748 644 748 636 c 1,20,-1
 748 636 l 1,0,1
675 545 m 1,21,22
 675 555 675 555 661 555 c 2,23,-1
 89 555 l 2,24,25
 78 555 78 555 78 543 c 2,26,-1
 78 505 l 2,27,28
 78 394 78 394 107.5 325 c 128,-1,29
 137 256 137 256 203 223.5 c 128,-1,30
 269 191 269 191 378 191 c 0,31,32
 492 191 492 191 556.5 224.5 c 128,-1,33
 621 258 621 258 648 326.5 c 128,-1,34
 675 395 675 395 675 500 c 2,35,-1
 675 545 l 1,36,-1
 675 545 l 1,21,22
EndSplineSet
EndChar

StartChar: E
Encoding: 69 69 8
Width: 628
GlyphClass: 2
Flags: W
AnchorPoint: "Anchor-3" -22 144 basechar 0
AnchorPoint: "Anchor-2" -32 354 basechar 0
AnchorPoint: "Anchor-0" 710 367 basechar 0
LayerCount: 2
Fore
SplineSet
696 613 m 1,0,1
 710 613 710 613 710 601 c 2,2,-1
 710 152 l 2,3,4
 710 142 710 142 699 142 c 2,5,-1
 648 142 l 2,6,7
 636 142 636 142 636 155 c 2,8,-1
 636 504 l 2,9,10
 636 517 636 517 624 517 c 2,11,-1
 390 517 l 2,12,13
 379 517 379 517 379 506 c 2,14,-1
 379 247 l 2,15,16
 379 236 379 236 368 236 c 2,17,-1
 315 236 l 2,18,19
 311 236 311 236 308.5 238 c 128,-1,20
 306 240 306 240 306 247 c 2,21,-1
 306 506 l 2,22,23
 306 517 306 517 295 517 c 2,24,-1
 52 517 l 2,25,26
 42 517 42 517 42 507 c 2,27,-1
 42 140 l 2,28,29
 42 129 42 129 32 129 c 2,30,-1
 -21 129 l 2,31,32
 -26 129 -26 129 -29 131.5 c 128,-1,33
 -32 134 -32 134 -32 140 c 2,34,-1
 -32 599 l 2,35,36
 -32 613 -32 613 -18 613 c 2,37,-1
 696 613 l 1,38,-1
 696 613 l 1,0,1
EndSplineSet
EndChar

StartChar: F
Encoding: 70 70 9
Width: 601
GlyphClass: 1
Flags: W
LayerCount: 2
Fore
SplineSet
685 602 m 1,0,1
 699 602 699 602 699 590 c 2,2,-1
 699 150 l 2,3,4
 699 140 699 140 688 140 c 2,5,-1
 637 140 l 2,6,7
 625 140 625 140 625 153 c 2,8,-1
 625 493 l 2,9,10
 625 506 625 506 613 506 c 2,11,-1
 367 506 l 2,12,13
 356 506 356 506 356 495 c 2,14,-1
 356 228 l 2,15,16
 356 217 356 217 346 217 c 2,17,-1
 293 217 l 2,18,19
 284 217 284 217 284 228 c 2,20,-1
 284 495 l 2,21,22
 284 506 284 506 273 506 c 2,23,-1
 -30 506 l 2,24,25
 -43 506 -43 506 -43 520 c 2,26,-1
 -43 588 l 2,27,28
 -43 596 -43 596 -40 599 c 128,-1,29
 -37 602 -37 602 -29 602 c 2,30,-1
 685 602 l 1,31,-1
 685 602 l 1,0,1
EndSplineSet
EndChar

StartChar: G
Encoding: 71 71 10
Width: 739
GlyphClass: 2
Flags: W
AnchorPoint: "Anchor-2" -5.5 356.5 basechar 0
AnchorPoint: "Anchor-0" 736.5 360.5 basechar 0
LayerCount: 2
Fore
SplineSet
-15.5 361.5 m 1,0,1
 -15.5 457.5 -15.5 457.5 30 527.5 c 128,-1,2
 75.5 597.5 75.5 597.5 160 634.5 c 128,-1,3
 244.5 671.5 244.5 671.5 362.5 671.5 c 0,4,5
 483.5 671.5 483.5 671.5 569.5 632.5 c 128,-1,6
 655.5 593.5 655.5 593.5 701 522.5 c 128,-1,7
 746.5 451.5 746.5 451.5 746.5 357.5 c 0,8,9
 746.5 287.5 746.5 287.5 718.5 229 c 128,-1,10
 690.5 170.5 690.5 170.5 644.5 132 c 128,-1,11
 598.5 93.5 598.5 93.5 546.5 85.5 c 0,12,13
 538.5 84.5 538.5 84.5 535.5 86 c 128,-1,14
 532.5 87.5 532.5 87.5 530.5 93.5 c 2,15,-1
 519.5 165.5 l 2,16,17
 518.5 170.5 518.5 170.5 521 173 c 128,-1,18
 523.5 175.5 523.5 175.5 529.5 176.5 c 0,19,20
 569.5 183.5 569.5 183.5 602 208.5 c 128,-1,21
 634.5 233.5 634.5 233.5 654 272 c 128,-1,22
 673.5 310.5 673.5 310.5 673.5 358.5 c 0,23,24
 673.5 426.5 673.5 426.5 639 474.5 c 128,-1,25
 604.5 522.5 604.5 522.5 536 547 c 128,-1,26
 467.5 571.5 467.5 571.5 368.5 571.5 c 0,27,28
 264.5 571.5 264.5 571.5 195 547 c 128,-1,29
 125.5 522.5 125.5 522.5 91.5 474 c 128,-1,30
 57.5 425.5 57.5 425.5 57.5 356.5 c 0,31,32
 57.5 307.5 57.5 307.5 74 271.5 c 128,-1,33
 90.5 235.5 90.5 235.5 118 211.5 c 128,-1,34
 145.5 187.5 145.5 187.5 177 174.5 c 128,-1,35
 208.5 161.5 208.5 161.5 238.5 160.5 c 2,36,-1
 298.5 159.5 l 2,37,38
 308.5 157.5 308.5 157.5 308.5 169.5 c 2,39,-1
 308.5 332.5 l 2,40,41
 308.5 338.5 308.5 338.5 311 341 c 128,-1,42
 313.5 343.5 313.5 343.5 319.5 343.5 c 2,43,-1
 362.5 343.5 l 2,44,45
 371.5 343.5 371.5 343.5 371.5 333.5 c 2,46,-1
 370.5 85.5 l 2,47,48
 370.5 78.5 370.5 78.5 367.5 74.5 c 128,-1,49
 364.5 70.5 364.5 70.5 358.5 70.5 c 2,50,-1
 7.5 70.5 l 2,51,52
 0.5 70.5 0.5 70.5 -2.5 73.5 c 128,-1,53
 -5.5 76.5 -5.5 76.5 -5.5 82.5 c 2,54,-1
 -5.5 105.5 l 2,55,56
 -5.5 112.5 -5.5 112.5 -3.5 117 c 128,-1,57
 -1.5 121.5 -1.5 121.5 6.5 123.5 c 2,58,-1
 99.5 134.5 l 2,59,60
 103.5 135.5 103.5 135.5 103.5 138 c 128,-1,61
 103.5 140.5 103.5 140.5 98.5 143.5 c 0,62,63
 68.5 162.5 68.5 162.5 42.5 191.5 c 128,-1,64
 16.5 220.5 16.5 220.5 0.5 262.5 c 128,-1,65
 -15.5 304.5 -15.5 304.5 -15.5 361.5 c 1,66,-1
 -15.5 361.5 l 1,0,1
EndSplineSet
EndChar

StartChar: H
Encoding: 72 72 11
Width: 735
GlyphClass: 2
Flags: W
AnchorPoint: "Anchor-2" -3.5 371.5 basechar 0
AnchorPoint: "Anchor-0" 738.5 370.5 basechar 0
LayerCount: 2
Fore
SplineSet
343.5 537.5 m 2,0,1
 343.5 545.5 343.5 545.5 335.5 545.5 c 2,2,-1
 11.5 545.5 l 2,3,4
 -3.5 545.5 -3.5 545.5 -3.5 562.5 c 2,5,-1
 -3.5 627.5 l 2,6,7
 -3.5 635.5 -3.5 635.5 0 638.5 c 128,-1,8
 3.5 641.5 3.5 641.5 10.5 641.5 c 2,9,-1
 724.5 641.5 l 2,10,11
 738.5 641.5 738.5 641.5 738.5 629.5 c 2,12,-1
 738.5 557.5 l 2,13,14
 738.5 545.5 738.5 545.5 725.5 545.5 c 2,15,-1
 431.5 545.5 l 2,16,17
 419.5 545.5 419.5 545.5 419.5 534.5 c 2,18,-1
 419.5 206.5 l 2,19,20
 419.5 196.5 419.5 196.5 431.5 196.5 c 2,21,-1
 726.5 196.5 l 2,22,23
 738.5 196.5 738.5 196.5 738.5 185.5 c 2,24,-1
 738.5 112.5 l 2,25,26
 738.5 100.5 738.5 100.5 724.5 100.5 c 2,27,-1
 10.5 100.5 l 2,28,29
 3.5 100.5 3.5 100.5 0 103.5 c 128,-1,30
 -3.5 106.5 -3.5 106.5 -3.5 114.5 c 2,31,-1
 -3.5 179.5 l 2,32,33
 -3.5 196.5 -3.5 196.5 11.5 196.5 c 2,34,-1
 334.5 196.5 l 2,35,36
 343.5 196.5 343.5 196.5 343.5 205.5 c 2,37,-1
 343.5 537.5 l 2,0,1
EndSplineSet
EndChar

StartChar: I
Encoding: 73 73 12
Width: 290
GlyphClass: 2
Flags: W
AnchorPoint: "Anchor-3" -216 340 basechar 0
AnchorPoint: "Anchor-2" -226 371 basechar 0
AnchorPoint: "Anchor-0" 516 369 basechar 0
LayerCount: 2
Fore
SplineSet
516 335 m 2,0,1
 516 323 516 323 503 323 c 2,2,-1
 -209 323 l 2,3,4
 -219 323 -219 323 -222.5 327 c 128,-1,5
 -226 331 -226 331 -226 341 c 2,6,-1
 -226 404 l 2,7,8
 -226 413 -226 413 -223 416 c 128,-1,9
 -220 419 -220 419 -212 419 c 2,10,-1
 502 419 l 2,11,12
 516 419 516 419 516 407 c 2,13,-1
 516 335 l 2,0,1
EndSplineSet
EndChar

StartChar: J
Encoding: 74 74 13
Width: 418
GlyphClass: 2
Flags: W
AnchorPoint: "Anchor-0" 558.889 288.889 basechar 0
LayerCount: 2
Fore
SplineSet
-20.111328125 223.888671875 m 1,0,1
 -106.111328125 223.888671875 -106.111328125 223.888671875 -149.611328125 261.388671875 c 128,-1,2
 -193.111328125 298.888671875 -193.111328125 298.888671875 -193.111328125 383.888671875 c 0,3,4
 -193.111328125 422.888671875 -193.111328125 422.888671875 -184.611328125 452.888671875 c 128,-1,5
 -176.111328125 482.888671875 -176.111328125 482.888671875 -172.111328125 495.888671875 c 0,6,7
 -169.111328125 501.888671875 -169.111328125 501.888671875 -165.111328125 505.388671875 c 128,-1,8
 -161.111328125 508.888671875 -161.111328125 508.888671875 -153.111328125 507.888671875 c 2,9,-1
 -99.111328125 498.888671875 l 2,10,11
 -87.111328125 496.888671875 -87.111328125 496.888671875 -90.111328125 485.888671875 c 0,12,13
 -96.111328125 470.888671875 -96.111328125 470.888671875 -103.111328125 453.388671875 c 128,-1,14
 -110.111328125 435.888671875 -110.111328125 435.888671875 -110.111328125 403.888671875 c 0,15,16
 -110.111328125 358.888671875 -110.111328125 358.888671875 -86.111328125 339.388671875 c 128,-1,17
 -62.111328125 319.888671875 -62.111328125 319.888671875 1.888671875 319.888671875 c 2,18,-1
 545.888671875 319.888671875 l 2,19,20
 558.888671875 319.888671875 558.888671875 319.888671875 558.888671875 307.888671875 c 2,21,-1
 558.888671875 234.888671875 l 2,22,23
 558.888671875 223.888671875 558.888671875 223.888671875 545.888671875 223.888671875 c 2,24,-1
 -20.111328125 223.888671875 l 1,25,-1
 -20.111328125 223.888671875 l 1,0,1
EndSplineSet
EndChar

StartChar: K
Encoding: 75 75 14
Width: 701
GlyphClass: 2
Flags: W
AnchorPoint: "Anchor-2" 7 398 basechar 0
AnchorPoint: "Anchor-0" 749 377 basechar 0
LayerCount: 2
Fore
SplineSet
21 92 m 1,0,1
 15 89 15 89 11 90.5 c 128,-1,2
 7 92 7 92 7 98 c 2,3,-1
 7 180 l 2,4,5
 7 194 7 194 16 198 c 2,6,-1
 385 419 l 2,7,8
 394 425 394 425 384 434 c 2,9,-1
 253 549 l 2,10,11
 245 556 245 556 235 556 c 2,12,-1
 22 556 l 2,13,14
 7 556 7 556 7 573 c 2,15,-1
 7 637 l 2,16,17
 7 645 7 645 10 648.5 c 128,-1,18
 13 652 13 652 20 652 c 2,19,-1
 737 652 l 2,20,21
 749 652 749 652 749 641 c 2,22,-1
 749 567 l 2,23,24
 749 556 749 556 737 556 c 2,25,-1
 370 556 l 2,26,27
 364 556 364 556 363.5 554 c 128,-1,28
 363 552 363 552 368 547 c 2,29,-1
 740 219 l 2,30,31
 745 215 745 215 747 211 c 128,-1,32
 749 207 749 207 749 199 c 2,33,-1
 749 130 l 2,34,35
 749 121 749 121 744.5 119 c 128,-1,36
 740 117 740 117 735 122 c 2,37,-1
 475 355 l 2,38,39
 469 359 469 359 462 355 c 2,40,-1
 21 92 l 1,41,-1
 21 92 l 1,0,1
EndSplineSet
EndChar

StartChar: L
Encoding: 76 76 15
Width: 602
GlyphClass: 2
Flags: W
AnchorPoint: "Anchor-2" -42 382 basechar 0
AnchorPoint: "Anchor-1" 700 253 basechar 0
AnchorPoint: "Anchor-0" 700 554 basechar 0
LayerCount: 2
Fore
SplineSet
686 603 m 1,0,1
 700 603 700 603 700 591 c 2,2,-1
 700 519 l 2,3,4
 700 507 700 507 687 507 c 2,5,-1
 42 507 l 2,6,7
 32 507 32 507 32 497 c 2,8,-1
 32 151 l 2,9,10
 32 139 32 139 22 139 c 2,11,-1
 -31 139 l 2,12,13
 -36 139 -36 139 -39 142 c 128,-1,14
 -42 145 -42 145 -42 151 c 2,15,-1
 -42 589 l 2,16,17
 -42 597 -42 597 -38.5 600 c 128,-1,18
 -35 603 -35 603 -28 603 c 2,19,-1
 686 603 l 1,20,-1
 686 603 l 1,0,1
EndSplineSet
EndChar

StartChar: M
Encoding: 77 77 16
Width: 906
GlyphClass: 1
Flags: W
LayerCount: 2
Fore
SplineSet
82 713 m 1,0,1
 82 727 82 727 97 727 c 2,2,-1
 810 727 l 2,3,4
 824 727 824 727 824 715 c 2,5,-1
 824 619 l 2,6,7
 824 611 824 611 822 607.5 c 128,-1,8
 820 604 820 604 813 602 c 2,9,-1
 240 380 l 2,10,11
 231 376 231 376 231.5 372 c 128,-1,12
 232 368 232 368 241 364 c 2,13,-1
 811 142 l 2,14,15
 824 138 824 138 824 127 c 2,16,-1
 824 26 l 2,17,18
 824 15 824 15 811 15 c 2,19,-1
 97 15 l 2,20,21
 82 15 82 15 82 30 c 2,22,-1
 82 96 l 2,23,24
 82 104 82 104 85 107.5 c 128,-1,25
 88 111 88 111 95 111 c 2,26,-1
 667 111 l 2,27,28
 672 111 672 111 671.5 113 c 128,-1,29
 671 115 671 115 667 116 c 2,30,-1
 95 336 l 2,31,32
 82 341 82 341 82 355 c 2,33,-1
 82 403 l 2,34,35
 82 419 82 419 94 423 c 2,36,-1
 661 640 l 2,37,38
 666 642 666 642 665.5 643.5 c 128,-1,39
 665 645 665 645 661 645 c 2,40,-1
 95 645 l 2,41,42
 88 645 88 645 85 648 c 128,-1,43
 82 651 82 651 82 659 c 2,44,-1
 82 713 l 1,45,-1
 82 713 l 1,0,1
EndSplineSet
EndChar

StartChar: N
Encoding: 78 78 17
Width: 757
GlyphClass: 2
Flags: W
AnchorPoint: "Anchor-2" 7.5 384.5 basechar 0
AnchorPoint: "Anchor-0" 749.5 359.5 basechar 0
LayerCount: 2
Fore
SplineSet
749.5 100.5 m 2,0,1
 749.5 89.5 749.5 89.5 737.5 89.5 c 2,2,-1
 19.5 89.5 l 2,3,4
 13.5 89.5 13.5 89.5 10.5 93 c 128,-1,5
 7.5 96.5 7.5 96.5 7.5 102.5 c 2,6,-1
 7.5 151.5 l 2,7,8
 7.5 157.5 7.5 157.5 8.5 162.5 c 128,-1,9
 9.5 167.5 9.5 167.5 15.5 172.5 c 2,10,-1
 576.5 558.5 l 2,11,12
 583.5 563.5 583.5 563.5 582.5 566.5 c 128,-1,13
 581.5 569.5 581.5 569.5 575.5 569.5 c 2,14,-1
 20.5 569.5 l 2,15,16
 7.5 569.5 7.5 569.5 7.5 583.5 c 2,17,-1
 7.5 639.5 l 2,18,19
 7.5 652.5 7.5 652.5 20.5 652.5 c 2,20,-1
 735.5 652.5 l 2,21,22
 749.5 652.5 749.5 652.5 749.5 639.5 c 2,23,-1
 749.5 582.5 l 2,24,25
 749.5 574.5 749.5 574.5 748 570.5 c 128,-1,26
 746.5 566.5 746.5 566.5 739.5 561.5 c 2,27,-1
 190.5 186.5 l 2,28,29
 183.5 180.5 183.5 180.5 185.5 176 c 128,-1,30
 187.5 171.5 187.5 171.5 193.5 171.5 c 2,31,-1
 737.5 171.5 l 2,32,33
 749.5 171.5 749.5 171.5 749.5 159.5 c 2,34,-1
 749.5 100.5 l 2,0,1
EndSplineSet
EndChar

StartChar: O
Encoding: 79 79 18
Width: 764
GlyphClass: 2
Flags: W
AnchorPoint: "Anchor-3" 20 293 basechar 0
AnchorPoint: "Anchor-2" 11 369 basechar 0
AnchorPoint: "Anchor-1" 753 218 basechar 0
AnchorPoint: "Anchor-0" 753 370 basechar 0
LayerCount: 2
Fore
SplineSet
1 371 m 1,0,1
 1 469 1 469 45 540.5 c 128,-1,2
 89 612 89 612 173.5 650 c 128,-1,3
 258 688 258 688 379 688 c 0,4,5
 501 688 501 688 587 649 c 128,-1,6
 673 610 673 610 718 539 c 128,-1,7
 763 468 763 468 763 370 c 256,8,9
 763 272 763 272 718 201.5 c 128,-1,10
 673 131 673 131 588 92.5 c 128,-1,11
 503 54 503 54 380 54 c 0,12,13
 259 54 259 54 174.5 92 c 128,-1,14
 90 130 90 130 45.5 201.5 c 128,-1,15
 1 273 1 273 1 371 c 1,16,-1
 1 371 l 1,0,1
74 369 m 1,17,18
 74 261 74 261 148.5 207.5 c 128,-1,19
 223 154 223 154 379 154 c 0,20,21
 538 154 538 154 614 208.5 c 128,-1,22
 690 263 690 263 690 370 c 0,23,24
 690 478 690 478 613.5 533 c 128,-1,25
 537 588 537 588 379 588 c 0,26,27
 224 588 224 588 149 533 c 128,-1,28
 74 478 74 478 74 369 c 1,29,-1
 74 369 l 1,17,18
EndSplineSet
Substitution2: "Single Substitution lookup 27 subtable" ordmasculine
Substitution2: "'aalt' Access All Alternates in Latin lookup 0 subtable" ordmasculine
EndChar

StartChar: P
Encoding: 80 80 19
Width: 690
GlyphClass: 1
Flags: W
LayerCount: 2
Fore
SplineSet
521.5 101.5 m 1,0,1
 447.5 101.5 447.5 101.5 399.5 135.5 c 128,-1,2
 351.5 169.5 351.5 169.5 328.5 228.5 c 128,-1,3
 305.5 287.5 305.5 287.5 305.5 365.5 c 2,4,-1
 305.5 535.5 l 2,5,6
 305.5 544.5 305.5 544.5 296.5 544.5 c 2,7,-1
 10.5 544.5 l 2,8,9
 -4.5 544.5 -4.5 544.5 -4.5 559.5 c 2,10,-1
 -4.5 627.5 l 2,11,12
 -4.5 634.5 -4.5 634.5 -1.5 637.5 c 128,-1,13
 1.5 640.5 1.5 640.5 8.5 640.5 c 2,14,-1
 723.5 640.5 l 2,15,16
 737.5 640.5 737.5 640.5 737.5 628.5 c 2,17,-1
 737.5 376.5 l 2,18,19
 737.5 297.5 737.5 297.5 715.5 235.5 c 128,-1,20
 693.5 173.5 693.5 173.5 645.5 137.5 c 128,-1,21
 597.5 101.5 597.5 101.5 521.5 101.5 c 1,22,-1
 521.5 101.5 l 1,0,1
524.5 199.5 m 1,23,24
 575.5 199.5 575.5 199.5 606.5 222 c 128,-1,25
 637.5 244.5 637.5 244.5 651 285 c 128,-1,26
 664.5 325.5 664.5 325.5 664.5 381.5 c 2,27,-1
 664.5 531.5 l 2,28,29
 664.5 544.5 664.5 544.5 652.5 544.5 c 2,30,-1
 392.5 544.5 l 2,31,32
 378.5 544.5 378.5 544.5 378.5 535.5 c 2,33,-1
 378.5 374.5 l 2,34,35
 378.5 295.5 378.5 295.5 413.5 247.5 c 128,-1,36
 448.5 199.5 448.5 199.5 524.5 199.5 c 1,37,-1
 524.5 199.5 l 1,23,24
EndSplineSet
EndChar

StartChar: Q
Encoding: 81 81 20
Width: 765
GlyphClass: 1
Flags: W
LayerCount: 2
Fore
SplineSet
437 631 m 1,0,1
 560 631 560 631 645.5 592.5 c 128,-1,2
 731 554 731 554 775.5 483 c 128,-1,3
 820 412 820 412 820 314 c 256,4,5
 820 216 820 216 775.5 144.5 c 128,-1,6
 731 73 731 73 645.5 35 c 128,-1,7
 560 -3 560 -3 437 -3 c 256,8,9
 314 -3 314 -3 234.5 33.5 c 128,-1,10
 155 70 155 70 110 137 c 0,11,12
 106 141 106 141 101 141 c 0,13,14
 89 141 89 141 71 123 c 128,-1,15
 53 105 53 105 38 75.5 c 128,-1,16
 23 46 23 46 18 14 c 0,17,18
 17 7 17 7 14 5.5 c 128,-1,19
 11 4 11 4 9 4 c 2,20,-1
 -38 4 l 2,21,22
 -49 4 -49 4 -52.5 10 c 128,-1,23
 -56 16 -56 16 -56 31 c 0,24,25
 -56 75 -56 75 -29.5 124 c 128,-1,26
 -3 173 -3 173 62 220 c 0,27,28
 68 225 68 225 66 235 c 0,29,30
 62 254 62 254 60 274 c 128,-1,31
 58 294 58 294 58 314 c 0,32,33
 58 411 58 411 101 482 c 128,-1,34
 144 553 144 553 229 592 c 128,-1,35
 314 631 314 631 437 631 c 1,36,-1
 437 631 l 1,0,1
435 531 m 1,37,38
 279 531 279 531 205 476 c 128,-1,39
 131 421 131 421 131 314 c 0,40,41
 131 206 131 206 205 151.5 c 128,-1,42
 279 97 279 97 436 97 c 0,43,44
 592 97 592 97 669.5 151 c 128,-1,45
 747 205 747 205 747 314 c 0,46,47
 747 422 747 422 669.5 476.5 c 128,-1,48
 592 531 592 531 435 531 c 1,49,-1
 435 531 l 1,37,38
EndSplineSet
EndChar

StartChar: R
Encoding: 82 82 21
Width: 696
GlyphClass: 2
Flags: W
AnchorPoint: "Anchor-2" -4 390 basechar 0
AnchorPoint: "Anchor-0" 738 397 basechar 0
LayerCount: 2
Fore
SplineSet
15 111 m 1,0,1
 8 108 8 108 2 111.5 c 128,-1,2
 -4 115 -4 115 -4 122 c 2,3,-1
 -4 195 l 2,4,5
 -4 206 -4 206 8 211 c 2,6,-1
 323 340 l 2,7,8
 334 345 334 345 334 364 c 2,9,-1
 334 533 l 2,10,11
 334 540 334 540 331 542.5 c 128,-1,12
 328 545 328 545 323 545 c 2,13,-1
 12 545 l 2,14,15
 -4 545 -4 545 -4 562 c 2,16,-1
 -4 627 l 2,17,18
 -4 635 -4 635 -0.5 638 c 128,-1,19
 3 641 3 641 9 641 c 2,20,-1
 724 641 l 2,21,22
 738 641 738 641 738 629 c 2,23,-1
 738 350 l 2,24,25
 738 232 738 232 689.5 166.5 c 128,-1,26
 641 101 641 101 546 101 c 0,27,28
 489 101 489 101 449.5 123 c 128,-1,29
 410 145 410 145 386.5 178.5 c 128,-1,30
 363 212 363 212 352 247 c 0,31,32
 351 255 351 255 342 251 c 2,33,-1
 15 111 l 1,34,-1
 15 111 l 1,0,1
404 378 m 1,35,36
 404 290 404 290 436 245.5 c 128,-1,37
 468 201 468 201 537 201 c 0,38,39
 604 201 604 201 636 240.5 c 128,-1,40
 668 280 668 280 668 355 c 2,41,-1
 668 531 l 2,42,43
 668 545 668 545 657 545 c 2,44,-1
 417 545 l 2,45,46
 404 545 404 545 404 536 c 2,47,-1
 404 378 l 1,48,-1
 404 378 l 1,35,36
EndSplineSet
EndChar

StartChar: S
Encoding: 83 83 22
Width: 641
GlyphClass: 2
Flags: W
AnchorPoint: "Anchor-2" -53.9229 356.077 basechar 0
AnchorPoint: "Anchor-0" 688.077 359.077 basechar 0
LayerCount: 2
Fore
SplineSet
550.077148438 190.077148438 m 1,0,1
 581.077148438 216.077148438 581.077148438 216.077148438 603.077148438 257.077148438 c 128,-1,2
 625.077148438 298.077148438 625.077148438 298.077148438 625.077148438 360.077148438 c 0,3,4
 625.077148438 435.077148438 625.077148438 435.077148438 592.077148438 478.077148438 c 128,-1,5
 559.077148438 521.077148438 559.077148438 521.077148438 500.077148438 521.077148438 c 0,6,7
 484.077148438 521.077148438 484.077148438 521.077148438 463.077148438 513.577148438 c 128,-1,8
 442.077148438 506.077148438 442.077148438 506.077148438 422.077148438 483.077148438 c 128,-1,9
 402.077148438 460.077148438 402.077148438 460.077148438 386.077148438 414.077148438 c 2,10,-1
 338.077148438 269.077148438 l 2,11,12
 308.077148438 178.077148438 308.077148438 178.077148438 258.577148438 140.077148438 c 128,-1,13
 209.077148438 102.077148438 209.077148438 102.077148438 142.077148438 102.077148438 c 0,14,15
 78.0771484375 102.077148438 78.0771484375 102.077148438 31.5771484375 134.077148438 c 128,-1,16
 -14.9228515625 166.077148438 -14.9228515625 166.077148438 -39.4228515625 225.077148438 c 128,-1,17
 -63.9228515625 284.077148438 -63.9228515625 284.077148438 -63.9228515625 367.077148438 c 0,18,19
 -63.9228515625 427.077148438 -63.9228515625 427.077148438 -49.4228515625 478.077148438 c 128,-1,20
 -34.9228515625 529.077148438 -34.9228515625 529.077148438 -7.4228515625 568.577148438 c 128,-1,21
 20.0771484375 608.077148438 20.0771484375 608.077148438 61.0771484375 636.077148438 c 0,22,23
 68.0771484375 641.077148438 68.0771484375 641.077148438 73.5771484375 639.577148438 c 128,-1,24
 79.0771484375 638.077148438 79.0771484375 638.077148438 85.0771484375 630.077148438 c 2,25,-1
 110.077148438 594.077148438 l 2,26,27
 116.077148438 584.077148438 116.077148438 584.077148438 116.077148438 578.577148438 c 128,-1,28
 116.077148438 573.077148438 116.077148438 573.077148438 110.077148438 569.077148438 c 0,29,30
 76.0771484375 542.077148438 76.0771484375 542.077148438 53.5771484375 516.077148438 c 128,-1,31
 31.0771484375 490.077148438 31.0771484375 490.077148438 20.0771484375 455.577148438 c 128,-1,32
 9.0771484375 421.077148438 9.0771484375 421.077148438 9.0771484375 371.077148438 c 0,33,34
 9.0771484375 292.077148438 9.0771484375 292.077148438 37.5771484375 243.077148438 c 128,-1,35
 66.0771484375 194.077148438 66.0771484375 194.077148438 132.077148438 194.077148438 c 0,36,37
 157.077148438 194.077148438 157.077148438 194.077148438 177.577148438 204.077148438 c 128,-1,38
 198.077148438 214.077148438 198.077148438 214.077148438 215.577148438 238.077148438 c 128,-1,39
 233.077148438 262.077148438 233.077148438 262.077148438 250.077148438 307.077148438 c 2,40,-1
 302.077148438 459.077148438 l 2,41,42
 321.077148438 514.077148438 321.077148438 514.077148438 351.077148438 548.077148438 c 128,-1,43
 381.077148438 582.077148438 381.077148438 582.077148438 417.077148438 597.577148438 c 128,-1,44
 453.077148438 613.077148438 453.077148438 613.077148438 491.077148438 613.077148438 c 0,45,46
 554.077148438 613.077148438 554.077148438 613.077148438 600.577148438 581.077148438 c 128,-1,47
 647.077148438 549.077148438 647.077148438 549.077148438 672.577148438 492.577148438 c 128,-1,48
 698.077148438 436.077148438 698.077148438 436.077148438 698.077148438 360.077148438 c 0,49,50
 698.077148438 309.077148438 698.077148438 309.077148438 686.077148438 266.577148438 c 128,-1,51
 674.077148438 224.077148438 674.077148438 224.077148438 652.077148438 188.577148438 c 128,-1,52
 630.077148438 153.077148438 630.077148438 153.077148438 599.077148438 126.077148438 c 0,53,54
 595.077148438 122.077148438 595.077148438 122.077148438 590.077148438 121.077148438 c 128,-1,55
 585.077148438 120.077148438 585.077148438 120.077148438 580.077148438 126.077148438 c 2,56,-1
 544.077148438 172.077148438 l 2,57,58
 541.077148438 177.077148438 541.077148438 177.077148438 542.577148438 180.077148438 c 128,-1,59
 544.077148438 183.077148438 544.077148438 183.077148438 550.077148438 190.077148438 c 1,60,-1
 550.077148438 190.077148438 l 1,0,1
EndSplineSet
EndChar

StartChar: T
Encoding: 84 84 23
Width: 645
GlyphClass: 2
Flags: W
AnchorPoint: "Anchor-2" -48 363 basechar 0
AnchorPoint: "Anchor-0" 694 363 basechar 0
LayerCount: 2
Fore
SplineSet
683 652 m 2,0,1
 688 652 688 652 691 649.5 c 128,-1,2
 694 647 694 647 694 640 c 2,3,-1
 694 102 l 2,4,5
 694 96 694 96 691 93 c 128,-1,6
 688 90 688 90 683 90 c 2,7,-1
 631 90 l 2,8,9
 621 90 621 90 621 102 c 2,10,-1
 621 305 l 2,11,12
 621 316 621 316 611 316 c 2,13,-1
 -35 316 l 2,14,15
 -48 316 -48 316 -48 328 c 2,16,-1
 -48 400 l 2,17,18
 -48 412 -48 412 -35 412 c 2,19,-1
 610 412 l 2,20,21
 621 412 621 412 621 422 c 2,22,-1
 621 640 l 2,23,24
 621 652 621 652 631 652 c 2,25,-1
 683 652 l 2,0,1
EndSplineSet
EndChar

StartChar: U
Encoding: 85 85 24
Width: 709
GlyphClass: 2
Flags: W
AnchorPoint: "Anchor-3" -2.5 282.5 basechar 0
AnchorPoint: "Anchor-2" -11.5 365.5 basechar 0
AnchorPoint: "Anchor-1" 730.5 67.5 basechar 0
AnchorPoint: "Anchor-0" 730.5 358.5 basechar 0
LayerCount: 2
Fore
SplineSet
235.5 98.5 m 1,0,1
 146.5 98.5 146.5 98.5 89.5 129 c 128,-1,2
 32.5 159.5 32.5 159.5 5.5 219.5 c 128,-1,3
 -21.5 279.5 -21.5 279.5 -21.5 365.5 c 0,4,5
 -21.5 459.5 -21.5 459.5 8.5 518.5 c 128,-1,6
 38.5 577.5 38.5 577.5 99.5 605.5 c 128,-1,7
 160.5 633.5 160.5 633.5 252.5 633.5 c 2,8,-1
 716.5 633.5 l 2,9,10
 730.5 633.5 730.5 633.5 730.5 621.5 c 2,11,-1
 730.5 549.5 l 2,12,13
 730.5 537.5 730.5 537.5 717.5 537.5 c 2,14,-1
 231.5 537.5 l 2,15,16
 140.5 537.5 140.5 537.5 96.5 492.5 c 128,-1,17
 52.5 447.5 52.5 447.5 52.5 359.5 c 0,18,19
 52.5 301.5 52.5 301.5 72 261 c 128,-1,20
 91.5 220.5 91.5 220.5 131.5 200 c 128,-1,21
 171.5 179.5 171.5 179.5 234.5 179.5 c 2,22,-1
 717.5 179.5 l 2,23,24
 730.5 179.5 730.5 179.5 730.5 168.5 c 2,25,-1
 730.5 109.5 l 2,26,27
 730.5 98.5 730.5 98.5 718.5 98.5 c 2,28,-1
 235.5 98.5 l 1,29,-1
 235.5 98.5 l 1,0,1
EndSplineSet
EndChar

StartChar: V
Encoding: 86 86 25
Width: 707
GlyphClass: 1
Flags: W
LayerCount: 2
Fore
SplineSet
724.849609375 73.849609375 m 1,0,1
 724.849609375 66.849609375 724.849609375 66.849609375 720.349609375 63.849609375 c 128,-1,2
 715.849609375 60.849609375 715.849609375 60.849609375 709.849609375 63.849609375 c 2,3,-1
 -2.150390625 316.849609375 l 2,4,5
 -17.150390625 321.849609375 -17.150390625 321.849609375 -17.150390625 338.849609375 c 2,6,-1
 -17.150390625 406.849609375 l 2,7,8
 -17.150390625 426.849609375 -17.150390625 426.849609375 -3.150390625 430.849609375 c 2,9,-1
 709.849609375 678.849609375 l 2,10,11
 715.849609375 680.849609375 715.849609375 680.849609375 720.349609375 677.849609375 c 128,-1,12
 724.849609375 674.849609375 724.849609375 674.849609375 724.849609375 667.849609375 c 2,13,-1
 724.849609375 598.849609375 l 2,14,15
 724.849609375 585.849609375 724.849609375 585.849609375 712.849609375 581.849609375 c 2,16,-1
 106.849609375 373.849609375 l 2,17,18
 87.849609375 365.849609375 87.849609375 365.849609375 107.849609375 358.849609375 c 2,19,-1
 713.849609375 147.849609375 l 2,20,21
 724.849609375 144.849609375 724.849609375 144.849609375 724.849609375 132.849609375 c 2,22,-1
 724.849609375 73.849609375 l 1,23,-1
 724.849609375 73.849609375 l 1,0,1
EndSplineSet
EndChar

StartChar: W
Encoding: 87 87 26
Width: 1045
GlyphClass: 2
Flags: W
AnchorPoint: "Anchor-0" 894.5 369.5 basechar 0
LayerCount: 2
Fore
SplineSet
894.5 -90.5 m 1,0,1
 894.5 -99.5 894.5 -99.5 889.5 -103 c 128,-1,2
 884.5 -106.5 884.5 -106.5 876.5 -104.5 c 2,3,-1
 167.5 101.5 l 2,4,5
 152.5 106.5 152.5 106.5 152.5 123.5 c 2,6,-1
 152.5 184.5 l 2,7,8
 152.5 203.5 152.5 203.5 166.5 207.5 c 2,9,-1
 733.5 367.5 l 2,10,11
 738.5 368.5 738.5 368.5 738.5 370.5 c 128,-1,12
 738.5 372.5 738.5 372.5 732.5 374.5 c 2,13,-1
 167.5 536.5 l 2,14,15
 152.5 541.5 152.5 541.5 152.5 558.5 c 2,16,-1
 152.5 620.5 l 2,17,18
 152.5 639.5 152.5 639.5 166.5 643.5 c 2,19,-1
 876.5 846.5 l 2,20,21
 884.5 848.5 884.5 848.5 889.5 845 c 128,-1,22
 894.5 841.5 894.5 841.5 894.5 832.5 c 2,23,-1
 894.5 768.5 l 2,24,25
 894.5 760.5 894.5 760.5 892 756.5 c 128,-1,26
 889.5 752.5 889.5 752.5 882.5 751.5 c 2,27,-1
 300.5 588.5 l 2,28,29
 289.5 585.5 289.5 585.5 290 582 c 128,-1,30
 290.5 578.5 290.5 578.5 299.5 576.5 c 2,31,-1
 883.5 410.5 l 2,32,33
 887.5 408.5 887.5 408.5 891 405 c 128,-1,34
 894.5 401.5 894.5 401.5 894.5 392.5 c 2,35,-1
 894.5 335.5 l 2,36,37
 894.5 326.5 894.5 326.5 892 323 c 128,-1,38
 889.5 319.5 889.5 319.5 882.5 317.5 c 2,39,-1
 297.5 153.5 l 2,40,41
 288.5 150.5 288.5 150.5 289 147.5 c 128,-1,42
 289.5 144.5 289.5 144.5 297.5 141.5 c 2,43,-1
 883.5 -23.5 l 2,44,45
 889.5 -24.5 889.5 -24.5 892 -29 c 128,-1,46
 894.5 -33.5 894.5 -33.5 894.5 -40.5 c 2,47,-1
 894.5 -90.5 l 1,48,-1
 894.5 -90.5 l 1,0,1
EndSplineSet
EndChar

StartChar: X
Encoding: 88 88 27
Width: 688
GlyphClass: 1
Flags: W
LayerCount: 2
Fore
SplineSet
-5.634765625 77.365234375 m 1,0,1
 -17.634765625 68.365234375 -17.634765625 68.365234375 -22.134765625 71.865234375 c 128,-1,2
 -26.634765625 75.365234375 -26.634765625 75.365234375 -26.634765625 84.365234375 c 2,3,-1
 -26.634765625 160.365234375 l 2,4,5
 -26.634765625 171.365234375 -26.634765625 171.365234375 -18.634765625 176.365234375 c 2,6,-1
 267.365234375 366.365234375 l 2,7,8
 277.365234375 372.365234375 277.365234375 372.365234375 277.365234375 376.865234375 c 128,-1,9
 277.365234375 381.365234375 277.365234375 381.365234375 265.365234375 389.365234375 c 2,10,-1
 -18.634765625 576.365234375 l 2,11,12
 -22.634765625 578.365234375 -22.634765625 578.365234375 -24.634765625 583.365234375 c 128,-1,13
 -26.634765625 588.365234375 -26.634765625 588.365234375 -26.634765625 593.365234375 c 2,14,-1
 -26.634765625 659.365234375 l 2,15,16
 -26.634765625 667.365234375 -26.634765625 667.365234375 -22.134765625 670.365234375 c 128,-1,17
 -17.634765625 673.365234375 -17.634765625 673.365234375 -5.634765625 664.365234375 c 2,18,-1
 339.365234375 435.365234375 l 2,19,20
 346.365234375 430.365234375 346.365234375 430.365234375 351.865234375 430.865234375 c 128,-1,21
 357.365234375 431.365234375 357.365234375 431.365234375 364.365234375 436.365234375 c 2,22,-1
 700.365234375 659.365234375 l 2,23,24
 704.365234375 662.365234375 704.365234375 662.365234375 709.865234375 661.365234375 c 128,-1,25
 715.365234375 660.365234375 715.365234375 660.365234375 715.365234375 653.365234375 c 2,26,-1
 715.365234375 572.365234375 l 2,27,28
 715.365234375 564.365234375 715.365234375 564.365234375 713.365234375 560.865234375 c 128,-1,29
 711.365234375 557.365234375 711.365234375 557.365234375 706.365234375 555.365234375 c 2,30,-1
 439.365234375 380.365234375 l 2,31,32
 432.365234375 375.365234375 432.365234375 375.365234375 432.365234375 370.865234375 c 128,-1,33
 432.365234375 366.365234375 432.365234375 366.365234375 439.365234375 361.365234375 c 2,34,-1
 706.365234375 186.365234375 l 2,35,36
 711.365234375 183.365234375 711.365234375 183.365234375 713.365234375 179.865234375 c 128,-1,37
 715.365234375 176.365234375 715.365234375 176.365234375 715.365234375 170.365234375 c 2,38,-1
 715.365234375 97.365234375 l 2,39,40
 715.365234375 90.365234375 715.365234375 90.365234375 710.865234375 89.865234375 c 128,-1,41
 706.365234375 89.365234375 706.365234375 89.365234375 702.365234375 92.365234375 c 2,42,-1
 371.365234375 314.365234375 l 2,43,44
 365.365234375 318.365234375 365.365234375 318.365234375 360.865234375 318.365234375 c 128,-1,45
 356.365234375 318.365234375 356.365234375 318.365234375 349.365234375 314.365234375 c 2,46,-1
 -5.634765625 77.365234375 l 1,47,-1
 -5.634765625 77.365234375 l 1,0,1
EndSplineSet
EndChar

StartChar: Y
Encoding: 89 89 28
Width: 675
GlyphClass: 2
Flags: W
AnchorPoint: "Anchor-2" -33 371 basechar 0
AnchorPoint: "Anchor-0" 709 371 basechar 0
LayerCount: 2
Fore
SplineSet
709 85 m 1,0,1
 709 78 709 78 705 75.5 c 128,-1,2
 701 73 701 73 695 77 c 2,3,-1
 297 315 l 2,4,5
 291 319 291 319 285 320 c 128,-1,6
 279 321 279 321 264 321 c 2,7,-1
 -16 321 l 2,8,9
 -33 321 -33 321 -33 340 c 2,10,-1
 -33 400 l 2,11,12
 -33 410 -33 410 -29 413 c 128,-1,13
 -25 416 -25 416 -18 416 c 2,14,-1
 260 416 l 2,15,16
 270 416 270 416 275 418 c 128,-1,17
 280 420 280 420 287 424 c 2,18,-1
 693 665 l 2,19,20
 700 669 700 669 704.5 666.5 c 128,-1,21
 709 664 709 664 709 654 c 2,22,-1
 709 582 l 2,23,24
 709 573 709 573 706.5 569 c 128,-1,25
 704 565 704 565 697 561 c 2,26,-1
 377 375 l 2,27,28
 366 369 366 369 365.5 364 c 128,-1,29
 365 359 365 359 375 353 c 2,30,-1
 697 168 l 2,31,32
 705 164 705 164 707 160 c 128,-1,33
 709 156 709 156 709 147 c 2,34,-1
 709 85 l 1,35,-1
 709 85 l 1,0,1
EndSplineSet
EndChar

StartChar: Z
Encoding: 90 90 29
Width: 631
GlyphClass: 2
Flags: W
AnchorPoint: "Anchor-2" -56.5 363.5 basechar 0
AnchorPoint: "Anchor-0" 685.5 362.5 basechar 0
LayerCount: 2
Fore
SplineSet
-56.5 625.5 m 1,0,1
 -56.5 632.5 -56.5 632.5 -54 635.5 c 128,-1,2
 -51.5 638.5 -51.5 638.5 -44.5 638.5 c 2,3,-1
 -21.5 638.5 l 2,4,5
 -13.5 638.5 -13.5 638.5 -9 636.5 c 128,-1,6
 -4.5 634.5 -4.5 634.5 5.5 627.5 c 2,7,-1
 601.5 238.5 l 2,8,9
 611.5 232.5 611.5 232.5 611.5 243.5 c 2,10,-1
 611.5 611.5 l 2,11,12
 611.5 617.5 611.5 617.5 614 620 c 128,-1,13
 616.5 622.5 616.5 622.5 622.5 622.5 c 2,14,-1
 675.5 622.5 l 2,15,16
 685.5 622.5 685.5 622.5 685.5 612.5 c 2,17,-1
 685.5 112.5 l 2,18,19
 685.5 103.5 685.5 103.5 675.5 103.5 c 2,20,-1
 649.5 103.5 l 2,21,22
 643.5 103.5 643.5 103.5 640 105.5 c 128,-1,23
 636.5 107.5 636.5 107.5 629.5 111.5 c 2,24,-1
 27.5 506.5 l 2,25,26
 22.5 509.5 22.5 509.5 20.5 508 c 128,-1,27
 18.5 506.5 18.5 506.5 18.5 502.5 c 2,28,-1
 18.5 115.5 l 2,29,30
 18.5 104.5 18.5 104.5 9.5 104.5 c 2,31,-1
 -45.5 104.5 l 2,32,33
 -50.5 104.5 -50.5 104.5 -53.5 107.5 c 128,-1,34
 -56.5 110.5 -56.5 110.5 -56.5 116.5 c 2,35,-1
 -56.5 625.5 l 1,36,-1
 -56.5 625.5 l 1,0,1
EndSplineSet
EndChar

StartChar: a
Encoding: 97 97 30
Width: 548
GlyphClass: 2
Flags: W
AnchorPoint: "Anchor-3" 4.5 57.5 basechar 0
AnchorPoint: "Anchor-2" -8.5 250.5 basechar 0
AnchorPoint: "Anchor-0" 521.5 249.5 basechar 0
LayerCount: 2
Fore
SplineSet
55.5 139.5 m 1,0,1
 19.5 176.5 19.5 176.5 0.5 220 c 128,-1,2
 -18.5 263.5 -18.5 263.5 -18.5 317.5 c 0,3,4
 -18.5 395.5 -18.5 395.5 21.5 440 c 128,-1,5
 61.5 484.5 61.5 484.5 126.5 484.5 c 0,6,7
 179.5 484.5 179.5 484.5 218 454.5 c 128,-1,8
 256.5 424.5 256.5 424.5 279 365.5 c 128,-1,9
 301.5 306.5 301.5 306.5 306.5 220.5 c 2,10,-1
 312.5 142.5 l 2,11,12
 313.5 136.5 313.5 136.5 316.5 131.5 c 128,-1,13
 319.5 126.5 319.5 126.5 327.5 126.5 c 2,14,-1
 354.5 126.5 l 2,15,16
 408.5 126.5 408.5 126.5 440 160 c 128,-1,17
 471.5 193.5 471.5 193.5 471.5 250.5 c 0,18,19
 471.5 294.5 471.5 294.5 451.5 330 c 128,-1,20
 431.5 365.5 431.5 365.5 391.5 393.5 c 0,21,22
 386.5 397.5 386.5 397.5 385 400 c 128,-1,23
 383.5 402.5 383.5 402.5 385.5 408.5 c 2,24,-1
 403.5 462.5 l 2,25,26
 405.5 465.5 405.5 465.5 408.5 467 c 128,-1,27
 411.5 468.5 411.5 468.5 419.5 464.5 c 0,28,29
 471.5 434.5 471.5 434.5 501.5 380 c 128,-1,30
 531.5 325.5 531.5 325.5 531.5 246.5 c 0,31,32
 531.5 179.5 531.5 179.5 511 135 c 128,-1,33
 490.5 90.5 490.5 90.5 452 68 c 128,-1,34
 413.5 45.5 413.5 45.5 360.5 45.5 c 2,35,-1
 6.5 45.5 l 2,36,37
 -2.5 45.5 -2.5 45.5 -5.5 48.5 c 128,-1,38
 -8.5 51.5 -8.5 51.5 -8.5 58.5 c 2,39,-1
 -8.5 109.5 l 2,40,41
 -8.5 116.5 -8.5 116.5 -4 119.5 c 128,-1,42
 0.5 122.5 0.5 122.5 7.5 123.5 c 2,43,-1
 53.5 124.5 l 2,44,45
 67.5 127.5 67.5 127.5 55.5 139.5 c 1,46,-1
 55.5 139.5 l 1,0,1
245.5 126.5 m 1,47,48
 262.5 126.5 262.5 126.5 261.5 140.5 c 2,49,-1
 255.5 206.5 l 2,50,51
 253.5 252.5 253.5 252.5 244 288.5 c 128,-1,52
 234.5 324.5 234.5 324.5 219.5 349.5 c 128,-1,53
 204.5 374.5 204.5 374.5 184 387.5 c 128,-1,54
 163.5 400.5 163.5 400.5 136.5 400.5 c 0,55,56
 92.5 400.5 92.5 400.5 68 370 c 128,-1,57
 43.5 339.5 43.5 339.5 43.5 287.5 c 0,58,59
 43.5 255.5 43.5 255.5 55 226 c 128,-1,60
 66.5 196.5 66.5 196.5 84.5 174.5 c 0,61,62
 103.5 151.5 103.5 151.5 123.5 139 c 128,-1,63
 143.5 126.5 143.5 126.5 162.5 126.5 c 2,64,-1
 245.5 126.5 l 1,65,-1
 245.5 126.5 l 1,47,48
EndSplineSet
Substitution2: "Single Substitution lookup 27 subtable" ordfeminine
Substitution2: "'aalt' Access All Alternates in Latin lookup 0 subtable" ordfeminine
EndChar

StartChar: b
Encoding: 98 98 31
Width: 599
GlyphClass: 1
Flags: W
LayerCount: 2
Fore
SplineSet
-52.5 586.5 m 2,0,1
 -52.5 595.5 -52.5 595.5 -48.5 599 c 128,-1,2
 -44.5 602.5 -44.5 602.5 -36.5 602.5 c 2,3,-1
 675.5 602.5 l 2,4,5
 689.5 602.5 689.5 602.5 689.5 590.5 c 2,6,-1
 689.5 528.5 l 2,7,8
 689.5 518.5 689.5 518.5 675.5 518.5 c 2,9,-1
 430.5 518.5 l 2,10,11
 419.5 518.5 419.5 518.5 419 514.5 c 128,-1,12
 418.5 510.5 418.5 510.5 424.5 503.5 c 0,13,14
 433.5 494.5 433.5 494.5 448.5 474 c 128,-1,15
 463.5 453.5 463.5 453.5 475.5 421 c 128,-1,16
 487.5 388.5 487.5 388.5 487.5 343.5 c 0,17,18
 487.5 270.5 487.5 270.5 451.5 223.5 c 128,-1,19
 415.5 176.5 415.5 176.5 354 153 c 128,-1,20
 292.5 129.5 292.5 129.5 215.5 129.5 c 0,21,22
 87.5 129.5 87.5 129.5 12.5 189.5 c 128,-1,23
 -62.5 249.5 -62.5 249.5 -62.5 357.5 c 0,24,25
 -62.5 403.5 -62.5 403.5 -48.5 436 c 128,-1,26
 -34.5 468.5 -34.5 468.5 -15.5 489.5 c 128,-1,27
 3.5 510.5 3.5 510.5 16.5 520.5 c 0,28,29
 21.5 524.5 21.5 524.5 20.5 527.5 c 128,-1,30
 19.5 530.5 19.5 530.5 13.5 531.5 c 2,31,-1
 -36.5 536.5 l 2,32,33
 -52.5 538.5 -52.5 538.5 -52.5 554.5 c 2,34,-1
 -52.5 586.5 l 2,0,1
126.5 518.5 m 2,35,36
 90.5 518.5 90.5 518.5 61 498 c 128,-1,37
 31.5 477.5 31.5 477.5 14.5 444.5 c 128,-1,38
 -2.5 411.5 -2.5 411.5 -2.5 375.5 c 0,39,40
 -2.5 330.5 -2.5 330.5 20 294.5 c 128,-1,41
 42.5 258.5 42.5 258.5 90.5 237.5 c 128,-1,42
 138.5 216.5 138.5 216.5 213.5 216.5 c 0,43,44
 315.5 216.5 315.5 216.5 371 255.5 c 128,-1,45
 426.5 294.5 426.5 294.5 426.5 368.5 c 0,46,47
 426.5 415.5 426.5 415.5 405 454 c 128,-1,48
 383.5 492.5 383.5 492.5 352.5 518.5 c 1,49,-1
 126.5 518.5 l 2,35,36
EndSplineSet
EndChar

StartChar: c
Encoding: 99 99 32
Width: 542
GlyphClass: 2
Flags: W
AnchorPoint: "Anchor-2" 13.9502 246.95 basechar 0
AnchorPoint: "Anchor-0" 543.95 247.95 basechar 0
LayerCount: 2
Fore
SplineSet
553.950195312 246.950195312 m 1,0,1
 553.950195312 194.950195312 553.950195312 194.950195312 537.450195312 155.450195312 c 128,-1,2
 520.950195312 115.950195312 520.950195312 115.950195312 492.450195312 87.4501953125 c 128,-1,3
 463.950195312 58.9501953125 463.950195312 58.9501953125 429.950195312 39.9501953125 c 0,4,5
 417.950195312 33.9501953125 417.950195312 33.9501953125 414.950195312 44.9501953125 c 2,6,-1
 401.950195312 99.9501953125 l 2,7,8
 398.950195312 106.950195312 398.950195312 106.950195312 407.950195312 112.950195312 c 0,9,10
 436.950195312 132.950195312 436.950195312 132.950195312 454.950195312 152.450195312 c 128,-1,11
 472.950195312 171.950195312 472.950195312 171.950195312 482.450195312 193.950195312 c 128,-1,12
 491.950195312 215.950195312 491.950195312 215.950195312 491.950195312 241.950195312 c 0,13,14
 491.950195312 292.950195312 491.950195312 292.950195312 466.450195312 331.450195312 c 128,-1,15
 440.950195312 369.950195312 440.950195312 369.950195312 392.950195312 390.950195312 c 128,-1,16
 344.950195312 411.950195312 344.950195312 411.950195312 278.950195312 411.950195312 c 0,17,18
 211.950195312 411.950195312 211.950195312 411.950195312 163.950195312 390.450195312 c 128,-1,19
 115.950195312 368.950195312 115.950195312 368.950195312 90.9501953125 330.450195312 c 128,-1,20
 65.9501953125 291.950195312 65.9501953125 291.950195312 65.9501953125 239.950195312 c 0,21,22
 65.9501953125 191.950195312 65.9501953125 191.950195312 89.9501953125 156.950195312 c 128,-1,23
 113.950195312 121.950195312 113.950195312 121.950195312 159.950195312 92.9501953125 c 0,24,25
 164.950195312 89.9501953125 164.950195312 89.9501953125 165.450195312 87.4501953125 c 128,-1,26
 165.950195312 84.9501953125 165.950195312 84.9501953125 163.950195312 79.9501953125 c 2,27,-1
 147.950195312 36.9501953125 l 2,28,29
 144.950195312 29.9501953125 144.950195312 29.9501953125 134.950195312 32.9501953125 c 0,30,31
 108.950195312 47.9501953125 108.950195312 47.9501953125 84.9501953125 67.9501953125 c 128,-1,32
 60.9501953125 87.9501953125 60.9501953125 87.9501953125 42.9501953125 114.450195312 c 128,-1,33
 24.9501953125 140.950195312 24.9501953125 140.950195312 14.4501953125 173.950195312 c 128,-1,34
 3.9501953125 206.950195312 3.9501953125 206.950195312 3.9501953125 246.950195312 c 0,35,36
 3.9501953125 320.950195312 3.9501953125 320.950195312 38.4501953125 377.450195312 c 128,-1,37
 72.9501953125 433.950195312 72.9501953125 433.950195312 134.450195312 465.950195312 c 128,-1,38
 195.950195312 497.950195312 195.950195312 497.950195312 276.950195312 497.950195312 c 0,39,40
 358.950195312 497.950195312 358.950195312 497.950195312 420.950195312 465.450195312 c 128,-1,41
 482.950195312 432.950195312 482.950195312 432.950195312 518.450195312 376.450195312 c 128,-1,42
 553.950195312 319.950195312 553.950195312 319.950195312 553.950195312 246.950195312 c 1,43,-1
 553.950195312 246.950195312 l 1,0,1
EndSplineSet
EndChar

StartChar: d
Encoding: 100 100 33
Width: 599
GlyphClass: 2
Flags: W
AnchorPoint: "Anchor-2" -81.5 347.5 basechar 0
AnchorPoint: "Anchor-1" 602.5 32.5 basechar 0
LayerCount: 2
Fore
SplineSet
-81.5 196.5 m 1,0,1
 -81.5 203.5 -81.5 203.5 -78 207 c 128,-1,2
 -74.5 210.5 -74.5 210.5 -67.5 210.5 c 2,3,-1
 -25.5 210.5 l 2,4,5
 -17.5 210.5 -17.5 210.5 -16.5 214 c 128,-1,6
 -15.5 217.5 -15.5 217.5 -21.5 223.5 c 0,7,8
 -31.5 234.5 -31.5 234.5 -48.5 255 c 128,-1,9
 -65.5 275.5 -65.5 275.5 -78.5 306.5 c 128,-1,10
 -91.5 337.5 -91.5 337.5 -91.5 380.5 c 0,11,12
 -91.5 443.5 -91.5 443.5 -61.5 493.5 c 128,-1,13
 -31.5 543.5 -31.5 543.5 28 573 c 128,-1,14
 87.5 602.5 87.5 602.5 175.5 602.5 c 0,15,16
 260.5 602.5 260.5 602.5 324 573 c 128,-1,17
 387.5 543.5 387.5 543.5 423 490 c 128,-1,18
 458.5 436.5 458.5 436.5 458.5 368.5 c 0,19,20
 458.5 319.5 458.5 319.5 442.5 286.5 c 128,-1,21
 426.5 253.5 426.5 253.5 405.5 228.5 c 0,22,23
 398.5 219.5 398.5 219.5 400 216 c 128,-1,24
 401.5 212.5 401.5 212.5 412.5 212.5 c 2,25,-1
 647.5 212.5 l 2,26,27
 660.5 212.5 660.5 212.5 660.5 201.5 c 2,28,-1
 660.5 140.5 l 2,29,30
 660.5 129.5 660.5 129.5 647.5 129.5 c 2,31,-1
 -65.5 129.5 l 2,32,33
 -74.5 129.5 -74.5 129.5 -78 132.5 c 128,-1,34
 -81.5 135.5 -81.5 135.5 -81.5 145.5 c 2,35,-1
 -81.5 196.5 l 1,36,-1
 -81.5 196.5 l 1,0,1
331.5 213.5 m 1,37,38
 362.5 244.5 362.5 244.5 379.5 276.5 c 128,-1,39
 396.5 308.5 396.5 308.5 396.5 348.5 c 0,40,41
 396.5 396.5 396.5 396.5 372 435 c 128,-1,42
 347.5 473.5 347.5 473.5 298.5 495 c 128,-1,43
 249.5 516.5 249.5 516.5 178.5 516.5 c 0,44,45
 105.5 516.5 105.5 516.5 59 494.5 c 128,-1,46
 12.5 472.5 12.5 472.5 -9 435.5 c 128,-1,47
 -30.5 398.5 -30.5 398.5 -30.5 354.5 c 0,48,49
 -30.5 313.5 -30.5 313.5 -11.5 282 c 128,-1,50
 7.5 250.5 7.5 250.5 35.5 232 c 128,-1,51
 63.5 213.5 63.5 213.5 90.5 213.5 c 2,52,-1
 331.5 213.5 l 1,53,-1
 331.5 213.5 l 1,37,38
EndSplineSet
EndChar

StartChar: e
Encoding: 101 101 34
Width: 581
GlyphClass: 2
Flags: W
AnchorPoint: "Anchor-3" 48 154 basechar 0
AnchorPoint: "Anchor-2" 28 257 basechar 0
AnchorPoint: "Anchor-0" 558 260 basechar 0
LayerCount: 2
Fore
SplineSet
260 425 m 1,0,1
 211 425 211 425 170.5 401.5 c 128,-1,2
 130 378 130 378 106 338.5 c 128,-1,3
 82 299 82 299 82 250 c 0,4,5
 82 200 82 200 102.5 161 c 128,-1,6
 123 122 123 122 165 94 c 0,7,8
 169 90 169 90 169.5 87.5 c 128,-1,9
 170 85 170 85 168 80 c 2,10,-1
 147 38 l 2,11,12
 142 29 142 29 133 36 c 0,13,14
 93 63 93 63 67.5 95.5 c 128,-1,15
 42 128 42 128 30 168 c 128,-1,16
 18 208 18 208 18 258 c 0,17,18
 18 332 18 332 52 389 c 128,-1,19
 86 446 86 446 147 479 c 128,-1,20
 208 512 208 512 288 512 c 0,21,22
 375 512 375 512 437.5 478.5 c 128,-1,23
 500 445 500 445 534 387.5 c 128,-1,24
 568 330 568 330 568 259 c 0,25,26
 568 186 568 186 536 132 c 128,-1,27
 504 78 504 78 443 48 c 128,-1,28
 382 18 382 18 296 18 c 0,29,30
 289 18 289 18 282 19.5 c 128,-1,31
 275 21 275 21 275 33 c 2,32,-1
 275 416 l 2,33,34
 275 420 275 420 270.5 422.5 c 128,-1,35
 266 425 266 425 260 425 c 1,36,-1
 260 425 l 1,0,1
330 119 m 2,37,38
 330 108 330 108 332.5 105 c 128,-1,39
 335 102 335 102 344 102 c 0,40,41
 387 102 387 102 424.5 120.5 c 128,-1,42
 462 139 462 139 485 173.5 c 128,-1,43
 508 208 508 208 508 257 c 0,44,45
 508 311 508 311 482.5 348 c 128,-1,46
 457 385 457 385 416 404 c 128,-1,47
 375 423 375 423 330 423 c 1,48,-1
 330 119 l 2,37,38
EndSplineSet
EndChar

StartChar: f
Encoding: 102 102 35
Width: 379
GlyphClass: 1
Flags: W
LayerCount: 2
Fore
SplineSet
351 218 m 1,0,1
 351 213 351 213 348 210.5 c 128,-1,2
 345 208 345 208 341 208 c 2,3,-1
 298 208 l 2,4,5
 288 208 288 208 288 218 c 2,6,-1
 288 332 l 2,7,8
 288 340 288 340 280 340 c 2,9,-1
 -165 340 l 2,10,11
 -179 340 -179 340 -179 352 c 2,12,-1
 -179 413 l 2,13,14
 -179 424 -179 424 -166 424 c 2,15,-1
 281 424 l 2,16,17
 288 424 288 424 288 431 c 2,18,-1
 288 529 l 2,19,20
 288 539 288 539 298 539 c 2,21,-1
 341 539 l 2,22,23
 345 539 345 539 348 536.5 c 128,-1,24
 351 534 351 534 351 528 c 2,25,-1
 351 433 l 2,26,27
 351 424 351 424 361 424 c 2,28,-1
 434 424 l 2,29,30
 497 424 497 424 530 393 c 128,-1,31
 563 362 563 362 563 299 c 2,32,-1
 563 216 l 2,33,34
 563 203 563 203 551 203 c 2,35,-1
 512 203 l 2,36,37
 507 203 507 203 504.5 205.5 c 128,-1,38
 502 208 502 208 502 214 c 2,39,-1
 502 284 l 2,40,41
 502 315 502 315 482.5 328.5 c 128,-1,42
 463 342 463 342 430 342 c 2,43,-1
 360 342 l 2,44,45
 351 342 351 342 351 333 c 2,46,-1
 351 218 l 1,47,-1
 351 218 l 1,0,1
EndSplineSet
EndChar

StartChar: g
Encoding: 103 103 36
Width: 602
GlyphClass: 2
Flags: W
AnchorPoint: "Anchor-0" 647.5 192.5 basechar 0
LayerCount: 2
Fore
SplineSet
656.5 -74.5 m 1,0,1
 656.5 -84.5 656.5 -84.5 652.5 -89 c 128,-1,2
 648.5 -93.5 648.5 -93.5 640.5 -93.5 c 2,3,-1
 605.5 -93.5 l 2,4,5
 596.5 -93.5 596.5 -93.5 591.5 -89 c 128,-1,6
 586.5 -84.5 586.5 -84.5 587.5 -73.5 c 0,7,8
 587.5 -57.5 587.5 -57.5 585.5 -45.5 c 128,-1,9
 583.5 -33.5 583.5 -33.5 578.5 -21.5 c 0,10,11
 569.5 2.5 569.5 2.5 555.5 -1.5 c 0,12,13
 544.5 -6.5 544.5 -6.5 529 -12.5 c 128,-1,14
 513.5 -18.5 513.5 -18.5 487.5 -18.5 c 0,15,16
 443.5 -18.5 443.5 -18.5 407 4.5 c 128,-1,17
 370.5 27.5 370.5 27.5 348.5 76 c 128,-1,18
 326.5 124.5 326.5 124.5 326.5 198.5 c 0,19,20
 326.5 249.5 326.5 249.5 320.5 278.5 c 128,-1,21
 314.5 307.5 314.5 307.5 304.5 319.5 c 128,-1,22
 294.5 331.5 294.5 331.5 283.5 331.5 c 0,23,24
 267.5 331.5 267.5 331.5 260.5 310 c 128,-1,25
 253.5 288.5 253.5 288.5 250.5 240.5 c 2,26,-1
 243.5 111.5 l 2,27,28
 238.5 23.5 238.5 23.5 201.5 -17.5 c 128,-1,29
 164.5 -58.5 164.5 -58.5 104.5 -58.5 c 0,30,31
 29.5 -58.5 29.5 -58.5 -14 8 c 128,-1,32
 -57.5 74.5 -57.5 74.5 -57.5 197.5 c 0,33,34
 -57.5 324.5 -57.5 324.5 -21 391 c 128,-1,35
 15.5 457.5 15.5 457.5 83.5 457.5 c 0,36,37
 118.5 457.5 118.5 457.5 146.5 433 c 128,-1,38
 174.5 408.5 174.5 408.5 196.5 363.5 c 0,39,40
 201.5 352.5 201.5 352.5 207.5 363.5 c 0,41,42
 217.5 385.5 217.5 385.5 232 397.5 c 128,-1,43
 246.5 409.5 246.5 409.5 266.5 409.5 c 0,44,45
 280.5 409.5 280.5 409.5 294.5 400.5 c 128,-1,46
 308.5 391.5 308.5 391.5 320.5 374 c 128,-1,47
 332.5 356.5 332.5 356.5 341.5 331.5 c 0,48,49
 343.5 325.5 343.5 325.5 346.5 325.5 c 128,-1,50
 349.5 325.5 349.5 325.5 353.5 330.5 c 0,51,52
 375.5 374.5 375.5 374.5 408.5 395.5 c 128,-1,53
 441.5 416.5 441.5 416.5 487.5 416.5 c 0,54,55
 565.5 416.5 565.5 416.5 610.5 357.5 c 128,-1,56
 655.5 298.5 655.5 298.5 655.5 190.5 c 0,57,58
 655.5 138.5 655.5 138.5 643.5 102 c 128,-1,59
 631.5 65.5 631.5 65.5 610.5 40.5 c 0,60,61
 605.5 34.5 605.5 34.5 605.5 29.5 c 128,-1,62
 605.5 24.5 605.5 24.5 610.5 19.5 c 0,63,64
 621.5 7.5 621.5 7.5 632 -7.5 c 128,-1,65
 642.5 -22.5 642.5 -22.5 649.5 -40 c 128,-1,66
 656.5 -57.5 656.5 -57.5 656.5 -74.5 c 1,67,-1
 656.5 -74.5 l 1,0,1
379.5 198.5 m 1,68,69
 379.5 128.5 379.5 128.5 408 94.5 c 128,-1,70
 436.5 60.5 436.5 60.5 488.5 60.5 c 0,71,72
 541.5 60.5 541.5 60.5 572 94.5 c 128,-1,73
 602.5 128.5 602.5 128.5 602.5 198.5 c 0,74,75
 602.5 265.5 602.5 265.5 572 302 c 128,-1,76
 541.5 338.5 541.5 338.5 488.5 338.5 c 0,77,78
 436.5 338.5 436.5 338.5 408 302 c 128,-1,79
 379.5 265.5 379.5 265.5 379.5 198.5 c 1,80,-1
 379.5 198.5 l 1,68,69
182.5 286.5 m 2,81,82
 183.5 304.5 183.5 304.5 172 326.5 c 128,-1,83
 160.5 348.5 160.5 348.5 140.5 365.5 c 128,-1,84
 120.5 382.5 120.5 382.5 93.5 382.5 c 0,85,86
 62.5 382.5 62.5 382.5 40 361 c 128,-1,87
 17.5 339.5 17.5 339.5 6 296 c 128,-1,88
 -5.5 252.5 -5.5 252.5 -5.5 188.5 c 0,89,90
 -5.5 105.5 -5.5 105.5 19 62.5 c 128,-1,91
 43.5 19.5 43.5 19.5 94.5 19.5 c 0,92,93
 127.5 19.5 127.5 19.5 148.5 42 c 128,-1,94
 169.5 64.5 169.5 64.5 172.5 119.5 c 2,95,-1
 182.5 286.5 l 2,81,82
EndSplineSet
EndChar

StartChar: h
Encoding: 104 104 37
Width: 584
GlyphClass: 2
Flags: W
AnchorPoint: "Anchor-2" -75.5 362.5 basechar 0
AnchorPoint: "Anchor-0" 454.5 308.5 basechar 0
LayerCount: 2
Fore
SplineSet
-75.5 575.5 m 1,0,1
 -75.5 588.5 -75.5 588.5 -62.5 588.5 c 2,2,-1
 653.5 588.5 l 2,3,4
 666.5 588.5 666.5 588.5 666.5 577.5 c 2,5,-1
 666.5 518.5 l 2,6,7
 666.5 507.5 666.5 507.5 654.5 507.5 c 2,8,-1
 387.5 507.5 l 2,9,10
 382.5 507.5 382.5 507.5 381.5 505.5 c 128,-1,11
 380.5 503.5 380.5 503.5 384.5 498.5 c 0,12,13
 411.5 463.5 411.5 463.5 429.5 434 c 128,-1,14
 447.5 404.5 447.5 404.5 456 376 c 128,-1,15
 464.5 347.5 464.5 347.5 464.5 313.5 c 0,16,17
 464.5 235.5 464.5 235.5 423 194.5 c 128,-1,18
 381.5 153.5 381.5 153.5 312.5 153.5 c 2,19,-1
 -59.5 153.5 l 2,20,21
 -75.5 153.5 -75.5 153.5 -75.5 168.5 c 2,22,-1
 -75.5 224.5 l 2,23,24
 -75.5 231.5 -75.5 231.5 -72 234.5 c 128,-1,25
 -68.5 237.5 -68.5 237.5 -62.5 237.5 c 2,26,-1
 294.5 237.5 l 2,27,28
 343.5 237.5 343.5 237.5 371 262.5 c 128,-1,29
 398.5 287.5 398.5 287.5 398.5 341.5 c 0,30,31
 398.5 370.5 398.5 370.5 389 396 c 128,-1,32
 379.5 421.5 379.5 421.5 362 447.5 c 128,-1,33
 344.5 473.5 344.5 473.5 317.5 504.5 c 1,34,-1
 -60.5 504.5 l 2,35,36
 -75.5 504.5 -75.5 504.5 -75.5 520.5 c 2,37,-1
 -75.5 575.5 l 1,38,-1
 -75.5 575.5 l 1,0,1
EndSplineSet
EndChar

StartChar: i
Encoding: 105 105 38
Width: 239
GlyphClass: 1
Flags: W
LayerCount: 2
Fore
SplineSet
-234.5 329.5 m 2,0,1
 -244.5 329.5 -244.5 329.5 -248 333 c 128,-1,2
 -251.5 336.5 -251.5 336.5 -251.5 347.5 c 2,3,-1
 -251.5 398.5 l 2,4,5
 -251.5 407.5 -251.5 407.5 -248.5 410.5 c 128,-1,6
 -245.5 413.5 -245.5 413.5 -237.5 413.5 c 2,7,-1
 264.5 413.5 l 2,8,9
 278.5 413.5 278.5 413.5 278.5 401.5 c 2,10,-1
 278.5 340.5 l 2,11,12
 278.5 329.5 278.5 329.5 265.5 329.5 c 2,13,-1
 -234.5 329.5 l 2,0,1
392.5 325.5 m 2,14,15
 373.5 325.5 373.5 325.5 373.5 343.5 c 2,16,-1
 373.5 401.5 l 2,17,18
 373.5 410.5 373.5 410.5 378 413.5 c 128,-1,19
 382.5 416.5 382.5 416.5 390.5 416.5 c 2,20,-1
 474.5 416.5 l 2,21,22
 490.5 416.5 490.5 416.5 490.5 402.5 c 2,23,-1
 490.5 339.5 l 2,24,25
 490.5 325.5 490.5 325.5 475.5 325.5 c 2,26,-1
 392.5 325.5 l 2,14,15
EndSplineSet
Substitution2: "'locl' Localized Forms in Latin lookup 15 subtable" i.loclTRK
Substitution2: "'locl' Localized Forms in Latin lookup 14 subtable" i.loclTRK
Substitution2: "'locl' Localized Forms in Latin lookup 13 subtable" i.loclTRK
Substitution2: "'locl' Localized Forms in Latin lookup 12 subtable" i.loclTRK
Substitution2: "'locl' Localized Forms in Latin lookup 11 subtable" i.loclTRK
Substitution2: "Single Substitution lookup 4 subtable" dotlessi
Substitution2: "Single Substitution lookup 3 subtable" dotlessi
AlternateSubs2: "'aalt' Access All Alternates in Latin lookup 1 subtable" dotlessi i.loclTRK
EndChar

StartChar: j
Encoding: 106 106 39
Width: 239
GlyphClass: 1
Flags: W
LayerCount: 2
Fore
SplineSet
-254.5 184.5 m 1,0,1
 -325.5 184.5 -325.5 184.5 -360.5 215 c 128,-1,2
 -395.5 245.5 -395.5 245.5 -395.5 324.5 c 0,3,4
 -395.5 368.5 -395.5 368.5 -393 379.5 c 128,-1,5
 -390.5 390.5 -390.5 390.5 -382.5 390.5 c 2,6,-1
 -338.5 390.5 l 2,7,8
 -334.5 390.5 -334.5 390.5 -331 388 c 128,-1,9
 -327.5 385.5 -327.5 385.5 -327.5 380.5 c 2,10,-1
 -324.5 329.5 l 2,11,12
 -323.5 297.5 -323.5 297.5 -307 283 c 128,-1,13
 -290.5 268.5 -290.5 268.5 -248.5 268.5 c 2,14,-1
 290.5 268.5 l 2,15,16
 304.5 268.5 304.5 268.5 304.5 256.5 c 2,17,-1
 304.5 195.5 l 2,18,19
 304.5 184.5 304.5 184.5 291.5 184.5 c 2,20,-1
 -254.5 184.5 l 1,21,-1
 -254.5 184.5 l 1,0,1
418.5 181.5 m 2,22,23
 399.5 181.5 399.5 181.5 399.5 198.5 c 2,24,-1
 399.5 257.5 l 2,25,26
 399.5 272.5 399.5 272.5 416.5 272.5 c 2,27,-1
 500.5 272.5 l 2,28,29
 516.5 272.5 516.5 272.5 516.5 258.5 c 2,30,-1
 516.5 194.5 l 2,31,32
 516.5 181.5 516.5 181.5 501.5 181.5 c 2,33,-1
 418.5 181.5 l 2,22,23
EndSplineSet
Substitution2: "Single Substitution lookup 4 subtable" uni0237
Substitution2: "Single Substitution lookup 3 subtable" uni0237
Substitution2: "'aalt' Access All Alternates in Latin lookup 0 subtable" uni0237
EndChar

StartChar: k
Encoding: 107 107 40
Width: 564
GlyphClass: 2
Flags: W
AnchorPoint: "Anchor-2" -63.167 397.833 basechar 0
LayerCount: 2
Fore
SplineSet
-47.1669921875 143.833007812 m 1,0,1
 -53.1669921875 139.833007812 -53.1669921875 139.833007812 -58.1669921875 141.833007812 c 128,-1,2
 -63.1669921875 143.833007812 -63.1669921875 143.833007812 -63.1669921875 152.833007812 c 2,3,-1
 -63.1669921875 222.833007812 l 2,4,5
 -63.1669921875 228.833007812 -63.1669921875 228.833007812 -60.1669921875 233.333007812 c 128,-1,6
 -57.1669921875 237.833007812 -57.1669921875 237.833007812 -51.1669921875 240.833007812 c 2,7,-1
 207.833007812 391.833007812 l 2,8,9
 211.833007812 393.833007812 211.833007812 393.833007812 213.333007812 396.333007812 c 128,-1,10
 214.833007812 398.833007812 214.833007812 398.833007812 209.833007812 403.833007812 c 2,11,-1
 102.833007812 509.833007812 l 2,12,13
 98.8330078125 513.833007812 98.8330078125 513.833007812 94.3330078125 515.333007812 c 128,-1,14
 89.8330078125 516.833007812 89.8330078125 516.833007812 82.8330078125 516.833007812 c 2,15,-1
 -46.1669921875 516.833007812 l 2,16,17
 -56.1669921875 516.833007812 -56.1669921875 516.833007812 -59.6669921875 520.333007812 c 128,-1,18
 -63.1669921875 523.833007812 -63.1669921875 523.833007812 -63.1669921875 534.833007812 c 2,19,-1
 -63.1669921875 585.833007812 l 2,20,21
 -63.1669921875 595.833007812 -63.1669921875 595.833007812 -60.1669921875 598.333007812 c 128,-1,22
 -57.1669921875 600.833007812 -57.1669921875 600.833007812 -49.1669921875 600.833007812 c 2,23,-1
 664.833007812 600.833007812 l 2,24,25
 678.833007812 600.833007812 678.833007812 600.833007812 678.833007812 589.833007812 c 2,26,-1
 678.833007812 528.833007812 l 2,27,28
 678.833007812 516.833007812 678.833007812 516.833007812 665.833007812 516.833007812 c 2,29,-1
 201.833007812 516.833007812 l 2,30,31
 193.833007812 516.833007812 193.833007812 516.833007812 192.333007812 514.833007812 c 128,-1,32
 190.833007812 512.833007812 190.833007812 512.833007812 197.833007812 506.833007812 c 2,33,-1
 454.833007812 259.833007812 l 2,34,35
 466.833007812 248.833007812 466.833007812 248.833007812 466.833007812 238.833007812 c 2,36,-1
 466.833007812 177.833007812 l 2,37,38
 466.833007812 167.833007812 466.833007812 167.833007812 461.333007812 166.333007812 c 128,-1,39
 455.833007812 164.833007812 455.833007812 164.833007812 447.833007812 172.833007812 c 2,40,-1
 286.833007812 330.833007812 l 2,41,42
 283.833007812 333.833007812 283.833007812 333.833007812 279.833007812 334.333007812 c 128,-1,43
 275.833007812 334.833007812 275.833007812 334.833007812 269.833007812 331.833007812 c 2,44,-1
 -47.1669921875 143.833007812 l 1,45,-1
 -47.1669921875 143.833007812 l 1,0,1
EndSplineSet
EndChar

StartChar: l
Encoding: 108 108 41
Width: 239
GlyphClass: 2
Flags: W
AnchorPoint: "Anchor-2" -251.5 369.5 basechar 0
AnchorPoint: "Anchor-1" 432.5 213.5 basechar 0
AnchorPoint: "Anchor-0" 490.5 369.5 basechar 0
LayerCount: 2
Fore
SplineSet
-234.5 328.5 m 2,0,1
 -244.5 328.5 -244.5 328.5 -248 332.5 c 128,-1,2
 -251.5 336.5 -251.5 336.5 -251.5 346.5 c 2,3,-1
 -251.5 398.5 l 2,4,5
 -251.5 413.5 -251.5 413.5 -237.5 413.5 c 2,6,-1
 476.5 412.5 l 2,7,8
 490.5 412.5 490.5 412.5 490.5 400.5 c 2,9,-1
 490.5 340.5 l 2,10,11
 490.5 328.5 490.5 328.5 477.5 328.5 c 2,12,-1
 -234.5 328.5 l 2,0,1
EndSplineSet
EndChar

StartChar: m
Encoding: 109 109 42
Width: 906
GlyphClass: 1
Flags: W
LayerCount: 2
Fore
SplineSet
186 635 m 1,0,1
 186 649 186 649 199 649 c 2,2,-1
 703 649 l 2,3,4
 716 649 716 649 716 638 c 2,5,-1
 716 578 l 2,6,7
 716 568 716 568 705 568 c 2,8,-1
 647 568 l 2,9,10
 642 568 642 568 641 565.5 c 128,-1,11
 640 563 640 563 644 558 c 0,12,13
 670 526 670 526 688.5 498.5 c 128,-1,14
 707 471 707 471 716.5 442.5 c 128,-1,15
 726 414 726 414 726 381 c 0,16,17
 726 322 726 322 699 286.5 c 128,-1,18
 672 251 672 251 638 239 c 0,19,20
 634 237 634 237 635 233 c 128,-1,21
 636 229 636 229 640 225 c 0,22,23
 667 193 667 193 686 164.5 c 128,-1,24
 705 136 705 136 715.5 106.5 c 128,-1,25
 726 77 726 77 726 44 c 0,26,27
 726 -29 726 -29 684.5 -69 c 128,-1,28
 643 -109 643 -109 573 -109 c 2,29,-1
 202 -109 l 2,30,31
 186 -109 186 -109 186 -94 c 2,32,-1
 186 -38 l 2,33,34
 186 -31 186 -31 189.5 -28 c 128,-1,35
 193 -25 193 -25 199 -25 c 2,36,-1
 556 -25 l 2,37,38
 605 -25 605 -25 632.5 -1.5 c 128,-1,39
 660 22 660 22 660 72 c 0,40,41
 660 101 660 101 649 127.5 c 128,-1,42
 638 154 638 154 622 175.5 c 128,-1,43
 606 197 606 197 592 214 c 0,44,45
 585 222 585 222 578.5 225 c 128,-1,46
 572 228 572 228 562 228 c 2,47,-1
 202 228 l 2,48,49
 186 228 186 228 186 243 c 2,50,-1
 186 299 l 2,51,52
 186 305 186 305 189.5 308.5 c 128,-1,53
 193 312 193 312 199 312 c 2,54,-1
 556 312 l 2,55,56
 605 312 605 312 632.5 335 c 128,-1,57
 660 358 660 358 660 408 c 0,58,59
 660 450 660 450 640 485 c 128,-1,60
 620 520 620 520 579 565 c 1,61,-1
 201 565 l 2,62,63
 186 565 186 565 186 580 c 2,64,-1
 186 635 l 1,65,-1
 186 635 l 1,0,1
EndSplineSet
EndChar

StartChar: n
Encoding: 110 110 43
Width: 584
GlyphClass: 2
Flags: W
AnchorPoint: "Anchor-2" 25 269 basechar 0
AnchorPoint: "Anchor-0" 555 262 basechar 0
LayerCount: 2
Fore
SplineSet
25 474 m 1,0,1
 25 488 25 488 38 488 c 2,2,-1
 542 488 l 2,3,4
 555 488 555 488 555 477 c 2,5,-1
 555 417 l 2,6,7
 555 406 555 406 544 406 c 2,8,-1
 486 406 l 2,9,10
 481 406 481 406 480 404 c 128,-1,11
 479 402 479 402 483 397 c 0,12,13
 509 364 509 364 527.5 335.5 c 128,-1,14
 546 307 546 307 555.5 277 c 128,-1,15
 565 247 565 247 565 213 c 0,16,17
 565 135 565 135 523 93.5 c 128,-1,18
 481 52 481 52 414 52 c 2,19,-1
 41 52 l 2,20,21
 25 52 25 52 25 67 c 2,22,-1
 25 123 l 2,23,24
 25 130 25 130 28.5 133 c 128,-1,25
 32 136 32 136 38 136 c 2,26,-1
 395 136 l 2,27,28
 444 136 444 136 471.5 161 c 128,-1,29
 499 186 499 186 499 240 c 0,30,31
 499 269 499 269 489.5 294.5 c 128,-1,32
 480 320 480 320 462.5 346 c 128,-1,33
 445 372 445 372 418 404 c 1,34,-1
 40 404 l 2,35,36
 25 404 25 404 25 419 c 2,37,-1
 25 474 l 1,38,-1
 25 474 l 1,0,1
EndSplineSet
EndChar

StartChar: o
Encoding: 111 111 44
Width: 599
GlyphClass: 2
Flags: W
AnchorPoint: "Anchor-3" 44 197 basechar 0
AnchorPoint: "Anchor-2" 34 266 basechar 0
AnchorPoint: "Anchor-1" 564 127 basechar 0
AnchorPoint: "Anchor-0" 564 263 basechar 0
LayerCount: 2
Fore
SplineSet
24 265 m 1,0,1
 24 340 24 340 58.5 397.5 c 128,-1,2
 93 455 93 455 154.5 486.5 c 128,-1,3
 216 518 216 518 296 518 c 0,4,5
 379 518 379 518 441.5 485.5 c 128,-1,6
 504 453 504 453 539 396 c 128,-1,7
 574 339 574 339 574 264 c 0,8,9
 574 188 574 188 538.5 131.5 c 128,-1,10
 503 75 503 75 440.5 43.5 c 128,-1,11
 378 12 378 12 297 12 c 0,12,13
 217 12 217 12 155.5 44 c 128,-1,14
 94 76 94 76 59 132.5 c 128,-1,15
 24 189 24 189 24 265 c 1,16,-1
 24 265 l 1,0,1
87 263 m 1,17,18
 87 211 87 211 112.5 174 c 128,-1,19
 138 137 138 137 185.5 117.5 c 128,-1,20
 233 98 233 98 299 98 c 256,21,22
 365 98 365 98 412.5 118 c 128,-1,23
 460 138 460 138 486 175 c 128,-1,24
 512 212 512 212 512 264 c 0,25,26
 512 315 512 315 486 353 c 128,-1,27
 460 391 460 391 412.5 411.5 c 128,-1,28
 365 432 365 432 299 432 c 0,29,30
 234 432 234 432 186 411.5 c 128,-1,31
 138 391 138 391 112.5 353 c 128,-1,32
 87 315 87 315 87 263 c 1,33,-1
 87 263 l 1,17,18
EndSplineSet
Substitution2: "Single Substitution lookup 27 subtable" ordmasculine
Substitution2: "'aalt' Access All Alternates in Latin lookup 0 subtable" ordmasculine
EndChar

StartChar: p
Encoding: 112 112 45
Width: 597
GlyphClass: 1
Flags: W
LayerCount: 2
Fore
SplineSet
655.5 354.5 m 1,0,1
 655.5 340.5 655.5 340.5 640.5 340.5 c 2,2,-1
 598.5 340.5 l 2,3,4
 590.5 340.5 590.5 340.5 590 337 c 128,-1,5
 589.5 333.5 589.5 333.5 594.5 327.5 c 0,6,7
 606.5 316.5 606.5 316.5 623 297.5 c 128,-1,8
 639.5 278.5 639.5 278.5 652.5 248 c 128,-1,9
 665.5 217.5 665.5 217.5 665.5 170.5 c 0,10,11
 665.5 109.5 665.5 109.5 636 60 c 128,-1,12
 606.5 10.5 606.5 10.5 547.5 -19 c 128,-1,13
 488.5 -48.5 488.5 -48.5 398.5 -48.5 c 256,14,15
 308.5 -48.5 308.5 -48.5 245.5 -19.5 c 128,-1,16
 182.5 9.5 182.5 9.5 149 61 c 128,-1,17
 115.5 112.5 115.5 112.5 115.5 181.5 c 0,18,19
 115.5 227.5 115.5 227.5 130 263 c 128,-1,20
 144.5 298.5 144.5 298.5 165.5 323.5 c 0,21,22
 173.5 332.5 173.5 332.5 172 336 c 128,-1,23
 170.5 339.5 170.5 339.5 159.5 339.5 c 2,24,-1
 -26.5 339.5 l 2,25,26
 -39.5 339.5 -39.5 339.5 -39.5 350.5 c 2,27,-1
 -39.5 412.5 l 2,28,29
 -39.5 423.5 -39.5 423.5 -26.5 423.5 c 2,30,-1
 639.5 423.5 l 2,31,32
 648.5 423.5 648.5 423.5 652 420 c 128,-1,33
 655.5 416.5 655.5 416.5 655.5 407.5 c 2,34,-1
 655.5 354.5 l 1,35,-1
 655.5 354.5 l 1,0,1
242.5 339.5 m 1,36,37
 212.5 308.5 212.5 308.5 194.5 276 c 128,-1,38
 176.5 243.5 176.5 243.5 176.5 203.5 c 0,39,40
 176.5 155.5 176.5 155.5 201.5 118 c 128,-1,41
 226.5 80.5 226.5 80.5 275.5 59 c 128,-1,42
 324.5 37.5 324.5 37.5 397.5 37.5 c 256,43,44
 470.5 37.5 470.5 37.5 516.5 59.5 c 128,-1,45
 562.5 81.5 562.5 81.5 583.5 118 c 128,-1,46
 604.5 154.5 604.5 154.5 604.5 198.5 c 0,47,48
 604.5 239.5 604.5 239.5 586.5 271.5 c 128,-1,49
 568.5 303.5 568.5 303.5 542 321.5 c 128,-1,50
 515.5 339.5 515.5 339.5 489.5 339.5 c 2,51,-1
 242.5 339.5 l 1,52,-1
 242.5 339.5 l 1,36,37
EndSplineSet
EndChar

StartChar: q
Encoding: 113 113 46
Width: 599
GlyphClass: 1
Flags: W
LayerCount: 2
Fore
SplineSet
627.5 -34.5 m 2,0,1
 627.5 -42.5 627.5 -42.5 624 -46 c 128,-1,2
 620.5 -49.5 620.5 -49.5 610.5 -49.5 c 2,3,-1
 -54.5 -49.5 l 2,4,5
 -67.5 -49.5 -67.5 -49.5 -67.5 -37.5 c 2,6,-1
 -67.5 23.5 l 2,7,8
 -67.5 34.5 -67.5 34.5 -54.5 34.5 c 2,9,-1
 129.5 34.5 l 2,10,11
 141.5 34.5 141.5 34.5 143.5 37.5 c 128,-1,12
 145.5 40.5 145.5 40.5 137.5 49.5 c 0,13,14
 117.5 75.5 117.5 75.5 102.5 113.5 c 128,-1,15
 87.5 151.5 87.5 151.5 87.5 197.5 c 0,16,17
 87.5 267.5 87.5 267.5 121.5 318.5 c 128,-1,18
 155.5 369.5 155.5 369.5 217.5 397 c 128,-1,19
 279.5 424.5 279.5 424.5 364.5 424.5 c 0,20,21
 446.5 424.5 446.5 424.5 508 397.5 c 128,-1,22
 569.5 370.5 569.5 370.5 603.5 319 c 128,-1,23
 637.5 267.5 637.5 267.5 637.5 195.5 c 0,24,25
 637.5 144.5 637.5 144.5 624.5 112.5 c 128,-1,26
 611.5 80.5 611.5 80.5 595 61 c 128,-1,27
 578.5 41.5 578.5 41.5 566.5 30.5 c 0,28,29
 556.5 21.5 556.5 21.5 569.5 19.5 c 2,30,-1
 611.5 12.5 l 2,31,32
 620.5 10.5 620.5 10.5 624 7 c 128,-1,33
 627.5 3.5 627.5 3.5 627.5 -5.5 c 2,34,-1
 627.5 -34.5 l 2,0,1
448.5 34.5 m 2,35,36
 482.5 34.5 482.5 34.5 512 53 c 128,-1,37
 541.5 71.5 541.5 71.5 560 103 c 128,-1,38
 578.5 134.5 578.5 134.5 578.5 175.5 c 0,39,40
 578.5 220.5 578.5 220.5 555.5 257.5 c 128,-1,41
 532.5 294.5 532.5 294.5 485 316.5 c 128,-1,42
 437.5 338.5 437.5 338.5 365.5 338.5 c 0,43,44
 295.5 338.5 295.5 338.5 247 317.5 c 128,-1,45
 198.5 296.5 198.5 296.5 173.5 259.5 c 128,-1,46
 148.5 222.5 148.5 222.5 148.5 174.5 c 0,47,48
 148.5 134.5 148.5 134.5 165.5 98 c 128,-1,49
 182.5 61.5 182.5 61.5 212.5 34.5 c 1,50,-1
 448.5 34.5 l 2,35,36
EndSplineSet
EndChar

StartChar: r
Encoding: 114 114 47
Width: 383
GlyphClass: 2
Flags: W
AnchorPoint: "Anchor-2" -52.5 364.5 basechar 0
AnchorPoint: "Anchor-0" 477.5 276.5 basechar 0
LayerCount: 2
Fore
SplineSet
-52.5 396.5 m 1,0,1
 -52.5 403.5 -52.5 403.5 -49 407 c 128,-1,2
 -45.5 410.5 -45.5 410.5 -39.5 410.5 c 2,3,-1
 464.5 410.5 l 2,4,5
 477.5 410.5 477.5 410.5 477.5 399.5 c 2,6,-1
 477.5 341.5 l 2,7,8
 477.5 330.5 477.5 330.5 466.5 330.5 c 2,9,-1
 401.5 330.5 l 2,10,11
 395.5 330.5 395.5 330.5 394.5 327.5 c 128,-1,12
 393.5 324.5 393.5 324.5 398.5 319.5 c 0,13,14
 429.5 293.5 429.5 293.5 449 268 c 128,-1,15
 468.5 242.5 468.5 242.5 478 216.5 c 128,-1,16
 487.5 190.5 487.5 190.5 487.5 164.5 c 0,17,18
 487.5 129.5 487.5 129.5 474.5 129.5 c 2,19,-1
 414.5 129.5 l 2,20,21
 404.5 129.5 404.5 129.5 406.5 138.5 c 0,22,23
 407.5 147.5 407.5 147.5 408.5 159 c 128,-1,24
 409.5 170.5 409.5 170.5 409.5 183.5 c 0,25,26
 409.5 205.5 409.5 205.5 400 230.5 c 128,-1,27
 390.5 255.5 390.5 255.5 373.5 277 c 128,-1,28
 356.5 298.5 356.5 298.5 335.5 312.5 c 128,-1,29
 314.5 326.5 314.5 326.5 293.5 326.5 c 2,30,-1
 -37.5 326.5 l 2,31,32
 -52.5 326.5 -52.5 326.5 -52.5 341.5 c 2,33,-1
 -52.5 396.5 l 1,34,-1
 -52.5 396.5 l 1,0,1
EndSplineSet
EndChar

StartChar: s
Encoding: 115 115 48
Width: 512
GlyphClass: 2
Flags: W
AnchorPoint: "Anchor-2" -19.5 261.5 basechar 0
AnchorPoint: "Anchor-0" 510.5 266.5 basechar 0
LayerCount: 2
Fore
SplineSet
393.5 115.5 m 1,0,1
 423.5 135.5 423.5 135.5 442.5 171.5 c 128,-1,2
 461.5 207.5 461.5 207.5 461.5 257.5 c 0,3,4
 461.5 311.5 461.5 311.5 438.5 347 c 128,-1,5
 415.5 382.5 415.5 382.5 376.5 382.5 c 0,6,7
 355.5 382.5 355.5 382.5 337 366.5 c 128,-1,8
 318.5 350.5 318.5 350.5 302.5 301.5 c 2,9,-1
 264.5 174.5 l 2,10,11
 245.5 105.5 245.5 105.5 209.5 75 c 128,-1,12
 173.5 44.5 173.5 44.5 126.5 44.5 c 256,13,14
 79.5 44.5 79.5 44.5 44.5 72.5 c 128,-1,15
 9.5 100.5 9.5 100.5 -10 149.5 c 128,-1,16
 -29.5 198.5 -29.5 198.5 -29.5 260.5 c 0,17,18
 -29.5 339.5 -29.5 339.5 2 398.5 c 128,-1,19
 33.5 457.5 33.5 457.5 80.5 482.5 c 0,20,21
 85.5 485.5 85.5 485.5 89.5 485.5 c 128,-1,22
 93.5 485.5 93.5 485.5 96.5 480.5 c 2,23,-1
 118.5 441.5 l 2,24,25
 121.5 436.5 121.5 436.5 121 432.5 c 128,-1,26
 120.5 428.5 120.5 428.5 117.5 426.5 c 0,27,28
 91.5 409.5 91.5 409.5 72.5 387 c 128,-1,29
 53.5 364.5 53.5 364.5 42.5 333 c 128,-1,30
 31.5 301.5 31.5 301.5 31.5 259.5 c 0,31,32
 32.5 221.5 32.5 221.5 42.5 190.5 c 128,-1,33
 52.5 159.5 52.5 159.5 72 141.5 c 128,-1,34
 91.5 123.5 91.5 123.5 117.5 123.5 c 0,35,36
 144.5 123.5 144.5 123.5 164 145.5 c 128,-1,37
 183.5 167.5 183.5 167.5 198.5 221.5 c 2,38,-1
 227.5 324.5 l 2,39,40
 247.5 399.5 247.5 399.5 281.5 430 c 128,-1,41
 315.5 460.5 315.5 460.5 361.5 461.5 c 0,42,43
 409.5 461.5 409.5 461.5 445 435.5 c 128,-1,44
 480.5 409.5 480.5 409.5 500.5 363 c 128,-1,45
 520.5 316.5 520.5 316.5 520.5 256.5 c 0,46,47
 520.5 189.5 520.5 189.5 495 137 c 128,-1,48
 469.5 84.5 469.5 84.5 427.5 57.5 c 0,49,50
 423.5 54.5 423.5 54.5 420 54.5 c 128,-1,51
 416.5 54.5 416.5 54.5 413.5 58.5 c 2,52,-1
 390.5 100.5 l 2,53,54
 388.5 104.5 388.5 104.5 389 108 c 128,-1,55
 389.5 111.5 389.5 111.5 393.5 115.5 c 1,56,-1
 393.5 115.5 l 1,0,1
EndSplineSet
EndChar

StartChar: t
Encoding: 116 116 49
Width: 387
GlyphClass: 2
Flags: W
AnchorPoint: "Anchor-2" -165.5 303.5 basechar 0
AnchorPoint: "Anchor-1" 606.5 179.5 basechar 0
LayerCount: 2
Fore
SplineSet
301.5 327.5 m 2,0,1
 301.5 335.5 301.5 335.5 293.5 335.5 c 2,2,-1
 -23.5 335.5 l 2,3,4
 -70.5 335.5 -70.5 335.5 -86.5 319.5 c 128,-1,5
 -102.5 303.5 -102.5 303.5 -102.5 271.5 c 2,6,-1
 -102.5 202.5 l 2,7,8
 -102.5 197.5 -102.5 197.5 -105 194.5 c 128,-1,9
 -107.5 191.5 -107.5 191.5 -113.5 191.5 c 2,10,-1
 -147.5 192.5 l 2,11,12
 -157.5 192.5 -157.5 192.5 -160.5 204.5 c 0,13,14
 -162.5 214.5 -162.5 214.5 -163.5 233 c 128,-1,15
 -164.5 251.5 -164.5 251.5 -165 269 c 128,-1,16
 -165.5 286.5 -165.5 286.5 -165.5 298.5 c 0,17,18
 -165.5 361.5 -165.5 361.5 -136 390.5 c 128,-1,19
 -106.5 419.5 -106.5 419.5 -42.5 419.5 c 2,20,-1
 291.5 419.5 l 2,21,22
 301.5 419.5 301.5 419.5 301.5 429.5 c 2,23,-1
 301.5 509.5 l 2,24,25
 301.5 520.5 301.5 520.5 312.5 520.5 c 2,26,-1
 354.5 520.5 l 2,27,28
 364.5 520.5 364.5 520.5 364.5 510.5 c 2,29,-1
 364.5 425.5 l 2,30,31
 364.5 418.5 364.5 418.5 372.5 418.5 c 2,32,-1
 531.5 407.5 l 2,33,34
 544.5 406.5 544.5 406.5 544.5 396.5 c 2,35,-1
 544.5 346.5 l 2,36,37
 544.5 334.5 544.5 334.5 530.5 334.5 c 2,38,-1
 372.5 334.5 l 2,39,40
 364.5 334.5 364.5 334.5 364.5 326.5 c 2,41,-1
 364.5 200.5 l 2,42,43
 364.5 189.5 364.5 189.5 355.5 189.5 c 2,44,-1
 312.5 189.5 l 2,45,46
 301.5 189.5 301.5 189.5 301.5 200.5 c 2,47,-1
 301.5 327.5 l 2,0,1
EndSplineSet
EndChar

StartChar: u
Encoding: 117 117 50
Width: 579
GlyphClass: 2
Flags: W
AnchorPoint: "Anchor-3" 37.5 58.5 basechar 0
AnchorPoint: "Anchor-2" 26.5 269.5 basechar 0
AnchorPoint: "Anchor-1" 556.5 11.5 basechar 0
AnchorPoint: "Anchor-0" 556.5 269.5 basechar 0
LayerCount: 2
Fore
SplineSet
82.5 289.5 m 1,0,1
 82.5 246.5 82.5 246.5 106 207 c 128,-1,2
 129.5 167.5 129.5 167.5 169.5 128.5 c 1,3,-1
 541.5 128.5 l 2,4,5
 556.5 128.5 556.5 128.5 556.5 112.5 c 2,6,-1
 556.5 57.5 l 2,7,8
 556.5 43.5 556.5 43.5 542.5 43.5 c 2,9,-1
 39.5 45.5 l 2,10,11
 26.5 45.5 26.5 45.5 26.5 56.5 c 2,12,-1
 26.5 114.5 l 2,13,14
 26.5 125.5 26.5 125.5 37.5 125.5 c 2,15,-1
 96.5 125.5 l 2,16,17
 101.5 125.5 101.5 125.5 102.5 127.5 c 128,-1,18
 103.5 129.5 103.5 129.5 99.5 134.5 c 0,19,20
 52.5 189.5 52.5 189.5 34.5 232 c 128,-1,21
 16.5 274.5 16.5 274.5 16.5 316.5 c 0,22,23
 16.5 362.5 16.5 362.5 35.5 398.5 c 128,-1,24
 54.5 434.5 54.5 434.5 89 455.5 c 128,-1,25
 123.5 476.5 123.5 476.5 169.5 476.5 c 2,26,-1
 540.5 476.5 l 2,27,28
 556.5 476.5 556.5 476.5 556.5 461.5 c 2,29,-1
 556.5 405.5 l 2,30,31
 556.5 392.5 556.5 392.5 542.5 392.5 c 2,32,-1
 191.5 392.5 l 2,33,34
 142.5 392.5 142.5 392.5 112.5 365 c 128,-1,35
 82.5 337.5 82.5 337.5 82.5 289.5 c 1,36,-1
 82.5 289.5 l 1,0,1
EndSplineSet
EndChar

StartChar: v
Encoding: 118 118 51
Width: 547
GlyphClass: 1
Flags: W
LayerCount: 2
Fore
SplineSet
538.849609375 30.849609375 m 1,0,1
 538.849609375 23.849609375 538.849609375 23.849609375 534.349609375 20.849609375 c 128,-1,2
 529.849609375 17.849609375 529.849609375 17.849609375 523.849609375 20.849609375 c 2,3,-1
 23.849609375 223.849609375 l 2,4,5
 8.849609375 228.849609375 8.849609375 228.849609375 8.849609375 246.849609375 c 2,6,-1
 8.849609375 282.849609375 l 2,7,8
 8.849609375 301.849609375 8.849609375 301.849609375 22.849609375 307.849609375 c 2,9,-1
 523.849609375 509.849609375 l 2,10,11
 529.849609375 511.849609375 529.849609375 511.849609375 534.349609375 508.849609375 c 128,-1,12
 538.849609375 505.849609375 538.849609375 505.849609375 538.849609375 498.849609375 c 2,13,-1
 538.849609375 436.849609375 l 2,14,15
 538.849609375 430.849609375 538.849609375 430.849609375 536.349609375 426.849609375 c 128,-1,16
 533.849609375 422.849609375 533.849609375 422.849609375 527.849609375 420.849609375 c 2,17,-1
 134.849609375 263.849609375 l 2,18,19
 115.849609375 256.849609375 115.849609375 256.849609375 135.849609375 247.849609375 c 2,20,-1
 527.849609375 91.849609375 l 2,21,22
 533.849609375 89.849609375 533.849609375 89.849609375 536.349609375 86.349609375 c 128,-1,23
 538.849609375 82.849609375 538.849609375 82.849609375 538.849609375 76.849609375 c 2,24,-1
 538.849609375 30.849609375 l 1,25,-1
 538.849609375 30.849609375 l 1,0,1
EndSplineSet
EndChar

StartChar: w
Encoding: 119 119 52
Width: 796
GlyphClass: 2
Flags: W
AnchorPoint: "Anchor-0" 663.275 262.275 basechar 0
LayerCount: 2
Fore
SplineSet
663.275390625 -91.724609375 m 1,0,1
 663.275390625 -97.724609375 663.275390625 -97.724609375 658.775390625 -100.724609375 c 128,-1,2
 654.275390625 -103.724609375 654.275390625 -103.724609375 648.275390625 -101.724609375 c 2,3,-1
 146.275390625 51.275390625 l 2,4,5
 139.275390625 53.275390625 139.275390625 53.275390625 136.275390625 57.775390625 c 128,-1,6
 133.275390625 62.275390625 133.275390625 62.275390625 133.275390625 70.275390625 c 2,7,-1
 133.275390625 118.275390625 l 2,8,9
 133.275390625 135.275390625 133.275390625 135.275390625 146.275390625 139.275390625 c 2,10,-1
 520.275390625 258.275390625 l 2,11,12
 529.275390625 262.275390625 529.275390625 262.275390625 529.275390625 265.275390625 c 128,-1,13
 529.275390625 268.275390625 529.275390625 268.275390625 520.275390625 270.275390625 c 2,14,-1
 146.275390625 383.275390625 l 2,15,16
 139.275390625 385.275390625 139.275390625 385.275390625 136.275390625 389.775390625 c 128,-1,17
 133.275390625 394.275390625 133.275390625 394.275390625 133.275390625 402.275390625 c 2,18,-1
 133.275390625 453.275390625 l 2,19,20
 133.275390625 469.275390625 133.275390625 469.275390625 146.275390625 474.275390625 c 2,21,-1
 648.275390625 632.275390625 l 2,22,23
 654.275390625 633.275390625 654.275390625 633.275390625 658.775390625 630.275390625 c 128,-1,24
 663.275390625 627.275390625 663.275390625 627.275390625 663.275390625 620.275390625 c 2,25,-1
 663.275390625 561.275390625 l 2,26,27
 663.275390625 555.275390625 663.275390625 555.275390625 660.775390625 551.275390625 c 128,-1,28
 658.275390625 547.275390625 658.275390625 547.275390625 652.275390625 545.275390625 c 2,29,-1
 263.275390625 426.275390625 l 2,30,31
 253.275390625 423.275390625 253.275390625 423.275390625 253.775390625 419.275390625 c 128,-1,32
 254.275390625 415.275390625 254.275390625 415.275390625 264.275390625 411.275390625 c 2,33,-1
 653.275390625 293.275390625 l 2,34,35
 658.275390625 291.275390625 658.275390625 291.275390625 660.775390625 287.775390625 c 128,-1,36
 663.275390625 284.275390625 663.275390625 284.275390625 663.275390625 279.275390625 c 2,37,-1
 663.275390625 232.275390625 l 2,38,39
 663.275390625 226.275390625 663.275390625 226.275390625 660.775390625 222.275390625 c 128,-1,40
 658.275390625 218.275390625 658.275390625 218.275390625 652.275390625 217.275390625 c 2,41,-1
 263.275390625 94.275390625 l 2,42,43
 253.275390625 91.275390625 253.275390625 91.275390625 253.775390625 87.275390625 c 128,-1,44
 254.275390625 83.275390625 254.275390625 83.275390625 264.275390625 80.275390625 c 2,45,-1
 652.275390625 -34.724609375 l 2,46,47
 658.275390625 -37.724609375 658.275390625 -37.724609375 660.775390625 -41.724609375 c 128,-1,48
 663.275390625 -45.724609375 663.275390625 -45.724609375 663.275390625 -51.724609375 c 2,49,-1
 663.275390625 -91.724609375 l 1,50,-1
 663.275390625 -91.724609375 l 1,0,1
EndSplineSet
EndChar

StartChar: x
Encoding: 120 120 53
Width: 544
GlyphClass: 1
Flags: W
LayerCount: 2
Fore
SplineSet
28.0224609375 27.0224609375 m 1,0,1
 16.0224609375 19.0224609375 16.0224609375 19.0224609375 11.5224609375 20.0224609375 c 128,-1,2
 7.0224609375 21.0224609375 7.0224609375 21.0224609375 7.0224609375 31.0224609375 c 2,3,-1
 7.0224609375 101.022460938 l 2,4,5
 7.0224609375 116.022460938 7.0224609375 116.022460938 16.0224609375 122.022460938 c 2,6,-1
 210.022460938 263.022460938 l 2,7,8
 217.022460938 268.022460938 217.022460938 268.022460938 217.522460938 271.522460938 c 128,-1,9
 218.022460938 275.022460938 218.022460938 275.022460938 210.022460938 280.022460938 c 2,10,-1
 16.0224609375 427.022460938 l 2,11,12
 7.0224609375 433.022460938 7.0224609375 433.022460938 7.0224609375 448.022460938 c 2,13,-1
 7.0224609375 495.022460938 l 2,14,15
 7.0224609375 505.022460938 7.0224609375 505.022460938 12.5224609375 509.022460938 c 128,-1,16
 18.0224609375 513.022460938 18.0224609375 513.022460938 31.0224609375 502.022460938 c 2,17,-1
 263.022460938 320.022460938 l 2,18,19
 270.022460938 315.022460938 270.022460938 315.022460938 274.522460938 315.522460938 c 128,-1,20
 279.022460938 316.022460938 279.022460938 316.022460938 285.022460938 320.022460938 c 2,21,-1
 521.022460938 495.022460938 l 2,22,23
 526.022460938 498.022460938 526.022460938 498.022460938 531.522460938 495.522460938 c 128,-1,24
 537.022460938 493.022460938 537.022460938 493.022460938 537.022460938 486.022460938 c 2,25,-1
 537.022460938 419.022460938 l 2,26,27
 537.022460938 411.022460938 537.022460938 411.022460938 535.022460938 407.522460938 c 128,-1,28
 533.022460938 404.022460938 533.022460938 404.022460938 528.022460938 400.022460938 c 2,29,-1
 345.022460938 265.022460938 l 2,30,31
 334.022460938 257.022460938 334.022460938 257.022460938 345.022460938 250.022460938 c 2,32,-1
 528.022460938 119.022460938 l 2,33,34
 533.022460938 115.022460938 533.022460938 115.022460938 535.022460938 111.022460938 c 128,-1,35
 537.022460938 107.022460938 537.022460938 107.022460938 537.022460938 99.0224609375 c 2,36,-1
 537.022460938 47.0224609375 l 2,37,38
 537.022460938 38.0224609375 537.022460938 38.0224609375 532.522460938 37.5224609375 c 128,-1,39
 528.022460938 37.0224609375 528.022460938 37.0224609375 523.022460938 41.0224609375 c 2,40,-1
 297.022460938 210.022460938 l 2,41,42
 291.022460938 215.022460938 291.022460938 215.022460938 286.022460938 214.522460938 c 128,-1,43
 281.022460938 214.022460938 281.022460938 214.022460938 275.022460938 210.022460938 c 2,44,-1
 28.0224609375 27.0224609375 l 1,45,-1
 28.0224609375 27.0224609375 l 1,0,1
EndSplineSet
EndChar

StartChar: y
Encoding: 121 121 54
Width: 530
GlyphClass: 2
Flags: W
AnchorPoint: "Anchor-2" 82.8057 86.8057 basechar 0
AnchorPoint: "Anchor-0" 612.806 172.806 basechar 0
LayerCount: 2
Fore
SplineSet
-82.1943359375 341.805664062 m 1,0,1
 -82.1943359375 370.805664062 -82.1943359375 370.805664062 -80.1943359375 386.805664062 c 128,-1,2
 -78.1943359375 402.805664062 -78.1943359375 402.805664062 -69.1943359375 402.805664062 c 2,3,-1
 -30.1943359375 402.805664062 l 2,4,5
 -23.1943359375 402.805664062 -23.1943359375 402.805664062 -20.1943359375 397.305664062 c 128,-1,6
 -17.1943359375 391.805664062 -17.1943359375 391.805664062 -17.1943359375 374.805664062 c 2,7,-1
 -17.1943359375 311.805664062 l 2,8,9
 -17.1943359375 289.805664062 -17.1943359375 289.805664062 -2.6943359375 271.805664062 c 128,-1,10
 11.8056640625 253.805664062 11.8056640625 253.805664062 33.8056640625 241.805664062 c 128,-1,11
 55.8056640625 229.805664062 55.8056640625 229.805664062 78.3056640625 225.805664062 c 128,-1,12
 100.805664062 221.805664062 100.805664062 221.805664062 117.805664062 228.805664062 c 2,13,-1
 595.805664062 419.805664062 l 2,14,15
 602.805664062 421.805664062 602.805664062 421.805664062 607.805664062 419.305664062 c 128,-1,16
 612.805664062 416.805664062 612.805664062 416.805664062 612.805664062 408.805664062 c 2,17,-1
 612.805664062 346.805664062 l 2,18,19
 612.805664062 340.805664062 612.805664062 340.805664062 610.305664062 336.805664062 c 128,-1,20
 607.805664062 332.805664062 607.805664062 332.805664062 601.805664062 330.805664062 c 2,21,-1
 213.805664062 181.805664062 l 2,22,23
 204.805664062 177.805664062 204.805664062 177.805664062 204.805664062 172.805664062 c 128,-1,24
 204.805664062 167.805664062 204.805664062 167.805664062 216.805664062 163.805664062 c 2,25,-1
 601.805664062 16.8056640625 l 2,26,27
 607.805664062 13.8056640625 607.805664062 13.8056640625 610.305664062 10.8056640625 c 128,-1,28
 612.805664062 7.8056640625 612.805664062 7.8056640625 612.805664062 2.8056640625 c 2,29,-1
 612.805664062 -44.1943359375 l 2,30,31
 612.805664062 -51.1943359375 612.805664062 -51.1943359375 608.305664062 -54.1943359375 c 128,-1,32
 603.805664062 -57.1943359375 603.805664062 -57.1943359375 597.805664062 -54.1943359375 c 2,33,-1
 35.8056640625 165.805664062 l 2,34,35
 -0.1943359375 179.805664062 -0.1943359375 179.805664062 -23.1943359375 196.805664062 c 128,-1,36
 -46.1943359375 213.805664062 -46.1943359375 213.805664062 -58.6943359375 235.305664062 c 128,-1,37
 -71.1943359375 256.805664062 -71.1943359375 256.805664062 -76.6943359375 282.805664062 c 128,-1,38
 -82.1943359375 308.805664062 -82.1943359375 308.805664062 -82.1943359375 341.805664062 c 1,39,-1
 -82.1943359375 341.805664062 l 1,0,1
EndSplineSet
EndChar

StartChar: z
Encoding: 122 122 55
Width: 482
GlyphClass: 2
Flags: W
AnchorPoint: "Anchor-0" 504.5 251.5 basechar 0
LayerCount: 2
Fore
SplineSet
-25.5 461.5 m 1,0,1
 -25.5 468.5 -25.5 468.5 -23 471 c 128,-1,2
 -20.5 473.5 -20.5 473.5 -13.5 473.5 c 2,3,-1
 15.5 473.5 l 2,4,5
 23.5 473.5 23.5 473.5 29 471 c 128,-1,6
 34.5 468.5 34.5 468.5 44.5 461.5 c 2,7,-1
 435.5 170.5 l 2,8,9
 445.5 162.5 445.5 162.5 445.5 175.5 c 2,10,-1
 445.5 440.5 l 2,11,12
 445.5 446.5 445.5 446.5 448 449 c 128,-1,13
 450.5 451.5 450.5 451.5 456.5 451.5 c 2,14,-1
 493.5 451.5 l 2,15,16
 504.5 451.5 504.5 451.5 504.5 441.5 c 2,17,-1
 504.5 71.5 l 2,18,19
 504.5 62.5 504.5 62.5 494.5 62.5 c 2,20,-1
 462.5 62.5 l 2,21,22
 455.5 62.5 455.5 62.5 449.5 64.5 c 128,-1,23
 443.5 66.5 443.5 66.5 435.5 72.5 c 2,24,-1
 44.5 364.5 l 2,25,26
 33.5 372.5 33.5 372.5 33.5 361.5 c 2,27,-1
 33.5 67.5 l 2,28,29
 33.5 56.5 33.5 56.5 24.5 56.5 c 2,30,-1
 -13.5 56.5 l 2,31,32
 -19.5 56.5 -19.5 56.5 -22.5 59.5 c 128,-1,33
 -25.5 62.5 -25.5 62.5 -25.5 69.5 c 2,34,-1
 -25.5 461.5 l 1,35,-1
 -25.5 461.5 l 1,0,1
EndSplineSet
EndChar

StartChar: zero
Encoding: 48 48 56
Width: 688
GlyphClass: 1
Flags: W
LayerCount: 2
Fore
SplineSet
724.5 370.5 m 1,0,1
 724.5 311.5 724.5 311.5 700 261 c 128,-1,2
 675.5 210.5 675.5 210.5 626.5 173 c 128,-1,3
 577.5 135.5 577.5 135.5 506 114.5 c 128,-1,4
 434.5 93.5 434.5 93.5 341.5 93.5 c 0,5,6
 217.5 93.5 217.5 93.5 133.5 130 c 128,-1,7
 49.5 166.5 49.5 166.5 6.5 229.5 c 128,-1,8
 -36.5 292.5 -36.5 292.5 -36.5 371.5 c 0,9,10
 -36.5 451.5 -36.5 451.5 6.5 514.5 c 128,-1,11
 49.5 577.5 49.5 577.5 133.5 613.5 c 128,-1,12
 217.5 649.5 217.5 649.5 340.5 649.5 c 0,13,14
 433.5 649.5 433.5 649.5 505 628.5 c 128,-1,15
 576.5 607.5 576.5 607.5 626 569.5 c 128,-1,16
 675.5 531.5 675.5 531.5 700 480.5 c 128,-1,17
 724.5 429.5 724.5 429.5 724.5 370.5 c 1,18,-1
 724.5 370.5 l 1,0,1
36.5 370.5 m 1,19,20
 36.5 315.5 36.5 315.5 67.5 275.5 c 128,-1,21
 98.5 235.5 98.5 235.5 166 213.5 c 128,-1,22
 233.5 191.5 233.5 191.5 341.5 191.5 c 0,23,24
 451.5 191.5 451.5 191.5 519.5 214 c 128,-1,25
 587.5 236.5 587.5 236.5 619.5 277 c 128,-1,26
 651.5 317.5 651.5 317.5 651.5 371.5 c 256,27,28
 651.5 425.5 651.5 425.5 619.5 466 c 128,-1,29
 587.5 506.5 587.5 506.5 519 529 c 128,-1,30
 450.5 551.5 450.5 551.5 341.5 551.5 c 0,31,32
 233.5 551.5 233.5 551.5 166 529 c 128,-1,33
 98.5 506.5 98.5 506.5 67.5 465.5 c 128,-1,34
 36.5 424.5 36.5 424.5 36.5 370.5 c 1,35,-1
 36.5 370.5 l 1,19,20
EndSplineSet
Substitution2: "'frac' Diagonal Fractions in Latin lookup 22 subtable" zero.numr
Substitution2: "'dnom' Denominators in Latin lookup 20 subtable" zero.dnom
Substitution2: "'numr' Numerators in Latin lookup 19 subtable" zero.numr
Substitution2: "'sups' Superscript in Latin lookup 18 subtable" uni2070
Substitution2: "'sinf' Scientific Inferiors in Latin lookup 17 subtable" zero.subs
Substitution2: "'subs' Subscript in Latin lookup 16 subtable" zero.subs
AlternateSubs2: "'aalt' Access All Alternates in Latin lookup 1 subtable" zero.subs zero.dnom zero.numr uni2070
EndChar

StartChar: one
Encoding: 49 49 57
Width: 465
GlyphClass: 1
Flags: W
LayerCount: 2
Fore
SplineSet
-59 195 m 1,0,1
 -59 184 -59 184 -69 184 c 2,2,-1
 -125 184 l 2,3,4
 -128 184 -128 184 -131.5 186.5 c 128,-1,5
 -135 189 -135 189 -135 195 c 2,6,-1
 -135 546 l 2,7,8
 -135 557 -135 557 -125 557 c 2,9,-1
 -69 557 l 2,10,11
 -59 557 -59 557 -59 546 c 2,12,-1
 -59 420 l 2,13,14
 -59 412 -59 412 -54 412 c 2,15,-1
 496 412 l 2,16,17
 506 412 506 412 504 421 c 2,18,-1
 458 545 l 2,19,20
 455 558 455 558 470 558 c 2,21,-1
 510 558 l 2,22,23
 517 558 517 558 519.5 556 c 128,-1,24
 522 554 522 554 525 548 c 2,25,-1
 599 400 l 2,26,27
 604 390 604 390 605.5 384 c 128,-1,28
 607 378 607 378 607 370 c 2,29,-1
 607 327 l 2,30,31
 607 316 607 316 595 316 c 2,32,-1
 -52 316 l 2,33,34
 -59 316 -59 316 -59 310 c 2,35,-1
 -59 195 l 1,36,-1
 -59 195 l 1,0,1
EndSplineSet
Substitution2: "'frac' Diagonal Fractions in Latin lookup 22 subtable" one.numr
Substitution2: "'dnom' Denominators in Latin lookup 20 subtable" one.dnom
Substitution2: "'numr' Numerators in Latin lookup 19 subtable" one.numr
Substitution2: "'sups' Superscript in Latin lookup 18 subtable" uni00B9
Substitution2: "'sinf' Scientific Inferiors in Latin lookup 17 subtable" one.subs
Substitution2: "'subs' Subscript in Latin lookup 16 subtable" one.subs
AlternateSubs2: "'aalt' Access All Alternates in Latin lookup 1 subtable" uni00B9 one.subs one.dnom one.numr
EndChar

StartChar: two
Encoding: 50 50 58
Width: 599
GlyphClass: 1
Flags: W
LayerCount: 2
Fore
SplineSet
230.5 382.5 m 2,0,1
 270.5 340.5 270.5 340.5 302 311.5 c 128,-1,2
 333.5 282.5 333.5 282.5 361 265 c 128,-1,3
 388.5 247.5 388.5 247.5 414 239 c 128,-1,4
 439.5 230.5 439.5 230.5 466.5 230.5 c 0,5,6
 509.5 230.5 509.5 230.5 538.5 252.5 c 128,-1,7
 567.5 274.5 567.5 274.5 582 308 c 128,-1,8
 596.5 341.5 596.5 341.5 596.5 378.5 c 0,9,10
 596.5 407.5 596.5 407.5 587 438.5 c 128,-1,11
 577.5 469.5 577.5 469.5 555.5 498 c 128,-1,12
 533.5 526.5 533.5 526.5 497.5 549.5 c 0,13,14
 493.5 551.5 493.5 551.5 492.5 557 c 128,-1,15
 491.5 562.5 491.5 562.5 495.5 569.5 c 2,16,-1
 521.5 613.5 l 2,17,18
 526.5 620.5 526.5 620.5 532 621 c 128,-1,19
 537.5 621.5 537.5 621.5 543.5 617.5 c 0,20,21
 610.5 571.5 610.5 571.5 641 506 c 128,-1,22
 671.5 440.5 671.5 440.5 671.5 370.5 c 0,23,24
 671.5 307.5 671.5 307.5 648.5 254.5 c 128,-1,25
 625.5 201.5 625.5 201.5 579.5 169.5 c 128,-1,26
 533.5 137.5 533.5 137.5 463.5 137.5 c 0,27,28
 419.5 137.5 419.5 137.5 380.5 153 c 128,-1,29
 341.5 168.5 341.5 168.5 299.5 204 c 128,-1,30
 257.5 239.5 257.5 239.5 201.5 298.5 c 2,31,-1
 12.5 499.5 l 2,32,33
 8.5 505.5 8.5 505.5 4.5 504 c 128,-1,34
 0.5 502.5 0.5 502.5 0.5 493.5 c 2,35,-1
 0.5 142.5 l 2,36,37
 0.5 129.5 0.5 129.5 -10.5 129.5 c 2,38,-1
 -68.5 129.5 l 2,39,40
 -74.5 129.5 -74.5 129.5 -77.5 132 c 128,-1,41
 -80.5 134.5 -80.5 134.5 -80.5 142.5 c 2,42,-1
 -80.5 606.5 l 2,43,44
 -80.5 615.5 -80.5 615.5 -77.5 619 c 128,-1,45
 -74.5 622.5 -74.5 622.5 -64.5 622.5 c 2,46,-1
 -23.5 622.5 l 2,47,48
 -16.5 622.5 -16.5 622.5 -11 621 c 128,-1,49
 -5.5 619.5 -5.5 619.5 1.5 613.5 c 128,-1,50
 8.5 607.5 8.5 607.5 18.5 595.5 c 2,51,-1
 230.5 382.5 l 2,0,1
EndSplineSet
Substitution2: "'frac' Diagonal Fractions in Latin lookup 22 subtable" two.numr
Substitution2: "'dnom' Denominators in Latin lookup 20 subtable" two.dnom
Substitution2: "'numr' Numerators in Latin lookup 19 subtable" two.numr
Substitution2: "'sups' Superscript in Latin lookup 18 subtable" uni00B2
Substitution2: "'sinf' Scientific Inferiors in Latin lookup 17 subtable" two.subs
Substitution2: "'subs' Subscript in Latin lookup 16 subtable" two.subs
AlternateSubs2: "'aalt' Access All Alternates in Latin lookup 1 subtable" uni00B2 two.subs two.dnom two.numr
EndChar

StartChar: three
Encoding: 51 51 59
Width: 641
GlyphClass: 1
Flags: W
LayerCount: 2
Fore
SplineSet
578.400390625 605.400390625 m 1,0,1
 585.400390625 612.400390625 585.400390625 612.400390625 593.400390625 605.400390625 c 0,2,3
 627.400390625 574.400390625 627.400390625 574.400390625 649.400390625 537.900390625 c 128,-1,4
 671.400390625 501.400390625 671.400390625 501.400390625 681.900390625 460.400390625 c 128,-1,5
 692.400390625 419.400390625 692.400390625 419.400390625 692.400390625 374.400390625 c 0,6,7
 692.400390625 296.400390625 692.400390625 296.400390625 667.900390625 240.900390625 c 128,-1,8
 643.400390625 185.400390625 643.400390625 185.400390625 600.900390625 154.900390625 c 128,-1,9
 558.400390625 124.400390625 558.400390625 124.400390625 504.400390625 124.400390625 c 256,10,11
 450.400390625 124.400390625 450.400390625 124.400390625 406.900390625 157.900390625 c 128,-1,12
 363.400390625 191.400390625 363.400390625 191.400390625 342.400390625 251.400390625 c 0,13,14
 338.400390625 262.400390625 338.400390625 262.400390625 335.400390625 262.400390625 c 128,-1,15
 332.400390625 262.400390625 332.400390625 262.400390625 328.400390625 251.400390625 c 0,16,17
 317.400390625 210.400390625 317.400390625 210.400390625 291.900390625 175.900390625 c 128,-1,18
 266.400390625 141.400390625 266.400390625 141.400390625 229.400390625 121.400390625 c 128,-1,19
 192.400390625 101.400390625 192.400390625 101.400390625 145.400390625 101.400390625 c 0,20,21
 83.400390625 101.400390625 83.400390625 101.400390625 34.400390625 133.400390625 c 128,-1,22
 -14.599609375 165.400390625 -14.599609375 165.400390625 -42.099609375 228.900390625 c 128,-1,23
 -69.599609375 292.400390625 -69.599609375 292.400390625 -69.599609375 387.400390625 c 0,24,25
 -69.599609375 437.400390625 -69.599609375 437.400390625 -58.099609375 482.400390625 c 128,-1,26
 -46.599609375 527.400390625 -46.599609375 527.400390625 -22.599609375 565.900390625 c 128,-1,27
 1.400390625 604.400390625 1.400390625 604.400390625 36.400390625 637.400390625 c 0,28,29
 41.400390625 641.400390625 41.400390625 641.400390625 45.400390625 640.400390625 c 128,-1,30
 49.400390625 639.400390625 49.400390625 639.400390625 53.400390625 634.400390625 c 2,31,-1
 87.400390625 591.400390625 l 2,32,33
 92.400390625 584.400390625 92.400390625 584.400390625 91.400390625 581.400390625 c 128,-1,34
 90.400390625 578.400390625 90.400390625 578.400390625 87.400390625 575.400390625 c 0,35,36
 56.400390625 545.400390625 56.400390625 545.400390625 38.400390625 515.400390625 c 128,-1,37
 20.400390625 485.400390625 20.400390625 485.400390625 11.900390625 452.400390625 c 128,-1,38
 3.400390625 419.400390625 3.400390625 419.400390625 3.400390625 380.400390625 c 0,39,40
 3.400390625 292.400390625 3.400390625 292.400390625 42.400390625 244.400390625 c 128,-1,41
 81.400390625 196.400390625 81.400390625 196.400390625 142.400390625 196.400390625 c 0,42,43
 190.400390625 196.400390625 190.400390625 196.400390625 223.400390625 223.400390625 c 128,-1,44
 256.400390625 250.400390625 256.400390625 250.400390625 273.400390625 293.400390625 c 128,-1,45
 290.400390625 336.400390625 290.400390625 336.400390625 290.400390625 384.400390625 c 2,46,-1
 291.400390625 473.400390625 l 2,47,48
 291.400390625 485.400390625 291.400390625 485.400390625 301.400390625 485.400390625 c 2,49,-1
 353.400390625 485.400390625 l 2,50,51
 362.400390625 485.400390625 362.400390625 485.400390625 363.400390625 473.400390625 c 2,52,-1
 364.400390625 401.400390625 l 2,53,54
 364.400390625 349.400390625 364.400390625 349.400390625 382.400390625 307.900390625 c 128,-1,55
 400.400390625 266.400390625 400.400390625 266.400390625 430.900390625 242.400390625 c 128,-1,56
 461.400390625 218.400390625 461.400390625 218.400390625 500.400390625 218.400390625 c 0,57,58
 534.400390625 218.400390625 534.400390625 218.400390625 561.400390625 238.400390625 c 128,-1,59
 588.400390625 258.400390625 588.400390625 258.400390625 604.400390625 293.400390625 c 128,-1,60
 620.400390625 328.400390625 620.400390625 328.400390625 620.400390625 373.400390625 c 0,61,62
 620.400390625 425.400390625 620.400390625 425.400390625 600.400390625 469.400390625 c 128,-1,63
 580.400390625 513.400390625 580.400390625 513.400390625 543.400390625 552.400390625 c 0,64,65
 538.400390625 556.400390625 538.400390625 556.400390625 538.400390625 560.400390625 c 128,-1,66
 538.400390625 564.400390625 538.400390625 564.400390625 543.400390625 570.400390625 c 2,67,-1
 578.400390625 605.400390625 l 1,68,-1
 578.400390625 605.400390625 l 1,0,1
EndSplineSet
Substitution2: "'frac' Diagonal Fractions in Latin lookup 22 subtable" three.numr
Substitution2: "'dnom' Denominators in Latin lookup 20 subtable" three.dnom
Substitution2: "'numr' Numerators in Latin lookup 19 subtable" three.numr
Substitution2: "'sups' Superscript in Latin lookup 18 subtable" uni00B3
Substitution2: "'sinf' Scientific Inferiors in Latin lookup 17 subtable" three.subs
Substitution2: "'subs' Subscript in Latin lookup 16 subtable" three.subs
AlternateSubs2: "'aalt' Access All Alternates in Latin lookup 1 subtable" uni00B3 three.subs three.dnom three.numr
EndChar

StartChar: four
Encoding: 52 52 60
Width: 649
GlyphClass: 1
Flags: W
LayerCount: 2
Fore
SplineSet
685.5 310.5 m 1,0,1
 691.5 305.5 691.5 305.5 694 300.5 c 128,-1,2
 696.5 295.5 696.5 295.5 696.5 285.5 c 2,3,-1
 696.5 218.5 l 2,4,5
 696.5 206.5 696.5 206.5 684.5 206.5 c 2,6,-1
 234.5 206.5 l 2,7,8
 225.5 206.5 225.5 206.5 225.5 198.5 c 2,9,-1
 225.5 104.5 l 2,10,11
 225.5 90.5 225.5 90.5 215.5 90.5 c 2,12,-1
 166.5 90.5 l 2,13,14
 153.5 90.5 153.5 90.5 153.5 104.5 c 2,15,-1
 153.5 197.5 l 2,16,17
 153.5 206.5 153.5 206.5 143.5 206.5 c 2,18,-1
 -30.5 206.5 l 2,19,20
 -45.5 206.5 -45.5 206.5 -45.5 222.5 c 2,21,-1
 -45.5 290.5 l 2,22,23
 -45.5 303.5 -45.5 303.5 -32.5 303.5 c 2,24,-1
 146.5 303.5 l 2,25,26
 153.5 303.5 153.5 303.5 153.5 312.5 c 2,27,-1
 153.5 636.5 l 2,28,29
 153.5 651.5 153.5 651.5 166.5 651.5 c 2,30,-1
 217.5 651.5 l 2,31,32
 224.5 651.5 224.5 651.5 232 647.5 c 128,-1,33
 239.5 643.5 239.5 643.5 250.5 635.5 c 2,34,-1
 685.5 310.5 l 1,35,-1
 685.5 310.5 l 1,0,1
225.5 314.5 m 2,36,37
 225.5 305.5 225.5 305.5 232.5 305.5 c 2,38,-1
 565.5 305.5 l 2,39,40
 577.5 305.5 577.5 305.5 578.5 308.5 c 128,-1,41
 579.5 311.5 579.5 311.5 569.5 319.5 c 2,42,-1
 238.5 563.5 l 2,43,44
 225.5 573.5 225.5 573.5 225.5 556.5 c 2,45,-1
 225.5 314.5 l 2,36,37
EndSplineSet
Substitution2: "'frac' Diagonal Fractions in Latin lookup 22 subtable" four.numr
Substitution2: "'dnom' Denominators in Latin lookup 20 subtable" four.dnom
Substitution2: "'numr' Numerators in Latin lookup 19 subtable" four.numr
Substitution2: "'sups' Superscript in Latin lookup 18 subtable" uni2074
Substitution2: "'sinf' Scientific Inferiors in Latin lookup 17 subtable" four.subs
Substitution2: "'subs' Subscript in Latin lookup 16 subtable" four.subs
AlternateSubs2: "'aalt' Access All Alternates in Latin lookup 1 subtable" uni2074 four.subs four.dnom four.numr
EndChar

StartChar: five
Encoding: 53 53 61
Width: 654
GlyphClass: 1
Flags: W
LayerCount: 2
Fore
SplineSet
700.233398438 146.233398438 m 2,0,1
 700.233398438 136.233398438 700.233398438 136.233398438 697.233398438 133.233398438 c 128,-1,2
 694.233398438 130.233398438 694.233398438 130.233398438 685.233398438 131.233398438 c 2,3,-1
 631.233398438 135.233398438 l 2,4,5
 624.233398438 136.233398438 624.233398438 136.233398438 622.233398438 137.733398438 c 128,-1,6
 620.233398438 139.233398438 620.233398438 139.233398438 620.233398438 149.233398438 c 2,7,-1
 620.233398438 489.233398438 l 2,8,9
 620.233398438 501.233398438 620.233398438 501.233398438 609.233398438 501.233398438 c 2,10,-1
 392.233398438 519.233398438 l 2,11,12
 385.233398438 520.233398438 385.233398438 520.233398438 381.733398438 516.233398438 c 128,-1,13
 378.233398438 512.233398438 378.233398438 512.233398438 380.233398438 507.233398438 c 0,14,15
 399.233398438 470.233398438 399.233398438 470.233398438 413.733398438 432.733398438 c 128,-1,16
 428.233398438 395.233398438 428.233398438 395.233398438 428.233398438 341.233398438 c 0,17,18
 428.233398438 275.233398438 428.233398438 275.233398438 404.233398438 218.233398438 c 128,-1,19
 380.233398438 161.233398438 380.233398438 161.233398438 330.233398438 126.733398438 c 128,-1,20
 280.233398438 92.2333984375 280.233398438 92.2333984375 201.233398438 92.2333984375 c 0,21,22
 121.233398438 92.2333984375 121.233398438 92.2333984375 64.7333984375 128.733398438 c 128,-1,23
 8.2333984375 165.233398438 8.2333984375 165.233398438 -21.7666015625 229.733398438 c 128,-1,24
 -51.7666015625 294.233398438 -51.7666015625 294.233398438 -51.7666015625 377.233398438 c 0,25,26
 -51.7666015625 453.233398438 -51.7666015625 453.233398438 -25.2666015625 520.733398438 c 128,-1,27
 1.2333984375 588.233398438 1.2333984375 588.233398438 52.2333984375 635.233398438 c 0,28,29
 58.2333984375 639.233398438 58.2333984375 639.233398438 62.7333984375 639.733398438 c 128,-1,30
 67.2333984375 640.233398438 67.2333984375 640.233398438 72.2333984375 633.233398438 c 2,31,-1
 107.233398438 590.233398438 l 2,32,33
 113.233398438 582.233398438 113.233398438 582.233398438 104.233398438 573.233398438 c 0,34,35
 79.2333984375 546.233398438 79.2333984375 546.233398438 60.2333984375 520.233398438 c 128,-1,36
 41.2333984375 494.233398438 41.2333984375 494.233398438 30.7333984375 462.733398438 c 128,-1,37
 20.2333984375 431.233398438 20.2333984375 431.233398438 20.2333984375 389.233398438 c 0,38,39
 20.2333984375 324.233398438 20.2333984375 324.233398438 43.2333984375 279.233398438 c 128,-1,40
 66.2333984375 234.233398438 66.2333984375 234.233398438 106.733398438 210.233398438 c 128,-1,41
 147.233398438 186.233398438 147.233398438 186.233398438 198.233398438 186.233398438 c 0,42,43
 252.233398438 186.233398438 252.233398438 186.233398438 286.733398438 209.233398438 c 128,-1,44
 321.233398438 232.233398438 321.233398438 232.233398438 338.233398438 270.733398438 c 128,-1,45
 355.233398438 309.233398438 355.233398438 309.233398438 355.233398438 356.233398438 c 0,46,47
 355.233398438 409.233398438 355.233398438 409.233398438 336.233398438 451.233398438 c 128,-1,48
 317.233398438 493.233398438 317.233398438 493.233398438 296.233398438 528.233398438 c 0,49,50
 292.233398438 536.233398438 292.233398438 536.233398438 293.233398438 538.233398438 c 128,-1,51
 294.233398438 540.233398438 294.233398438 540.233398438 297.233398438 546.233398438 c 2,52,-1
 325.233398438 595.233398438 l 2,53,54
 330.233398438 604.233398438 330.233398438 604.233398438 332.733398438 603.733398438 c 128,-1,55
 335.233398438 603.233398438 335.233398438 603.233398438 347.233398438 602.233398438 c 2,56,-1
 686.233398438 575.233398438 l 2,57,58
 695.233398438 574.233398438 695.233398438 574.233398438 697.733398438 570.733398438 c 128,-1,59
 700.233398438 567.233398438 700.233398438 567.233398438 700.233398438 553.233398438 c 2,60,-1
 700.233398438 146.233398438 l 2,0,1
EndSplineSet
Substitution2: "'frac' Diagonal Fractions in Latin lookup 22 subtable" five.numr
Substitution2: "'dnom' Denominators in Latin lookup 20 subtable" five.dnom
Substitution2: "'numr' Numerators in Latin lookup 19 subtable" five.numr
Substitution2: "'sups' Superscript in Latin lookup 18 subtable" uni2075
Substitution2: "'sinf' Scientific Inferiors in Latin lookup 17 subtable" five.subs
Substitution2: "'subs' Subscript in Latin lookup 16 subtable" five.subs
AlternateSubs2: "'aalt' Access All Alternates in Latin lookup 1 subtable" five.subs five.dnom five.numr uni2075
EndChar

StartChar: six
Encoding: 54 54 62
Width: 661
GlyphClass: 1
Flags: W
LayerCount: 2
Fore
SplineSet
716.5 338.5 m 1,0,1
 716.5 300.5 716.5 300.5 708.5 270.5 c 128,-1,2
 700.5 240.5 700.5 240.5 686.5 216.5 c 128,-1,3
 672.5 192.5 672.5 192.5 655.5 174 c 128,-1,4
 638.5 155.5 638.5 155.5 619.5 143.5 c 0,5,6
 615.5 141.5 615.5 141.5 611 141 c 128,-1,7
 606.5 140.5 606.5 140.5 603.5 146.5 c 2,8,-1
 580.5 203.5 l 2,9,10
 577.5 208.5 577.5 208.5 580 212.5 c 128,-1,11
 582.5 216.5 582.5 216.5 586.5 218.5 c 0,12,13
 612.5 240.5 612.5 240.5 628.5 268 c 128,-1,14
 644.5 295.5 644.5 295.5 644.5 337.5 c 0,15,16
 644.5 409.5 644.5 409.5 609.5 456 c 128,-1,17
 574.5 502.5 574.5 502.5 514 524.5 c 128,-1,18
 453.5 546.5 453.5 546.5 377.5 546.5 c 0,19,20
 361.5 546.5 361.5 546.5 356.5 543.5 c 128,-1,21
 351.5 540.5 351.5 540.5 357.5 528.5 c 0,22,23
 376.5 490.5 376.5 490.5 392.5 446.5 c 128,-1,24
 408.5 402.5 408.5 402.5 408.5 343.5 c 0,25,26
 408.5 266.5 408.5 266.5 380 212 c 128,-1,27
 351.5 157.5 351.5 157.5 302.5 129 c 128,-1,28
 253.5 100.5 253.5 100.5 191.5 100.5 c 0,29,30
 121.5 100.5 121.5 100.5 68 135 c 128,-1,31
 14.5 169.5 14.5 169.5 -14.5 228 c 128,-1,32
 -43.5 286.5 -43.5 286.5 -43.5 358.5 c 0,33,34
 -43.5 446.5 -43.5 446.5 0 510 c 128,-1,35
 43.5 573.5 43.5 573.5 126 607.5 c 128,-1,36
 208.5 641.5 208.5 641.5 325.5 641.5 c 0,37,38
 447.5 641.5 447.5 641.5 535 605 c 128,-1,39
 622.5 568.5 622.5 568.5 669.5 500.5 c 128,-1,40
 716.5 432.5 716.5 432.5 716.5 338.5 c 1,41,-1
 716.5 338.5 l 1,0,1
338.5 354.5 m 1,42,43
 338.5 380.5 338.5 380.5 332 413 c 128,-1,44
 325.5 445.5 325.5 445.5 315.5 474.5 c 128,-1,45
 305.5 503.5 305.5 503.5 292.5 524.5 c 0,46,47
 284.5 536.5 284.5 536.5 276 540.5 c 128,-1,48
 267.5 544.5 267.5 544.5 249.5 544.5 c 0,49,50
 213.5 544.5 213.5 544.5 175 533 c 128,-1,51
 136.5 521.5 136.5 521.5 102.5 499 c 128,-1,52
 68.5 476.5 68.5 476.5 47.5 441.5 c 128,-1,53
 26.5 406.5 26.5 406.5 26.5 358.5 c 0,54,55
 26.5 311.5 26.5 311.5 47.5 275 c 128,-1,56
 68.5 238.5 68.5 238.5 105.5 217 c 128,-1,57
 142.5 195.5 142.5 195.5 187.5 195.5 c 0,58,59
 229.5 195.5 229.5 195.5 264 214.5 c 128,-1,60
 298.5 233.5 298.5 233.5 318.5 269.5 c 128,-1,61
 338.5 305.5 338.5 305.5 338.5 354.5 c 1,62,-1
 338.5 354.5 l 1,42,43
EndSplineSet
Substitution2: "'frac' Diagonal Fractions in Latin lookup 22 subtable" six.numr
Substitution2: "'dnom' Denominators in Latin lookup 20 subtable" six.dnom
Substitution2: "'numr' Numerators in Latin lookup 19 subtable" six.numr
Substitution2: "'sups' Superscript in Latin lookup 18 subtable" uni2076
Substitution2: "'sinf' Scientific Inferiors in Latin lookup 17 subtable" six.subs
Substitution2: "'subs' Subscript in Latin lookup 16 subtable" six.subs
AlternateSubs2: "'aalt' Access All Alternates in Latin lookup 1 subtable" six.subs six.dnom six.numr uni2076
EndChar

StartChar: seven
Encoding: 55 55 63
Width: 599
GlyphClass: 1
Flags: W
LayerCount: 2
Fore
SplineSet
669.099609375 129.099609375 m 2,0,1
 669.099609375 121.099609375 669.099609375 121.099609375 665.099609375 117.099609375 c 128,-1,2
 661.099609375 113.099609375 661.099609375 113.099609375 657.099609375 114.099609375 c 2,3,-1
 621.099609375 115.099609375 l 2,4,5
 613.099609375 115.099609375 613.099609375 115.099609375 603.599609375 119.099609375 c 128,-1,6
 594.099609375 123.099609375 594.099609375 123.099609375 585.099609375 129.099609375 c 0,7,8
 525.099609375 169.099609375 525.099609375 169.099609375 456.099609375 206.599609375 c 128,-1,9
 387.099609375 244.099609375 387.099609375 244.099609375 314.099609375 276.099609375 c 128,-1,10
 241.099609375 308.099609375 241.099609375 308.099609375 172.599609375 333.599609375 c 128,-1,11
 104.099609375 359.099609375 104.099609375 359.099609375 45.599609375 376.099609375 c 128,-1,12
 -12.900390625 393.099609375 -12.900390625 393.099609375 -53.900390625 399.099609375 c 0,13,14
 -72.900390625 401.099609375 -72.900390625 401.099609375 -72.900390625 414.099609375 c 2,15,-1
 -72.900390625 493.099609375 l 2,16,17
 -72.900390625 509.099609375 -72.900390625 509.099609375 -55.900390625 505.099609375 c 0,18,19
 0.099609375 491.099609375 0.099609375 491.099609375 70.599609375 467.599609375 c 128,-1,20
 141.099609375 444.099609375 141.099609375 444.099609375 222.599609375 409.599609375 c 128,-1,21
 304.099609375 375.099609375 304.099609375 375.099609375 393.099609375 328.099609375 c 128,-1,22
 482.099609375 281.099609375 482.099609375 281.099609375 575.099609375 222.099609375 c 0,23,24
 581.099609375 218.099609375 581.099609375 218.099609375 585.099609375 219.099609375 c 128,-1,25
 589.099609375 220.099609375 589.099609375 220.099609375 589.099609375 229.099609375 c 2,26,-1
 589.099609375 616.099609375 l 2,27,28
 589.099609375 628.099609375 589.099609375 628.099609375 601.099609375 628.099609375 c 2,29,-1
 659.099609375 621.099609375 l 2,30,31
 669.099609375 620.099609375 669.099609375 620.099609375 669.099609375 606.099609375 c 2,32,-1
 669.099609375 129.099609375 l 2,0,1
EndSplineSet
Substitution2: "'frac' Diagonal Fractions in Latin lookup 22 subtable" seven.numr
Substitution2: "'dnom' Denominators in Latin lookup 20 subtable" seven.dnom
Substitution2: "'numr' Numerators in Latin lookup 19 subtable" seven.numr
Substitution2: "'sups' Superscript in Latin lookup 18 subtable" uni2077
Substitution2: "'sinf' Scientific Inferiors in Latin lookup 17 subtable" seven.subs
Substitution2: "'subs' Subscript in Latin lookup 16 subtable" seven.subs
AlternateSubs2: "'aalt' Access All Alternates in Latin lookup 1 subtable" seven.subs seven.dnom seven.numr uni2077
EndChar

StartChar: eight
Encoding: 56 56 64
Width: 668
GlyphClass: 1
Flags: W
LayerCount: 2
Fore
SplineSet
717 374 m 1,0,1
 717 301 717 301 691.5 246 c 128,-1,2
 666 191 666 191 620 160 c 128,-1,3
 574 129 574 129 513 129 c 0,4,5
 466 129 466 129 429 153 c 128,-1,6
 392 177 392 177 355 230 c 0,7,8
 345 245 345 245 339 231 c 0,9,10
 321 185 321 185 295 155.5 c 128,-1,11
 269 126 269 126 235.5 111 c 128,-1,12
 202 96 202 96 162 96 c 0,13,14
 99 96 99 96 52 131.5 c 128,-1,15
 5 167 5 167 -20 230 c 128,-1,16
 -45 293 -45 293 -45 377 c 0,17,18
 -45 459 -45 459 -22 520 c 128,-1,19
 1 581 1 581 44.5 613.5 c 128,-1,20
 88 646 88 646 149 646 c 0,21,22
 202 646 202 646 244.5 619.5 c 128,-1,23
 287 593 287 593 325 532 c 0,24,25
 332 520 332 520 336.5 519.5 c 128,-1,26
 341 519 341 519 347 531 c 0,27,28
 363 559 363 559 385 580.5 c 128,-1,29
 407 602 407 602 436 614 c 128,-1,30
 465 626 465 626 502 626 c 0,31,32
 563 626 563 626 611.5 594.5 c 128,-1,33
 660 563 660 563 688.5 506 c 128,-1,34
 717 449 717 449 717 374 c 1,35,-1
 717 374 l 1,0,1
647 373 m 1,36,37
 647 418 647 418 629 455 c 128,-1,38
 611 492 611 492 580.5 513.5 c 128,-1,39
 550 535 550 535 510 535 c 0,40,41
 419 535 419 535 396 432 c 2,42,-1
 372 329 l 2,43,44
 368 315 368 315 379 295.5 c 128,-1,45
 390 276 390 276 411 257 c 128,-1,46
 432 238 432 238 459 226 c 128,-1,47
 486 214 486 214 514 214 c 0,48,49
 573 214 573 214 610 257 c 128,-1,50
 647 300 647 300 647 373 c 1,51,-1
 647 373 l 1,36,37
25 372 m 1,52,53
 25 289 25 289 61 240 c 128,-1,54
 97 191 97 191 158 191 c 0,55,56
 204 191 204 191 233 216 c 128,-1,57
 262 241 262 241 275 297 c 2,58,-1
 307 427 l 2,59,60
 311 442 311 442 301.5 464 c 128,-1,61
 292 486 292 486 271.5 508 c 128,-1,62
 251 530 251 530 222.5 545.5 c 128,-1,63
 194 561 194 561 160 561 c 0,64,65
 96 561 96 561 60.5 512.5 c 128,-1,66
 25 464 25 464 25 372 c 1,67,-1
 25 372 l 1,52,53
EndSplineSet
Substitution2: "'frac' Diagonal Fractions in Latin lookup 22 subtable" eight.numr
Substitution2: "'dnom' Denominators in Latin lookup 20 subtable" eight.dnom
Substitution2: "'numr' Numerators in Latin lookup 19 subtable" eight.numr
Substitution2: "'sups' Superscript in Latin lookup 18 subtable" uni2078
Substitution2: "'sinf' Scientific Inferiors in Latin lookup 17 subtable" eight.subs
Substitution2: "'subs' Subscript in Latin lookup 16 subtable" eight.subs
AlternateSubs2: "'aalt' Access All Alternates in Latin lookup 1 subtable" eight.subs eight.dnom eight.numr uni2078
EndChar

StartChar: nine
Encoding: 57 57 65
Width: 658
GlyphClass: 1
Flags: W
LayerCount: 2
Fore
SplineSet
-56.5 402.5 m 1,0,1
 -56.5 440.5 -56.5 440.5 -48.5 472 c 128,-1,2
 -40.5 503.5 -40.5 503.5 -26.5 528.5 c 128,-1,3
 -12.5 553.5 -12.5 553.5 5 572 c 128,-1,4
 22.5 590.5 22.5 590.5 40.5 603.5 c 0,5,6
 44.5 605.5 44.5 605.5 49 606 c 128,-1,7
 53.5 606.5 53.5 606.5 56.5 600.5 c 2,8,-1
 79.5 543.5 l 2,9,10
 82.5 538.5 82.5 538.5 80 535 c 128,-1,11
 77.5 531.5 77.5 531.5 73.5 528.5 c 0,12,13
 47.5 507.5 47.5 507.5 31.5 477.5 c 128,-1,14
 15.5 447.5 15.5 447.5 15.5 402.5 c 0,15,16
 15.5 331.5 15.5 331.5 50.5 286.5 c 128,-1,17
 85.5 241.5 85.5 241.5 146 220 c 128,-1,18
 206.5 198.5 206.5 198.5 282.5 198.5 c 0,19,20
 299.5 198.5 299.5 198.5 304 201 c 128,-1,21
 308.5 203.5 308.5 203.5 302.5 215.5 c 0,22,23
 283.5 253.5 283.5 253.5 267.5 296 c 128,-1,24
 251.5 338.5 251.5 338.5 251.5 398.5 c 0,25,26
 251.5 473.5 251.5 473.5 280 528 c 128,-1,27
 308.5 582.5 308.5 582.5 357.5 611 c 128,-1,28
 406.5 639.5 406.5 639.5 468.5 639.5 c 0,29,30
 539.5 639.5 539.5 639.5 592.5 605.5 c 128,-1,31
 645.5 571.5 645.5 571.5 674.5 512.5 c 128,-1,32
 703.5 453.5 703.5 453.5 703.5 381.5 c 0,33,34
 703.5 295.5 703.5 295.5 660 233 c 128,-1,35
 616.5 170.5 616.5 170.5 534 136.5 c 128,-1,36
 451.5 102.5 451.5 102.5 334.5 102.5 c 0,37,38
 212.5 102.5 212.5 102.5 125 139 c 128,-1,39
 37.5 175.5 37.5 175.5 -9.5 242 c 128,-1,40
 -56.5 308.5 -56.5 308.5 -56.5 402.5 c 1,41,-1
 -56.5 402.5 l 1,0,1
321.5 387.5 m 1,42,43
 321.5 358.5 321.5 358.5 328 327.5 c 128,-1,44
 334.5 296.5 334.5 296.5 346.5 267.5 c 128,-1,45
 358.5 238.5 358.5 238.5 372.5 218.5 c 0,46,47
 380.5 206.5 380.5 206.5 389 202.5 c 128,-1,48
 397.5 198.5 397.5 198.5 415.5 198.5 c 0,49,50
 450.5 198.5 450.5 198.5 488.5 209.5 c 128,-1,51
 526.5 220.5 526.5 220.5 559.5 243 c 128,-1,52
 592.5 265.5 592.5 265.5 613 300 c 128,-1,53
 633.5 334.5 633.5 334.5 633.5 381.5 c 0,54,55
 633.5 427.5 633.5 427.5 612.5 464.5 c 128,-1,56
 591.5 501.5 591.5 501.5 555 523 c 128,-1,57
 518.5 544.5 518.5 544.5 472.5 544.5 c 0,58,59
 430.5 544.5 430.5 544.5 396 525 c 128,-1,60
 361.5 505.5 361.5 505.5 341.5 470.5 c 128,-1,61
 321.5 435.5 321.5 435.5 321.5 387.5 c 1,62,-1
 321.5 387.5 l 1,42,43
EndSplineSet
Substitution2: "'frac' Diagonal Fractions in Latin lookup 22 subtable" nine.numr
Substitution2: "'dnom' Denominators in Latin lookup 20 subtable" nine.dnom
Substitution2: "'numr' Numerators in Latin lookup 19 subtable" nine.numr
Substitution2: "'sups' Superscript in Latin lookup 18 subtable" uni2079
Substitution2: "'sinf' Scientific Inferiors in Latin lookup 17 subtable" nine.subs
Substitution2: "'subs' Subscript in Latin lookup 16 subtable" nine.subs
AlternateSubs2: "'aalt' Access All Alternates in Latin lookup 1 subtable" nine.subs nine.dnom nine.numr uni2079
EndChar

StartChar: ordfeminine
Encoding: 170 170 70
Width: 400
GlyphClass: 1
Flags: W
LayerCount: 2
Fore
SplineSet
355.099609375 573.099609375 m 1,0,1
 355.099609375 506.099609375 355.099609375 506.099609375 325.099609375 473.599609375 c 128,-1,2
 295.099609375 441.099609375 295.099609375 441.099609375 243.099609375 441.099609375 c 2,3,-1
 78.099609375 441.099609375 l 2,4,5
 63.099609375 441.099609375 63.099609375 441.099609375 53.599609375 440.099609375 c 128,-1,6
 44.099609375 439.099609375 44.099609375 439.099609375 28.099609375 433.099609375 c 0,7,8
 22.099609375 430.099609375 22.099609375 430.099609375 19.599609375 434.599609375 c 128,-1,9
 17.099609375 439.099609375 17.099609375 439.099609375 17.099609375 445.099609375 c 2,10,-1
 17.099609375 484.099609375 l 2,11,12
 17.099609375 489.099609375 17.099609375 489.099609375 19.099609375 491.099609375 c 128,-1,13
 21.099609375 493.099609375 21.099609375 493.099609375 26.099609375 495.099609375 c 2,14,-1
 54.099609375 499.099609375 l 2,15,16
 62.099609375 501.099609375 62.099609375 501.099609375 55.099609375 510.099609375 c 0,17,18
 33.099609375 535.099609375 33.099609375 535.099609375 22.099609375 558.599609375 c 128,-1,19
 11.099609375 582.099609375 11.099609375 582.099609375 11.099609375 614.099609375 c 0,20,21
 11.099609375 666.099609375 11.099609375 666.099609375 35.599609375 695.099609375 c 128,-1,22
 60.099609375 724.099609375 60.099609375 724.099609375 103.099609375 724.099609375 c 0,23,24
 152.099609375 724.099609375 152.099609375 724.099609375 180.099609375 682.599609375 c 128,-1,25
 208.099609375 641.099609375 208.099609375 641.099609375 214.099609375 559.099609375 c 2,26,-1
 219.099609375 511.099609375 l 2,27,28
 220.099609375 500.099609375 220.099609375 500.099609375 229.099609375 500.099609375 c 2,29,-1
 244.099609375 500.099609375 l 2,30,31
 310.099609375 500.099609375 310.099609375 500.099609375 310.099609375 577.099609375 c 0,32,33
 310.099609375 603.099609375 310.099609375 603.099609375 300.599609375 623.099609375 c 128,-1,34
 291.099609375 643.099609375 291.099609375 643.099609375 265.099609375 660.099609375 c 0,35,36
 260.099609375 663.099609375 260.099609375 663.099609375 262.099609375 670.099609375 c 2,37,-1
 274.099609375 710.099609375 l 2,38,39
 275.099609375 712.099609375 275.099609375 712.099609375 278.599609375 712.599609375 c 128,-1,40
 282.099609375 713.099609375 282.099609375 713.099609375 284.099609375 711.099609375 c 0,41,42
 318.099609375 694.099609375 318.099609375 694.099609375 336.599609375 660.099609375 c 128,-1,43
 355.099609375 626.099609375 355.099609375 626.099609375 355.099609375 573.099609375 c 1,44,-1
 355.099609375 573.099609375 l 1,0,1
106.099609375 662.099609375 m 1,45,46
 83.099609375 662.099609375 83.099609375 662.099609375 68.599609375 643.599609375 c 128,-1,47
 54.099609375 625.099609375 54.099609375 625.099609375 54.099609375 593.099609375 c 0,48,49
 54.099609375 554.099609375 54.099609375 554.099609375 81.099609375 524.099609375 c 0,50,51
 91.099609375 513.099609375 91.099609375 513.099609375 102.099609375 506.599609375 c 128,-1,52
 113.099609375 500.099609375 113.099609375 500.099609375 124.099609375 500.099609375 c 2,53,-1
 169.099609375 500.099609375 l 2,54,55
 180.099609375 500.099609375 180.099609375 500.099609375 179.099609375 510.099609375 c 2,56,-1
 176.099609375 551.099609375 l 2,57,58
 172.099609375 605.099609375 172.099609375 605.099609375 154.099609375 633.599609375 c 128,-1,59
 136.099609375 662.099609375 136.099609375 662.099609375 106.099609375 662.099609375 c 1,60,-1
 106.099609375 662.099609375 l 1,45,46
EndSplineSet
EndChar

StartChar: ordmasculine
Encoding: 186 186 71
Width: 411
GlyphClass: 1
Flags: W
LayerCount: 2
Fore
SplineSet
377.5 579.5 m 1,0,1
 377.5 529.5 377.5 529.5 355.5 494 c 128,-1,2
 333.5 458.5 333.5 458.5 294.5 439 c 128,-1,3
 255.5 419.5 255.5 419.5 203.5 419.5 c 0,4,5
 154.5 419.5 154.5 419.5 116 438.5 c 128,-1,6
 77.5 457.5 77.5 457.5 55.5 493 c 128,-1,7
 33.5 528.5 33.5 528.5 33.5 579.5 c 0,8,9
 33.5 628.5 33.5 628.5 55.5 664.5 c 128,-1,10
 77.5 700.5 77.5 700.5 116 719.5 c 128,-1,11
 154.5 738.5 154.5 738.5 203.5 738.5 c 0,12,13
 255.5 738.5 255.5 738.5 294.5 718.5 c 128,-1,14
 333.5 698.5 333.5 698.5 355.5 662.5 c 128,-1,15
 377.5 626.5 377.5 626.5 377.5 579.5 c 1,16,-1
 377.5 579.5 l 1,0,1
330.5 579.5 m 1,17,18
 330.5 626.5 330.5 626.5 297 650 c 128,-1,19
 263.5 673.5 263.5 673.5 206.5 673.5 c 0,20,21
 146.5 673.5 146.5 673.5 113 650 c 128,-1,22
 79.5 626.5 79.5 626.5 79.5 579.5 c 0,23,24
 79.5 531.5 79.5 531.5 113 507.5 c 128,-1,25
 146.5 483.5 146.5 483.5 206.5 483.5 c 0,26,27
 263.5 483.5 263.5 483.5 297 507.5 c 128,-1,28
 330.5 531.5 330.5 531.5 330.5 579.5 c 1,29,-1
 330.5 579.5 l 1,17,18
EndSplineSet
EndChar

StartChar: dotlessi
Encoding: 305 305 75
Width: 239
GlyphClass: 2
Flags: W
AnchorPoint: "Anchor-3" -134 236 basechar 0
AnchorPoint: "Anchor-0" 384 264 basechar 0
LayerCount: 2
Fore
SplineSet
-129 223 m 2,0,1
 -139 223 -139 223 -142.5 226.5 c 128,-1,2
 -146 230 -146 230 -146 241 c 2,3,-1
 -146 292 l 2,4,5
 -146 301 -146 301 -143 304 c 128,-1,6
 -140 307 -140 307 -132 307 c 2,7,-1
 370 307 l 2,8,9
 384 307 384 307 384 295 c 2,10,-1
 384 234 l 2,11,12
 384 223 384 223 371 223 c 2,13,-1
 -129 223 l 2,0,1
EndSplineSet
EndChar

StartChar: uni0237
Encoding: 567 567 76
Width: 239
GlyphClass: 2
Flags: W
AnchorPoint: "Anchor-0" 409 119 basechar 0
LayerCount: 2
Fore
SplineSet
-150 77 m 1,0,1
 -221 77 -221 77 -256 107.5 c 128,-1,2
 -291 138 -291 138 -291 217 c 0,3,4
 -291 261 -291 261 -288.5 272 c 128,-1,5
 -286 283 -286 283 -278 283 c 2,6,-1
 -234 283 l 2,7,8
 -230 283 -230 283 -226.5 280.5 c 128,-1,9
 -223 278 -223 278 -223 273 c 2,10,-1
 -220 222 l 2,11,12
 -219 190 -219 190 -202.5 175.5 c 128,-1,13
 -186 161 -186 161 -144 161 c 2,14,-1
 395 161 l 2,15,16
 409 161 409 161 409 149 c 2,17,-1
 409 88 l 2,18,19
 409 77 409 77 396 77 c 2,20,-1
 -150 77 l 1,21,-1
 -150 77 l 1,0,1
EndSplineSet
EndChar

StartChar: AE
Encoding: 198 198 77
Width: 1008
GlyphClass: 2
Flags: W
AnchorPoint: "Anchor-0" 873.667 181.667 basechar 0
LayerCount: 2
Fore
SplineSet
205.666992188 -75.3330078125 m 1,0,1
 205.666992188 -87.3330078125 205.666992188 -87.3330078125 195.666992188 -87.3330078125 c 2,2,-1
 142.666992188 -87.3330078125 l 2,3,4
 137.666992188 -87.3330078125 137.666992188 -87.3330078125 134.666992188 -84.8330078125 c 128,-1,5
 131.666992188 -82.3330078125 131.666992188 -82.3330078125 131.666992188 -76.3330078125 c 2,6,-1
 131.666992188 360.666992188 l 2,7,8
 131.666992188 374.666992188 131.666992188 374.666992188 145.666992188 374.666992188 c 2,9,-1
 336.666992188 374.666992188 l 2,10,11
 343.666992188 374.666992188 343.666992188 374.666992188 343.666992188 382.666992188 c 2,12,-1
 343.666992188 621.666992188 l 2,13,14
 343.666992188 630.666992188 343.666992188 630.666992188 335.666992188 634.666992188 c 2,15,-1
 140.666992188 744.666992188 l 2,16,17
 136.666992188 746.666992188 136.666992188 746.666992188 134.166992188 750.166992188 c 128,-1,18
 131.666992188 753.666992188 131.666992188 753.666992188 131.666992188 760.666992188 c 2,19,-1
 131.666992188 820.666992188 l 2,20,21
 131.666992188 826.666992188 131.666992188 826.666992188 136.166992188 828.666992188 c 128,-1,22
 140.666992188 830.666992188 140.666992188 830.666992188 148.666992188 826.666992188 c 2,23,-1
 859.666992188 429.666992188 l 2,24,25
 866.666992188 425.666992188 866.666992188 425.666992188 870.166992188 421.166992188 c 128,-1,26
 873.666992188 416.666992188 873.666992188 416.666992188 873.666992188 407.666992188 c 2,27,-1
 873.666992188 -64.3330078125 l 2,28,29
 873.666992188 -74.3330078125 873.666992188 -74.3330078125 862.666992188 -74.3330078125 c 2,30,-1
 811.666992188 -74.3330078125 l 2,31,32
 799.666992188 -74.3330078125 799.666992188 -74.3330078125 799.666992188 -61.3330078125 c 2,33,-1
 799.666992188 266.666992188 l 2,34,35
 799.666992188 279.666992188 799.666992188 279.666992188 787.666992188 279.666992188 c 2,36,-1
 553.666992188 279.666992188 l 2,37,38
 542.666992188 279.666992188 542.666992188 279.666992188 542.666992188 267.666992188 c 2,39,-1
 542.666992188 23.6669921875 l 2,40,41
 542.666992188 12.6669921875 542.666992188 12.6669921875 531.666992188 12.6669921875 c 2,42,-1
 478.666992188 12.6669921875 l 2,43,44
 474.666992188 12.6669921875 474.666992188 12.6669921875 472.166992188 14.6669921875 c 128,-1,45
 469.666992188 16.6669921875 469.666992188 16.6669921875 469.666992188 23.6669921875 c 2,46,-1
 469.666992188 268.666992188 l 2,47,48
 469.666992188 279.666992188 469.666992188 279.666992188 458.666992188 279.666992188 c 2,49,-1
 215.666992188 279.666992188 l 2,50,51
 205.666992188 279.666992188 205.666992188 279.666992188 205.666992188 269.666992188 c 2,52,-1
 205.666992188 -75.3330078125 l 1,53,-1
 205.666992188 -75.3330078125 l 1,0,1
419.666992188 385.666992188 m 1,54,55
 419.666992188 374.666992188 419.666992188 374.666992188 431.666992188 374.666992188 c 2,56,-1
 770.666992188 374.666992188 l 2,57,58
 783.666992188 375.666992188 783.666992188 375.666992188 784.166992188 382.666992188 c 128,-1,59
 784.666992188 389.666992188 784.666992188 389.666992188 769.666992188 396.666992188 c 2,60,-1
 430.666992188 590.666992188 l 2,61,62
 419.666992188 597.666992188 419.666992188 597.666992188 419.666992188 586.666992188 c 2,63,-1
 419.666992188 385.666992188 l 1,64,-1
 419.666992188 385.666992188 l 1,54,55
EndSplineSet
EndChar

StartChar: ae
Encoding: 230 230 78
Width: 923
GlyphClass: 2
Flags: W
AnchorPoint: "Anchor-0" 724.5 273.5 basechar 0
LayerCount: 2
Fore
SplineSet
440.5 229.5 m 1,0,1
 440.5 241.5 440.5 241.5 436.5 245 c 128,-1,2
 432.5 248.5 432.5 248.5 418.5 248.5 c 0,3,4
 386.5 248.5 386.5 248.5 356 235 c 128,-1,5
 325.5 221.5 325.5 221.5 301 198 c 128,-1,6
 276.5 174.5 276.5 174.5 262.5 143 c 128,-1,7
 248.5 111.5 248.5 111.5 248.5 75.5 c 0,8,9
 248.5 32.5 248.5 32.5 260.5 4 c 128,-1,10
 272.5 -24.5 272.5 -24.5 291.5 -45.5 c 128,-1,11
 310.5 -66.5 310.5 -66.5 331.5 -82.5 c 0,12,13
 335.5 -86.5 335.5 -86.5 336 -88.5 c 128,-1,14
 336.5 -90.5 336.5 -90.5 334.5 -96.5 c 2,15,-1
 313.5 -137.5 l 2,16,17
 309.5 -145.5 309.5 -145.5 299.5 -138.5 c 0,18,19
 263.5 -116.5 263.5 -116.5 237.5 -83.5 c 128,-1,20
 211.5 -50.5 211.5 -50.5 198 -8.5 c 128,-1,21
 184.5 33.5 184.5 33.5 184.5 84.5 c 0,22,23
 184.5 139.5 184.5 139.5 202 179 c 128,-1,24
 219.5 218.5 219.5 218.5 245 245.5 c 128,-1,25
 270.5 272.5 270.5 272.5 292.5 289.5 c 0,26,27
 296.5 292.5 296.5 292.5 292.5 296.5 c 0,28,29
 267.5 317.5 267.5 317.5 242.5 346.5 c 128,-1,30
 217.5 375.5 217.5 375.5 201 417.5 c 128,-1,31
 184.5 459.5 184.5 459.5 184.5 519.5 c 0,32,33
 184.5 599.5 184.5 599.5 224.5 643.5 c 128,-1,34
 264.5 687.5 264.5 687.5 332.5 687.5 c 0,35,36
 408.5 687.5 408.5 687.5 454 625.5 c 128,-1,37
 499.5 563.5 499.5 563.5 508.5 435.5 c 2,38,-1
 515.5 347.5 l 2,39,40
 516.5 339.5 516.5 339.5 519.5 334.5 c 128,-1,41
 522.5 329.5 522.5 329.5 530.5 329.5 c 2,42,-1
 557.5 329.5 l 2,43,44
 611.5 329.5 611.5 329.5 643 362 c 128,-1,45
 674.5 394.5 674.5 394.5 674.5 457.5 c 0,46,47
 674.5 497.5 674.5 497.5 654.5 533 c 128,-1,48
 634.5 568.5 634.5 568.5 594.5 597.5 c 0,49,50
 588.5 601.5 588.5 601.5 587.5 604.5 c 128,-1,51
 586.5 607.5 586.5 607.5 588.5 613.5 c 2,52,-1
 606.5 665.5 l 2,53,54
 608.5 668.5 608.5 668.5 613 669 c 128,-1,55
 617.5 669.5 617.5 669.5 622.5 667.5 c 0,56,57
 658.5 645.5 658.5 645.5 683.5 615 c 128,-1,58
 708.5 584.5 708.5 584.5 721.5 543 c 128,-1,59
 734.5 501.5 734.5 501.5 734.5 450.5 c 0,60,61
 734.5 378.5 734.5 378.5 710 334.5 c 128,-1,62
 685.5 290.5 685.5 290.5 637.5 272.5 c 1,63,64
 685.5 241.5 685.5 241.5 710 193 c 128,-1,65
 734.5 144.5 734.5 144.5 734.5 82.5 c 0,66,67
 734.5 11.5 734.5 11.5 702.5 -43 c 128,-1,68
 670.5 -97.5 670.5 -97.5 610 -127.5 c 128,-1,69
 549.5 -157.5 549.5 -157.5 462.5 -157.5 c 0,70,71
 452.5 -157.5 452.5 -157.5 447 -154.5 c 128,-1,72
 441.5 -151.5 441.5 -151.5 441.5 -139.5 c 2,73,-1
 440.5 229.5 l 1,74,-1
 440.5 229.5 l 1,0,1
674.5 82.5 m 1,75,76
 674.5 128.5 674.5 128.5 653 165 c 128,-1,77
 631.5 201.5 631.5 201.5 591.5 223.5 c 128,-1,78
 551.5 245.5 551.5 245.5 497.5 246.5 c 1,79,-1
 496.5 -56.5 l 2,80,81
 496.5 -67.5 496.5 -67.5 499.5 -70.5 c 128,-1,82
 502.5 -73.5 502.5 -73.5 511.5 -73.5 c 0,83,84
 554.5 -73.5 554.5 -73.5 591.5 -53.5 c 128,-1,85
 628.5 -33.5 628.5 -33.5 651.5 1 c 128,-1,86
 674.5 35.5 674.5 35.5 674.5 82.5 c 1,87,-1
 674.5 82.5 l 1,75,76
446.5 329.5 m 1,88,89
 454.5 329.5 454.5 329.5 458 332.5 c 128,-1,90
 461.5 335.5 461.5 335.5 461.5 345.5 c 2,91,-1
 455.5 418.5 l 2,92,93
 451.5 477.5 451.5 477.5 436.5 518.5 c 128,-1,94
 421.5 559.5 421.5 559.5 397 581 c 128,-1,95
 372.5 602.5 372.5 602.5 337.5 602.5 c 0,96,97
 295.5 602.5 295.5 602.5 269.5 573 c 128,-1,98
 243.5 543.5 243.5 543.5 245.5 490.5 c 0,99,100
 247.5 445.5 247.5 445.5 264 409.5 c 128,-1,101
 280.5 373.5 280.5 373.5 307.5 351.5 c 128,-1,102
 334.5 329.5 334.5 329.5 366.5 329.5 c 2,103,-1
 446.5 329.5 l 1,104,-1
 446.5 329.5 l 1,88,89
EndSplineSet
EndChar

StartChar: OE
Encoding: 338 338 79
Width: 1124
GlyphClass: 1
Flags: W
LayerCount: 2
Fore
SplineSet
274 -124 m 1,0,1
 274 -135 274 -135 264 -135 c 2,2,-1
 211 -135 l 2,3,4
 206 -135 206 -135 203 -132.5 c 128,-1,5
 200 -130 200 -130 200 -124 c 2,6,-1
 200 333 l 2,7,8
 200 342 200 342 209 342 c 2,9,-1
 302 342 l 1,10,11
 244 375 244 375 217 433 c 128,-1,12
 190 491 190 491 190 567 c 0,13,14
 190 662 190 662 234 731.5 c 128,-1,15
 278 801 278 801 362 839 c 128,-1,16
 446 877 446 877 567 877 c 0,17,18
 690 877 690 877 776 838.5 c 128,-1,19
 862 800 862 800 907 729.5 c 128,-1,20
 952 659 952 659 952 563 c 0,21,22
 952 488 952 488 922.5 431 c 128,-1,23
 893 374 893 374 834 342 c 1,24,-1
 933 342 l 2,25,26
 942 342 942 342 942 332 c 2,27,-1
 942 -112 l 2,28,29
 942 -122 942 -122 931 -122 c 2,30,-1
 880 -122 l 2,31,32
 868 -122 868 -122 868 -109 c 2,33,-1
 868 233 l 2,34,35
 868 246 868 246 856 246 c 2,36,-1
 622 246 l 2,37,38
 611 246 611 246 611 235 c 2,39,-1
 611 -16 l 2,40,41
 611 -27 611 -27 600 -27 c 2,42,-1
 547 -27 l 2,43,44
 543 -27 543 -27 540.5 -25 c 128,-1,45
 538 -23 538 -23 538 -17 c 2,46,-1
 538 235 l 2,47,48
 538 246 538 246 527 246 c 2,49,-1
 284 246 l 2,50,51
 274 246 274 246 274 236 c 2,52,-1
 274 -124 l 1,53,-1
 274 -124 l 1,0,1
263 559 m 1,54,55
 263 450 263 450 332.5 396.5 c 128,-1,56
 402 343 402 343 537 343 c 2,57,-1
 621 343 l 2,58,59
 703 343 703 343 761 368 c 128,-1,60
 819 393 819 393 849 441 c 128,-1,61
 879 489 879 489 879 559 c 0,62,63
 879 667 879 667 802.5 722 c 128,-1,64
 726 777 726 777 568 777 c 0,65,66
 413 777 413 777 338 722 c 128,-1,67
 263 667 263 667 263 559 c 1,68,-1
 263 559 l 1,54,55
EndSplineSet
EndChar

StartChar: oe
Encoding: 339 339 80
Width: 997
GlyphClass: 1
Flags: W
LayerCount: 2
Fore
SplineSet
226.5 467.5 m 1,0,1
 226.5 542.5 226.5 542.5 261 600 c 128,-1,2
 295.5 657.5 295.5 657.5 356.5 689 c 128,-1,3
 417.5 720.5 417.5 720.5 498.5 720.5 c 0,4,5
 581.5 720.5 581.5 720.5 644 688 c 128,-1,6
 706.5 655.5 706.5 655.5 741.5 598.5 c 128,-1,7
 776.5 541.5 776.5 541.5 776.5 466.5 c 0,8,9
 776.5 399.5 776.5 399.5 746.5 347.5 c 128,-1,10
 716.5 295.5 716.5 295.5 662.5 265.5 c 0,11,12
 651.5 256.5 651.5 256.5 662.5 249.5 c 0,13,14
 715.5 219.5 715.5 219.5 746 168.5 c 128,-1,15
 776.5 117.5 776.5 117.5 776.5 52.5 c 0,16,17
 776.5 -22.5 776.5 -22.5 744 -76.5 c 128,-1,18
 711.5 -130.5 711.5 -130.5 650 -160.5 c 128,-1,19
 588.5 -190.5 588.5 -190.5 502.5 -190.5 c 0,20,21
 494.5 -190.5 494.5 -190.5 489 -187 c 128,-1,22
 483.5 -183.5 483.5 -183.5 483.5 -172.5 c 2,23,-1
 483.5 200.5 l 2,24,25
 483.5 215.5 483.5 215.5 465.5 215.5 c 0,26,27
 417.5 215.5 417.5 215.5 377.5 192 c 128,-1,28
 337.5 168.5 337.5 168.5 314.5 129 c 128,-1,29
 291.5 89.5 291.5 89.5 291.5 42.5 c 0,30,31
 291.5 -8.5 291.5 -8.5 311.5 -47 c 128,-1,32
 331.5 -85.5 331.5 -85.5 373.5 -114.5 c 0,33,34
 377.5 -117.5 377.5 -117.5 378 -120.5 c 128,-1,35
 378.5 -123.5 378.5 -123.5 376.5 -128.5 c 2,36,-1
 355.5 -170.5 l 2,37,38
 350.5 -179.5 350.5 -179.5 341.5 -171.5 c 0,39,40
 301.5 -145.5 301.5 -145.5 276 -113 c 128,-1,41
 250.5 -80.5 250.5 -80.5 238.5 -40 c 128,-1,42
 226.5 0.5 226.5 0.5 226.5 49.5 c 0,43,44
 226.5 115.5 226.5 115.5 255 167.5 c 128,-1,45
 283.5 219.5 283.5 219.5 334.5 250.5 c 0,46,47
 348.5 257.5 348.5 257.5 332.5 268.5 c 0,48,49
 282.5 299.5 282.5 299.5 254.5 350.5 c 128,-1,50
 226.5 401.5 226.5 401.5 226.5 467.5 c 1,51,-1
 226.5 467.5 l 1,0,1
289.5 465.5 m 1,52,53
 289.5 414.5 289.5 414.5 315 377.5 c 128,-1,54
 340.5 340.5 340.5 340.5 388 320.5 c 128,-1,55
 435.5 300.5 435.5 300.5 501.5 300.5 c 256,56,57
 567.5 300.5 567.5 300.5 615 320.5 c 128,-1,58
 662.5 340.5 662.5 340.5 688.5 378 c 128,-1,59
 714.5 415.5 714.5 415.5 714.5 466.5 c 256,60,61
 714.5 517.5 714.5 517.5 688.5 555 c 128,-1,62
 662.5 592.5 662.5 592.5 615 613.5 c 128,-1,63
 567.5 634.5 567.5 634.5 501.5 634.5 c 0,64,65
 436.5 634.5 436.5 634.5 389 613.5 c 128,-1,66
 341.5 592.5 341.5 592.5 315.5 555 c 128,-1,67
 289.5 517.5 289.5 517.5 289.5 465.5 c 1,68,-1
 289.5 465.5 l 1,52,53
716.5 49.5 m 1,69,70
 716.5 95.5 716.5 95.5 693.5 133 c 128,-1,71
 670.5 170.5 670.5 170.5 631 191.5 c 128,-1,72
 591.5 212.5 591.5 212.5 539.5 212.5 c 1,73,-1
 538.5 -89.5 l 2,74,75
 538.5 -100.5 538.5 -100.5 541 -103.5 c 128,-1,76
 543.5 -106.5 543.5 -106.5 552.5 -106.5 c 0,77,78
 595.5 -106.5 595.5 -106.5 632.5 -87.5 c 128,-1,79
 669.5 -68.5 669.5 -68.5 693 -33.5 c 128,-1,80
 716.5 1.5 716.5 1.5 716.5 49.5 c 1,81,-1
 716.5 49.5 l 1,69,70
EndSplineSet
EndChar

StartChar: eth
Encoding: 240 240 81
Width: 599
GlyphClass: 1
Flags: W
LayerCount: 2
Fore
SplineSet
189.958007812 118.041992188 m 1,0,1
 109.958007812 118.041992188 109.958007812 118.041992188 48.4580078125 148.541992188 c 128,-1,2
 -13.0419921875 179.041992188 -13.0419921875 179.041992188 -47.5419921875 236.541992188 c 128,-1,3
 -82.0419921875 294.041992188 -82.0419921875 294.041992188 -82.0419921875 372.041992188 c 0,4,5
 -82.0419921875 447.041992188 -82.0419921875 447.041992188 -48.0419921875 503.541992188 c 128,-1,6
 -14.0419921875 560.041992188 -14.0419921875 560.041992188 44.9580078125 592.041992188 c 128,-1,7
 103.958007812 624.041992188 103.958007812 624.041992188 179.958007812 624.041992188 c 0,8,9
 257.958007812 624.041992188 257.958007812 624.041992188 318.458007812 592.041992188 c 128,-1,10
 378.958007812 560.041992188 378.958007812 560.041992188 413.458007812 504.041992188 c 128,-1,11
 447.958007812 448.041992188 447.958007812 448.041992188 447.958007812 377.041992188 c 0,12,13
 447.958007812 338.041992188 447.958007812 338.041992188 434.958007812 306.041992188 c 128,-1,14
 421.958007812 274.041992188 421.958007812 274.041992188 398.958007812 251.041992188 c 1,15,16
 443.958007812 272.041992188 443.958007812 272.041992188 483.958007812 306.041992188 c 128,-1,17
 523.958007812 340.041992188 523.958007812 340.041992188 559.958007812 393.041992188 c 1,18,-1
 475.958007812 541.041992188 l 2,19,20
 470.958007812 550.041992188 470.958007812 550.041992188 481.958007812 557.041992188 c 2,21,-1
 498.958007812 568.041992188 l 2,22,23
 503.958007812 571.041992188 503.958007812 571.041992188 507.458007812 570.041992188 c 128,-1,24
 510.958007812 569.041992188 510.958007812 569.041992188 512.958007812 566.041992188 c 2,25,-1
 585.958007812 434.041992188 l 1,26,27
 598.958007812 458.041992188 598.958007812 458.041992188 611.458007812 483.541992188 c 128,-1,28
 623.958007812 509.041992188 623.958007812 509.041992188 634.958007812 539.041992188 c 0,29,30
 636.958007812 543.041992188 636.958007812 543.041992188 640.458007812 543.541992188 c 128,-1,31
 643.958007812 544.041992188 643.958007812 544.041992188 646.958007812 540.041992188 c 2,32,-1
 674.958007812 504.041992188 l 2,33,34
 677.958007812 499.041992188 677.958007812 499.041992188 678.958007812 496.041992188 c 128,-1,35
 679.958007812 493.041992188 679.958007812 493.041992188 676.958007812 485.041992188 c 0,36,37
 665.958007812 452.041992188 665.958007812 452.041992188 652.958007812 423.041992188 c 128,-1,38
 639.958007812 394.041992188 639.958007812 394.041992188 623.958007812 368.041992188 c 1,39,-1
 677.958007812 272.041992188 l 2,40,41
 682.958007812 265.041992188 682.958007812 265.041992188 675.958007812 260.041992188 c 2,42,-1
 649.958007812 246.041992188 l 2,43,44
 643.958007812 242.041992188 643.958007812 242.041992188 639.958007812 248.041992188 c 2,45,-1
 596.958007812 326.041992188 l 1,46,47
 521.958007812 215.041992188 521.958007812 215.041992188 417.958007812 166.541992188 c 128,-1,48
 313.958007812 118.041992188 313.958007812 118.041992188 189.958007812 118.041992188 c 1,49,-1
 189.958007812 118.041992188 l 1,0,1
-19.0419921875 369.041992188 m 1,50,51
 -19.0419921875 320.041992188 -19.0419921875 320.041992188 6.9580078125 283.041992188 c 128,-1,52
 32.9580078125 246.041992188 32.9580078125 246.041992188 78.4580078125 225.041992188 c 128,-1,53
 123.958007812 204.041992188 123.958007812 204.041992188 182.958007812 204.041992188 c 256,54,55
 241.958007812 204.041992188 241.958007812 204.041992188 287.958007812 225.541992188 c 128,-1,56
 333.958007812 247.041992188 333.958007812 247.041992188 359.958007812 284.041992188 c 128,-1,57
 385.958007812 321.041992188 385.958007812 321.041992188 385.958007812 370.041992188 c 0,58,59
 385.958007812 418.041992188 385.958007812 418.041992188 359.458007812 456.541992188 c 128,-1,60
 332.958007812 495.041992188 332.958007812 495.041992188 286.958007812 516.541992188 c 128,-1,61
 240.958007812 538.041992188 240.958007812 538.041992188 182.958007812 538.041992188 c 0,62,63
 123.958007812 538.041992188 123.958007812 538.041992188 78.4580078125 516.541992188 c 128,-1,64
 32.9580078125 495.041992188 32.9580078125 495.041992188 6.9580078125 456.541992188 c 128,-1,65
 -19.0419921875 418.041992188 -19.0419921875 418.041992188 -19.0419921875 369.041992188 c 1,66,-1
 -19.0419921875 369.041992188 l 1,50,51
EndSplineSet
EndChar

StartChar: Thorn
Encoding: 222 222 82
Width: 693
GlyphClass: 1
Flags: W
LayerCount: 2
Fore
SplineSet
382.5 99.5 m 1,0,1
 308.5 99.5 308.5 99.5 261 134 c 128,-1,2
 213.5 168.5 213.5 168.5 191 227.5 c 128,-1,3
 168.5 286.5 168.5 286.5 168.5 363.5 c 2,4,-1
 168.5 537.5 l 2,5,6
 168.5 546.5 168.5 546.5 158.5 546.5 c 2,7,-1
 12.5 546.5 l 2,8,9
 -2.5 546.5 -2.5 546.5 -2.5 561.5 c 2,10,-1
 -2.5 629.5 l 2,11,12
 -2.5 636.5 -2.5 636.5 0.5 639.5 c 128,-1,13
 3.5 642.5 3.5 642.5 10.5 642.5 c 2,14,-1
 725.5 642.5 l 2,15,16
 739.5 642.5 739.5 642.5 739.5 630.5 c 2,17,-1
 739.5 558.5 l 2,18,19
 739.5 546.5 739.5 546.5 726.5 546.5 c 2,20,-1
 591.5 546.5 l 2,21,22
 584.5 546.5 584.5 546.5 584.5 539.5 c 2,23,-1
 584.5 375.5 l 2,24,25
 584.5 296.5 584.5 296.5 563 234 c 128,-1,26
 541.5 171.5 541.5 171.5 497 135.5 c 128,-1,27
 452.5 99.5 452.5 99.5 382.5 99.5 c 1,28,-1
 382.5 99.5 l 1,0,1
383.5 198.5 m 1,29,30
 452.5 198.5 452.5 198.5 482 247.5 c 128,-1,31
 511.5 296.5 511.5 296.5 511.5 379.5 c 2,32,-1
 511.5 533.5 l 2,33,34
 511.5 546.5 511.5 546.5 499.5 546.5 c 2,35,-1
 254.5 546.5 l 2,36,37
 241.5 546.5 241.5 546.5 241.5 537.5 c 2,38,-1
 241.5 373.5 l 2,39,40
 241.5 293.5 241.5 293.5 275.5 246 c 128,-1,41
 309.5 198.5 309.5 198.5 383.5 198.5 c 1,42,-1
 383.5 198.5 l 1,29,30
EndSplineSet
EndChar

StartChar: thorn
Encoding: 254 254 83
Width: 595
GlyphClass: 1
Flags: W
LayerCount: 2
Fore
SplineSet
766.5 455.5 m 1,0,1
 766.5 441.5 766.5 441.5 751.5 441.5 c 2,2,-1
 497.5 441.5 l 2,3,4
 489.5 441.5 489.5 441.5 489 438 c 128,-1,5
 488.5 434.5 488.5 434.5 493.5 428.5 c 0,6,7
 505.5 417.5 505.5 417.5 522 398.5 c 128,-1,8
 538.5 379.5 538.5 379.5 551.5 349 c 128,-1,9
 564.5 318.5 564.5 318.5 564.5 271.5 c 0,10,11
 564.5 210.5 564.5 210.5 535 161 c 128,-1,12
 505.5 111.5 505.5 111.5 446.5 82 c 128,-1,13
 387.5 52.5 387.5 52.5 297.5 52.5 c 256,14,15
 207.5 52.5 207.5 52.5 144.5 81.5 c 128,-1,16
 81.5 110.5 81.5 110.5 48 162 c 128,-1,17
 14.5 213.5 14.5 213.5 14.5 282.5 c 0,18,19
 14.5 328.5 14.5 328.5 29 364 c 128,-1,20
 43.5 399.5 43.5 399.5 64.5 424.5 c 0,21,22
 72.5 433.5 72.5 433.5 71 437 c 128,-1,23
 69.5 440.5 69.5 440.5 58.5 440.5 c 2,24,-1
 -127.5 440.5 l 2,25,26
 -140.5 440.5 -140.5 440.5 -140.5 451.5 c 2,27,-1
 -140.5 513.5 l 2,28,29
 -140.5 524.5 -140.5 524.5 -127.5 524.5 c 2,30,-1
 750.5 524.5 l 2,31,32
 759.5 524.5 759.5 524.5 763 521 c 128,-1,33
 766.5 517.5 766.5 517.5 766.5 508.5 c 2,34,-1
 766.5 455.5 l 1,35,-1
 766.5 455.5 l 1,0,1
141.5 440.5 m 1,36,37
 111.5 409.5 111.5 409.5 93.5 377 c 128,-1,38
 75.5 344.5 75.5 344.5 75.5 304.5 c 0,39,40
 75.5 256.5 75.5 256.5 100.5 219 c 128,-1,41
 125.5 181.5 125.5 181.5 174.5 160 c 128,-1,42
 223.5 138.5 223.5 138.5 296.5 138.5 c 256,43,44
 369.5 138.5 369.5 138.5 415.5 160.5 c 128,-1,45
 461.5 182.5 461.5 182.5 482.5 219 c 128,-1,46
 503.5 255.5 503.5 255.5 503.5 299.5 c 0,47,48
 503.5 340.5 503.5 340.5 485.5 372.5 c 128,-1,49
 467.5 404.5 467.5 404.5 441 422.5 c 128,-1,50
 414.5 440.5 414.5 440.5 388.5 440.5 c 2,51,-1
 141.5 440.5 l 1,52,-1
 141.5 440.5 l 1,36,37
EndSplineSet
EndChar

StartChar: kgreenlandic
Encoding: 312 312 84
Width: 564
GlyphClass: 1
Flags: W
LayerCount: 2
Fore
SplineSet
58.8330078125 37.8330078125 m 1,0,1
 52.8330078125 33.8330078125 52.8330078125 33.8330078125 47.8330078125 35.8330078125 c 128,-1,2
 42.8330078125 37.8330078125 42.8330078125 37.8330078125 42.8330078125 46.8330078125 c 2,3,-1
 42.8330078125 116.833007812 l 2,4,5
 42.8330078125 122.833007812 42.8330078125 122.833007812 45.8330078125 127.333007812 c 128,-1,6
 48.8330078125 131.833007812 48.8330078125 131.833007812 54.8330078125 134.833007812 c 2,7,-1
 313.833007812 285.833007812 l 2,8,9
 317.833007812 287.833007812 317.833007812 287.833007812 319.333007812 290.333007812 c 128,-1,10
 320.833007812 292.833007812 320.833007812 292.833007812 315.833007812 297.833007812 c 2,11,-1
 208.833007812 403.833007812 l 2,12,13
 204.833007812 407.833007812 204.833007812 407.833007812 200.333007812 409.333007812 c 128,-1,14
 195.833007812 410.833007812 195.833007812 410.833007812 188.833007812 410.833007812 c 2,15,-1
 59.8330078125 410.833007812 l 2,16,17
 49.8330078125 410.833007812 49.8330078125 410.833007812 46.3330078125 414.333007812 c 128,-1,18
 42.8330078125 417.833007812 42.8330078125 417.833007812 42.8330078125 428.833007812 c 2,19,-1
 42.8330078125 479.833007812 l 2,20,21
 42.8330078125 489.833007812 42.8330078125 489.833007812 45.8330078125 492.333007812 c 128,-1,22
 48.8330078125 494.833007812 48.8330078125 494.833007812 56.8330078125 494.833007812 c 2,23,-1
 558.833007812 494.833007812 l 2,24,25
 572.833007812 494.833007812 572.833007812 494.833007812 572.833007812 483.833007812 c 2,26,-1
 572.833007812 422.833007812 l 2,27,28
 572.833007812 410.833007812 572.833007812 410.833007812 559.833007812 410.833007812 c 2,29,-1
 307.833007812 410.833007812 l 2,30,31
 299.833007812 410.833007812 299.833007812 410.833007812 298.333007812 408.833007812 c 128,-1,32
 296.833007812 406.833007812 296.833007812 406.833007812 303.833007812 400.833007812 c 2,33,-1
 560.833007812 153.833007812 l 2,34,35
 572.833007812 142.833007812 572.833007812 142.833007812 572.833007812 132.833007812 c 2,36,-1
 572.833007812 71.8330078125 l 2,37,38
 572.833007812 61.8330078125 572.833007812 61.8330078125 567.333007812 60.3330078125 c 128,-1,39
 561.833007812 58.8330078125 561.833007812 58.8330078125 553.833007812 66.8330078125 c 2,40,-1
 392.833007812 224.833007812 l 2,41,42
 389.833007812 227.833007812 389.833007812 227.833007812 385.833007812 228.333007812 c 128,-1,43
 381.833007812 228.833007812 381.833007812 228.833007812 375.833007812 225.833007812 c 2,44,-1
 58.8330078125 37.8330078125 l 1,45,-1
 58.8330078125 37.8330078125 l 1,0,1
EndSplineSet
EndChar

StartChar: germandbls
Encoding: 223 223 85
Width: 608
GlyphClass: 1
Flags: W
LayerCount: 2
Fore
SplineSet
669 339 m 1,0,1
 669 276 669 276 649 237.5 c 128,-1,2
 629 199 629 199 597 181.5 c 128,-1,3
 565 164 565 164 528 164 c 0,4,5
 490 164 490 164 465 180 c 128,-1,6
 440 196 440 196 423 223.5 c 128,-1,7
 406 251 406 251 390 285 c 0,8,9
 371 319 371 319 360.5 332.5 c 128,-1,10
 350 346 350 346 331 346 c 256,11,12
 312 346 312 346 303.5 333.5 c 128,-1,13
 295 321 295 321 284 287 c 0,14,15
 274 258 274 258 260 225 c 128,-1,16
 246 192 246 192 225.5 163 c 128,-1,17
 205 134 205 134 172 115.5 c 128,-1,18
 139 97 139 97 91 97 c 0,19,20
 34 97 34 97 -5 123.5 c 128,-1,21
 -44 150 -44 150 -63.5 195 c 128,-1,22
 -83 240 -83 240 -83 296 c 0,23,24
 -83 331 -83 331 -75 366.5 c 128,-1,25
 -67 402 -67 402 -53 427 c 0,26,27
 -48 436 -48 436 -39 432 c 2,28,-1
 3 409 l 2,29,30
 9 405 9 405 4 396 c 0,31,32
 -7 376 -7 376 -14.5 354.5 c 128,-1,33
 -22 333 -22 333 -22 303 c 0,34,35
 -22 245 -22 245 5.5 210.5 c 128,-1,36
 33 176 33 176 83 176 c 0,37,38
 120 176 120 176 142.5 194 c 128,-1,39
 165 212 165 212 178.5 241.5 c 128,-1,40
 192 271 192 271 203 306 c 0,41,42
 213 332 213 332 225.5 357.5 c 128,-1,43
 238 383 238 383 259.5 399 c 128,-1,44
 281 415 281 415 316 415 c 0,45,46
 355 415 355 415 379.5 393 c 128,-1,47
 404 371 404 371 429 327 c 0,48,49
 441 307 441 307 453.5 288 c 128,-1,50
 466 269 466 269 483.5 256.5 c 128,-1,51
 501 244 501 244 527 244 c 0,52,53
 564 244 564 244 585.5 270.5 c 128,-1,54
 607 297 607 297 607 347 c 0,55,56
 607 407 607 407 570.5 444 c 128,-1,57
 534 481 534 481 462 481 c 2,58,-1
 -60 481 l 2,59,60
 -73 479 -73 479 -73 491 c 2,61,-1
 -73 554 l 2,62,63
 -73 564 -73 564 -62 564 c 2,64,-1
 375 564 l 2,65,66
 385 564 385 564 385 572 c 2,67,-1
 385 624 l 2,68,69
 385 635 385 635 395 635 c 2,70,-1
 437 635 l 2,71,72
 441 635 441 635 444.5 632.5 c 128,-1,73
 448 630 448 630 448 624 c 2,74,-1
 448 573 l 2,75,76
 448 567 448 567 451 566 c 128,-1,77
 454 565 454 565 458 565 c 0,78,79
 505 564 505 564 543.5 549.5 c 128,-1,80
 582 535 582 535 610 506.5 c 128,-1,81
 638 478 638 478 653.5 435.5 c 128,-1,82
 669 393 669 393 669 339 c 1,83,-1
 669 339 l 1,0,1
EndSplineSet
EndChar

StartChar: uni018F
Encoding: 399 399 86
Width: 763
GlyphClass: 1
Flags: W
LayerCount: 2
Fore
SplineSet
413.5 158.5 m 1,0,1
 443.5 158.5 443.5 158.5 480 163 c 128,-1,2
 516.5 167.5 516.5 167.5 552.5 180 c 128,-1,3
 588.5 192.5 588.5 192.5 618 216 c 128,-1,4
 647.5 239.5 647.5 239.5 665.5 277.5 c 128,-1,5
 683.5 315.5 683.5 315.5 683.5 370.5 c 0,6,7
 683.5 421.5 683.5 421.5 669 456 c 128,-1,8
 654.5 490.5 654.5 490.5 632 513 c 128,-1,9
 609.5 535.5 609.5 535.5 584.5 549 c 128,-1,10
 559.5 562.5 559.5 562.5 537 570.5 c 128,-1,11
 514.5 578.5 514.5 578.5 501.5 585.5 c 0,12,13
 499.5 586.5 499.5 586.5 499.5 589.5 c 128,-1,14
 499.5 592.5 499.5 592.5 501.5 597.5 c 2,15,-1
 529.5 663.5 l 2,16,17
 532.5 670.5 532.5 670.5 544.5 665.5 c 0,18,19
 563.5 656.5 563.5 656.5 591 643.5 c 128,-1,20
 618.5 630.5 618.5 630.5 648 609 c 128,-1,21
 677.5 587.5 677.5 587.5 703.5 555.5 c 128,-1,22
 729.5 523.5 729.5 523.5 746 478 c 128,-1,23
 762.5 432.5 762.5 432.5 762.5 371.5 c 0,24,25
 762.5 298.5 762.5 298.5 740.5 245 c 128,-1,26
 718.5 191.5 718.5 191.5 680 155 c 128,-1,27
 641.5 118.5 641.5 118.5 592.5 96.5 c 128,-1,28
 543.5 74.5 543.5 74.5 489 64.5 c 128,-1,29
 434.5 54.5 434.5 54.5 380.5 54.5 c 0,30,31
 306.5 54.5 306.5 54.5 238.5 73.5 c 128,-1,32
 170.5 92.5 170.5 92.5 117 131 c 128,-1,33
 63.5 169.5 63.5 169.5 32 229.5 c 128,-1,34
 0.5 289.5 0.5 289.5 0.5 371.5 c 0,35,36
 0.5 459.5 0.5 459.5 30.5 520 c 128,-1,37
 60.5 580.5 60.5 580.5 113.5 617.5 c 128,-1,38
 166.5 654.5 166.5 654.5 236.5 671 c 128,-1,39
 306.5 687.5 306.5 687.5 385.5 687.5 c 0,40,41
 394.5 687.5 394.5 687.5 398.5 686 c 128,-1,42
 402.5 684.5 402.5 684.5 402.5 675.5 c 2,43,-1
 402.5 168.5 l 2,44,45
 402.5 158.5 402.5 158.5 413.5 158.5 c 1,46,-1
 413.5 158.5 l 1,0,1
333.5 571.5 m 2,47,48
 333.5 577.5 333.5 577.5 331.5 580 c 128,-1,49
 329.5 582.5 329.5 582.5 324.5 582.5 c 0,50,51
 280.5 582.5 280.5 582.5 236 572.5 c 128,-1,52
 191.5 562.5 191.5 562.5 155 538.5 c 128,-1,53
 118.5 514.5 118.5 514.5 96.5 473.5 c 128,-1,54
 74.5 432.5 74.5 432.5 74.5 372.5 c 0,55,56
 74.5 310.5 74.5 310.5 96 270 c 128,-1,57
 117.5 229.5 117.5 229.5 154.5 206 c 128,-1,58
 191.5 182.5 191.5 182.5 238 171.5 c 128,-1,59
 284.5 160.5 284.5 160.5 333.5 159.5 c 1,60,-1
 333.5 571.5 l 2,47,48
EndSplineSet
EndChar

StartChar: uni0259
Encoding: 601 601 87
Width: 581
GlyphClass: 1
Flags: W
LayerCount: 2
Fore
SplineSet
320.5 105.5 m 1,0,1
 370.5 105.5 370.5 105.5 410.5 128.5 c 128,-1,2
 450.5 151.5 450.5 151.5 474.5 191 c 128,-1,3
 498.5 230.5 498.5 230.5 498.5 279.5 c 0,4,5
 498.5 329.5 498.5 329.5 478 368.5 c 128,-1,6
 457.5 407.5 457.5 407.5 415.5 436.5 c 0,7,8
 411.5 439.5 411.5 439.5 411 442.5 c 128,-1,9
 410.5 445.5 410.5 445.5 412.5 450.5 c 2,10,-1
 433.5 491.5 l 2,11,12
 438.5 501.5 438.5 501.5 447.5 493.5 c 0,13,14
 488.5 467.5 488.5 467.5 513.5 434.5 c 128,-1,15
 538.5 401.5 538.5 401.5 550.5 361.5 c 128,-1,16
 562.5 321.5 562.5 321.5 562.5 272.5 c 0,17,18
 562.5 197.5 562.5 197.5 528.5 140 c 128,-1,19
 494.5 82.5 494.5 82.5 434 50.5 c 128,-1,20
 373.5 18.5 373.5 18.5 292.5 18.5 c 0,21,22
 206.5 18.5 206.5 18.5 143.5 52 c 128,-1,23
 80.5 85.5 80.5 85.5 46.5 142.5 c 128,-1,24
 12.5 199.5 12.5 199.5 12.5 270.5 c 0,25,26
 12.5 343.5 12.5 343.5 44.5 397.5 c 128,-1,27
 76.5 451.5 76.5 451.5 137.5 481.5 c 128,-1,28
 198.5 511.5 198.5 511.5 284.5 511.5 c 0,29,30
 291.5 511.5 291.5 511.5 298.5 510 c 128,-1,31
 305.5 508.5 305.5 508.5 305.5 497.5 c 2,32,-1
 305.5 113.5 l 2,33,34
 305.5 109.5 305.5 109.5 310 107.5 c 128,-1,35
 314.5 105.5 314.5 105.5 320.5 105.5 c 1,36,-1
 320.5 105.5 l 1,0,1
250.5 410.5 m 2,37,38
 250.5 420.5 250.5 420.5 248 424 c 128,-1,39
 245.5 427.5 245.5 427.5 236.5 427.5 c 0,40,41
 193.5 427.5 193.5 427.5 156 409 c 128,-1,42
 118.5 390.5 118.5 390.5 95.5 356 c 128,-1,43
 72.5 321.5 72.5 321.5 72.5 272.5 c 0,44,45
 72.5 219.5 72.5 219.5 98 182 c 128,-1,46
 123.5 144.5 123.5 144.5 164.5 125 c 128,-1,47
 205.5 105.5 205.5 105.5 250.5 106.5 c 1,48,-1
 250.5 410.5 l 2,37,38
EndSplineSet
EndChar

StartChar: uni00B5
Encoding: 181 181 88
Width: 579
GlyphClass: 1
Flags: W
LayerCount: 2
Fore
SplineSet
160 212 m 1,0,1
 160 170 160 170 183.5 130 c 128,-1,2
 207 90 207 90 247 51 c 1,3,-1
 619 51 l 2,4,5
 634 51 634 51 634 35 c 2,6,-1
 634 -20 l 2,7,8
 634 -34 634 -34 620 -34 c 2,9,-1
 117 -32 l 2,10,11
 104 -32 104 -32 104 -21 c 2,12,-1
 104 37 l 2,13,14
 104 48 104 48 115 48 c 2,15,-1
 175 48 l 2,16,17
 180 48 180 48 181 50 c 128,-1,18
 182 52 182 52 178 57 c 0,19,20
 136 107 136 107 117.5 143 c 128,-1,21
 99 179 99 179 97 219 c 0,22,23
 96 248 96 248 102 272 c 128,-1,24
 108 296 108 296 125 315 c 1,25,-1
 -44 315 l 2,26,27
 -54 315 -54 315 -57.5 318.5 c 128,-1,28
 -61 322 -61 322 -61 333 c 2,29,-1
 -61 384 l 2,30,31
 -61 399 -61 399 -47 399 c 2,32,-1
 618 399 l 2,33,34
 634 399 634 399 634 384 c 2,35,-1
 634 328 l 2,36,37
 634 315 634 315 620 315 c 2,38,-1
 253 315 l 2,39,40
 227 315 227 315 206 301 c 128,-1,41
 185 287 185 287 172.5 263.5 c 128,-1,42
 160 240 160 240 160 212 c 1,43,-1
 160 212 l 1,0,1
EndSplineSet
EndChar

StartChar: dollar
Encoding: 36 36 91
Width: 605
GlyphClass: 1
Flags: W
LayerCount: 2
Fore
SplineSet
120.227539062 98.2275390625 m 1,0,1
 67.2275390625 98.2275390625 67.2275390625 98.2275390625 24.7275390625 124.727539062 c 128,-1,2
 -17.7724609375 151.227539062 -17.7724609375 151.227539062 -43.2724609375 198.227539062 c 128,-1,3
 -68.7724609375 245.227539062 -68.7724609375 245.227539062 -71.7724609375 308.227539062 c 0,4,5
 -71.7724609375 315.227539062 -71.7724609375 315.227539062 -73.7724609375 317.727539062 c 128,-1,6
 -75.7724609375 320.227539062 -75.7724609375 320.227539062 -81.7724609375 320.227539062 c 2,7,-1
 -137.772460938 320.227539062 l 2,8,9
 -150.772460938 320.227539062 -150.772460938 320.227539062 -150.772460938 334.227539062 c 2,10,-1
 -150.772460938 369.227539062 l 2,11,12
 -150.772460938 382.227539062 -150.772460938 382.227539062 -140.772460938 382.227539062 c 2,13,-1
 -80.7724609375 382.227539062 l 2,14,15
 -74.7724609375 382.227539062 -74.7724609375 382.227539062 -73.2724609375 383.727539062 c 128,-1,16
 -71.7724609375 385.227539062 -71.7724609375 385.227539062 -71.7724609375 391.227539062 c 0,17,18
 -69.7724609375 474.227539062 -69.7724609375 474.227539062 -41.7724609375 528.727539062 c 128,-1,19
 -13.7724609375 583.227539062 -13.7724609375 583.227539062 39.2275390625 624.227539062 c 0,20,21
 52.2275390625 636.227539062 52.2275390625 636.227539062 61.2275390625 626.227539062 c 2,22,-1
 92.2275390625 593.227539062 l 2,23,24
 97.2275390625 588.227539062 97.2275390625 588.227539062 97.2275390625 582.227539062 c 128,-1,25
 97.2275390625 576.227539062 97.2275390625 576.227539062 92.2275390625 572.227539062 c 0,26,27
 49.2275390625 538.227539062 49.2275390625 538.227539062 24.7275390625 496.227539062 c 128,-1,28
 0.2275390625 454.227539062 0.2275390625 454.227539062 -1.7724609375 391.227539062 c 0,29,30
 -2.7724609375 381.227539062 -2.7724609375 381.227539062 6.2275390625 381.227539062 c 2,31,-1
 251.227539062 381.227539062 l 2,32,33
 259.227539062 381.227539062 259.227539062 381.227539062 265.227539062 386.227539062 c 128,-1,34
 271.227539062 391.227539062 271.227539062 391.227539062 275.227539062 401.227539062 c 0,35,36
 303.227539062 477.227539062 303.227539062 477.227539062 332.227539062 522.227539062 c 128,-1,37
 361.227539062 567.227539062 361.227539062 567.227539062 398.227539062 586.727539062 c 128,-1,38
 435.227539062 606.227539062 435.227539062 606.227539062 483.227539062 606.227539062 c 0,39,40
 537.227539062 606.227539062 537.227539062 606.227539062 579.227539062 579.727539062 c 128,-1,41
 621.227539062 553.227539062 621.227539062 553.227539062 648.727539062 505.727539062 c 128,-1,42
 676.227539062 458.227539062 676.227539062 458.227539062 683.227539062 394.227539062 c 0,43,44
 684.227539062 389.227539062 684.227539062 389.227539062 686.727539062 385.727539062 c 128,-1,45
 689.227539062 382.227539062 689.227539062 382.227539062 694.227539062 382.227539062 c 2,46,-1
 743.227539062 382.227539062 l 2,47,48
 747.227539062 382.227539062 747.227539062 382.227539062 749.727539062 379.727539062 c 128,-1,49
 752.227539062 377.227539062 752.227539062 377.227539062 752.227539062 373.227539062 c 2,50,-1
 752.227539062 333.227539062 l 2,51,52
 752.227539062 326.227539062 752.227539062 326.227539062 749.227539062 323.727539062 c 128,-1,53
 746.227539062 321.227539062 746.227539062 321.227539062 739.227539062 321.227539062 c 2,54,-1
 691.227539062 321.227539062 l 2,55,56
 684.227539062 321.227539062 684.227539062 321.227539062 683.227539062 311.227539062 c 0,57,58
 675.227539062 253.227539062 675.227539062 253.227539062 653.227539062 208.727539062 c 128,-1,59
 631.227539062 164.227539062 631.227539062 164.227539062 595.227539062 127.227539062 c 0,60,61
 587.227539062 116.227539062 587.227539062 116.227539062 577.227539062 126.227539062 c 2,62,-1
 541.227539062 161.227539062 l 2,63,64
 536.227539062 166.227539062 536.227539062 166.227539062 536.727539062 169.727539062 c 128,-1,65
 537.227539062 173.227539062 537.227539062 173.227539062 544.227539062 180.227539062 c 0,66,67
 569.227539062 201.227539062 569.227539062 201.227539062 587.227539062 235.227539062 c 128,-1,68
 605.227539062 269.227539062 605.227539062 269.227539062 612.227539062 311.227539062 c 0,69,70
 613.227539062 316.227539062 613.227539062 316.227539062 611.227539062 318.727539062 c 128,-1,71
 609.227539062 321.227539062 609.227539062 321.227539062 604.227539062 321.227539062 c 2,72,-1
 353.227539062 321.227539062 l 2,73,74
 343.227539062 321.227539062 343.227539062 321.227539062 339.227539062 309.227539062 c 2,75,-1
 326.227539062 271.227539062 l 2,76,77
 305.227539062 216.227539062 305.227539062 216.227539062 275.727539062 177.227539062 c 128,-1,78
 246.227539062 138.227539062 246.227539062 138.227539062 207.727539062 118.227539062 c 128,-1,79
 169.227539062 98.2275390625 169.227539062 98.2275390625 120.227539062 98.2275390625 c 1,80,-1
 120.227539062 98.2275390625 l 1,0,1
605.227539062 382.227539062 m 2,81,82
 617.227539062 382.227539062 617.227539062 382.227539062 614.227539062 393.227539062 c 0,83,84
 607.227539062 454.227539062 607.227539062 454.227539062 573.227539062 490.227539062 c 128,-1,85
 539.227539062 526.227539062 539.227539062 526.227539062 489.227539062 526.227539062 c 0,86,87
 464.227539062 526.227539062 464.227539062 526.227539062 442.727539062 514.727539062 c 128,-1,88
 421.227539062 503.227539062 421.227539062 503.227539062 402.227539062 476.227539062 c 128,-1,89
 383.227539062 449.227539062 383.227539062 449.227539062 363.227539062 402.227539062 c 0,90,91
 360.227539062 393.227539062 360.227539062 393.227539062 363.227539062 387.727539062 c 128,-1,92
 366.227539062 382.227539062 366.227539062 382.227539062 377.227539062 382.227539062 c 2,93,-1
 605.227539062 382.227539062 l 2,81,82
4.2275390625 320.227539062 m 1,94,95
 -2.7724609375 320.227539062 -2.7724609375 320.227539062 -1.7724609375 311.227539062 c 0,96,97
 0.2275390625 250.227539062 0.2275390625 250.227539062 32.7275390625 214.227539062 c 128,-1,98
 65.2275390625 178.227539062 65.2275390625 178.227539062 114.227539062 178.227539062 c 0,99,100
 160.227539062 178.227539062 160.227539062 178.227539062 190.727539062 208.227539062 c 128,-1,101
 221.227539062 238.227539062 221.227539062 238.227539062 247.227539062 305.227539062 c 0,102,103
 249.227539062 312.227539062 249.227539062 312.227539062 247.727539062 316.227539062 c 128,-1,104
 246.227539062 320.227539062 246.227539062 320.227539062 238.227539062 320.227539062 c 2,105,-1
 4.2275390625 320.227539062 l 1,106,-1
 4.2275390625 320.227539062 l 1,94,95
EndSplineSet
EndChar

StartChar: cent
Encoding: 162 162 92
Width: 558
GlyphClass: 2
Flags: W
AnchorPoint: "Anchor-2" 18.9502 352.95 basechar 0
AnchorPoint: "Anchor-0" 548.95 353.95 basechar 0
LayerCount: 2
Fore
SplineSet
-75.0498046875 326.950195312 m 1,0,1
 -92.0498046875 326.950195312 -92.0498046875 326.950195312 -92.0498046875 344.950195312 c 2,2,-1
 -92.0498046875 374.950195312 l 2,3,4
 -92.0498046875 391.950195312 -92.0498046875 391.950195312 -76.0498046875 391.950195312 c 2,5,-1
 34.9501953125 391.950195312 l 2,6,7
 49.9501953125 391.950195312 49.9501953125 391.950195312 49.9501953125 375.950195312 c 2,8,-1
 49.9501953125 340.950195312 l 2,9,10
 49.9501953125 326.950195312 49.9501953125 326.950195312 36.9501953125 326.950195312 c 2,11,-1
 -75.0498046875 326.950195312 l 1,12,-1
 -75.0498046875 326.950195312 l 1,0,1
525.950195312 326.950195312 m 1,13,14
 507.950195312 326.950195312 507.950195312 326.950195312 507.950195312 344.950195312 c 2,15,-1
 507.950195312 374.950195312 l 2,16,17
 507.950195312 391.950195312 507.950195312 391.950195312 523.950195312 391.950195312 c 2,18,-1
 634.950195312 391.950195312 l 2,19,20
 649.950195312 391.950195312 649.950195312 391.950195312 649.950195312 375.950195312 c 2,21,-1
 649.950195312 340.950195312 l 2,22,23
 649.950195312 326.950195312 649.950195312 326.950195312 636.950195312 326.950195312 c 2,24,-1
 525.950195312 326.950195312 l 1,25,-1
 525.950195312 326.950195312 l 1,13,14
558.950195312 352.950195312 m 1,26,27
 558.950195312 300.950195312 558.950195312 300.950195312 542.450195312 261.450195312 c 128,-1,28
 525.950195312 221.950195312 525.950195312 221.950195312 497.450195312 193.450195312 c 128,-1,29
 468.950195312 164.950195312 468.950195312 164.950195312 434.950195312 145.950195312 c 0,30,31
 422.950195312 139.950195312 422.950195312 139.950195312 419.950195312 150.950195312 c 2,32,-1
 406.950195312 205.950195312 l 2,33,34
 403.950195312 212.950195312 403.950195312 212.950195312 412.950195312 218.950195312 c 0,35,36
 441.950195312 238.950195312 441.950195312 238.950195312 459.950195312 258.450195312 c 128,-1,37
 477.950195312 277.950195312 477.950195312 277.950195312 487.450195312 299.950195312 c 128,-1,38
 496.950195312 321.950195312 496.950195312 321.950195312 496.950195312 347.950195312 c 0,39,40
 496.950195312 398.950195312 496.950195312 398.950195312 471.450195312 437.450195312 c 128,-1,41
 445.950195312 475.950195312 445.950195312 475.950195312 397.950195312 496.950195312 c 128,-1,42
 349.950195312 517.950195312 349.950195312 517.950195312 283.950195312 517.950195312 c 0,43,44
 216.950195312 517.950195312 216.950195312 517.950195312 168.950195312 496.450195312 c 128,-1,45
 120.950195312 474.950195312 120.950195312 474.950195312 95.9501953125 436.450195312 c 128,-1,46
 70.9501953125 397.950195312 70.9501953125 397.950195312 70.9501953125 345.950195312 c 0,47,48
 70.9501953125 297.950195312 70.9501953125 297.950195312 94.9501953125 262.950195312 c 128,-1,49
 118.950195312 227.950195312 118.950195312 227.950195312 164.950195312 198.950195312 c 0,50,51
 169.950195312 195.950195312 169.950195312 195.950195312 170.450195312 193.450195312 c 128,-1,52
 170.950195312 190.950195312 170.950195312 190.950195312 168.950195312 185.950195312 c 2,53,-1
 152.950195312 142.950195312 l 2,54,55
 149.950195312 135.950195312 149.950195312 135.950195312 139.950195312 138.950195312 c 0,56,57
 113.950195312 153.950195312 113.950195312 153.950195312 89.9501953125 173.950195312 c 128,-1,58
 65.9501953125 193.950195312 65.9501953125 193.950195312 47.9501953125 220.450195312 c 128,-1,59
 29.9501953125 246.950195312 29.9501953125 246.950195312 19.4501953125 279.950195312 c 128,-1,60
 8.9501953125 312.950195312 8.9501953125 312.950195312 8.9501953125 352.950195312 c 0,61,62
 8.9501953125 426.950195312 8.9501953125 426.950195312 43.4501953125 483.450195312 c 128,-1,63
 77.9501953125 539.950195312 77.9501953125 539.950195312 139.450195312 571.950195312 c 128,-1,64
 200.950195312 603.950195312 200.950195312 603.950195312 281.950195312 603.950195312 c 0,65,66
 363.950195312 603.950195312 363.950195312 603.950195312 425.950195312 571.450195312 c 128,-1,67
 487.950195312 538.950195312 487.950195312 538.950195312 523.450195312 482.450195312 c 128,-1,68
 558.950195312 425.950195312 558.950195312 425.950195312 558.950195312 352.950195312 c 1,69,-1
 558.950195312 352.950195312 l 1,26,27
EndSplineSet
EndChar

StartChar: Euro
Encoding: 8364 8364 93
Width: 600
GlyphClass: 1
Flags: W
LayerCount: 2
Fore
SplineSet
-105.375 265.625 m 1,0,1
 -105.375 336.625 -105.375 336.625 -79.375 394.125 c 128,-1,2
 -53.375 451.625 -53.375 451.625 -3.875 492.125 c 128,-1,3
 45.625 532.625 45.625 532.625 116.625 553.625 c 128,-1,4
 187.625 574.625 187.625 574.625 276.625 574.625 c 0,5,6
 394.625 574.625 394.625 574.625 480.125 537.125 c 128,-1,7
 565.625 499.625 565.625 499.625 611.125 431.125 c 128,-1,8
 656.625 362.625 656.625 362.625 656.625 269.625 c 0,9,10
 656.625 218.625 656.625 218.625 639.625 172.625 c 128,-1,11
 622.625 126.625 622.625 126.625 591.625 91.625 c 0,12,13
 585.625 84.625 585.625 84.625 576.625 93.625 c 2,14,-1
 540.625 132.625 l 2,15,16
 536.625 136.625 536.625 136.625 535.625 142.125 c 128,-1,17
 534.625 147.625 534.625 147.625 537.625 150.625 c 0,18,19
 556.625 174.625 556.625 174.625 569.625 201.625 c 128,-1,20
 582.625 228.625 582.625 228.625 582.625 262.625 c 0,21,22
 582.625 330.625 582.625 330.625 548.625 378.625 c 128,-1,23
 514.625 426.625 514.625 426.625 446.625 451.125 c 128,-1,24
 378.625 475.625 378.625 475.625 274.625 475.625 c 0,25,26
 174.625 475.625 174.625 475.625 107.125 450.125 c 128,-1,27
 39.625 424.625 39.625 424.625 5.125 375.625 c 128,-1,28
 -29.375 326.625 -29.375 326.625 -29.375 255.625 c 0,29,30
 -29.375 219.625 -29.375 219.625 -16.875 188.125 c 128,-1,31
 -4.375 156.625 -4.375 156.625 13.625 134.625 c 0,32,33
 16.625 131.625 16.625 131.625 17.125 128.625 c 128,-1,34
 17.625 125.625 17.625 125.625 14.625 123.625 c 2,35,-1
 -27.375 87.625 l 2,36,37
 -30.375 84.625 -30.375 84.625 -33.375 83.625 c 128,-1,38
 -36.375 82.625 -36.375 82.625 -39.375 85.625 c 0,39,40
 -68.375 119.625 -68.375 119.625 -86.875 166.125 c 128,-1,41
 -105.375 212.625 -105.375 212.625 -105.375 265.625 c 1,42,-1
 -105.375 265.625 l 1,0,1
344.625 258.625 m 2,43,44
 331.625 258.625 331.625 258.625 331.625 274.625 c 2,45,-1
 330.625 645.625 l 2,46,47
 330.625 652.625 330.625 652.625 333.125 655.625 c 128,-1,48
 335.625 658.625 335.625 658.625 342.625 658.625 c 2,49,-1
 374.625 658.625 l 2,50,51
 385.625 658.625 385.625 658.625 385.625 649.625 c 2,52,-1
 386.625 268.625 l 2,53,54
 386.625 258.625 386.625 258.625 376.625 258.625 c 2,55,-1
 344.625 258.625 l 2,43,44
181.625 258.625 m 2,56,57
 168.625 258.625 168.625 258.625 168.625 274.625 c 2,58,-1
 167.625 645.625 l 2,59,60
 167.625 652.625 167.625 652.625 170.625 655.625 c 128,-1,61
 173.625 658.625 173.625 658.625 179.625 658.625 c 2,62,-1
 211.625 658.625 l 2,63,64
 223.625 658.625 223.625 658.625 223.625 649.625 c 2,65,-1
 223.625 268.625 l 2,66,67
 223.625 258.625 223.625 258.625 213.625 258.625 c 2,68,-1
 181.625 258.625 l 2,56,57
EndSplineSet
EndChar

StartChar: sterling
Encoding: 163 163 94
Width: 615
GlyphClass: 1
Flags: W
LayerCount: 2
Fore
SplineSet
-87.1787109375 641.821289062 m 1,0,1
 -87.1787109375 652.821289062 -87.1787109375 652.821289062 -76.1787109375 652.821289062 c 2,2,-1
 -23.1787109375 652.821289062 l 2,3,4
 -14.1787109375 652.821289062 -14.1787109375 652.821289062 -14.1787109375 643.821289062 c 2,5,-1
 -14.1787109375 613.821289062 l 2,6,7
 -15.1787109375 573.821289062 -15.1787109375 573.821289062 20.3212890625 546.821289062 c 128,-1,8
 55.8212890625 519.821289062 55.8212890625 519.821289062 132.821289062 519.821289062 c 0,9,10
 155.821289062 519.821289062 155.821289062 519.821289062 186.821289062 522.821289062 c 128,-1,11
 217.821289062 525.821289062 217.821289062 525.821289062 259.821289062 530.821289062 c 0,12,13
 266.821289062 531.821289062 266.821289062 531.821289062 266.821289062 537.821289062 c 2,14,-1
 266.821289062 627.821289062 l 2,15,16
 266.821289062 635.821289062 266.821289062 635.821289062 274.821289062 635.821289062 c 2,17,-1
 314.821289062 635.821289062 l 2,18,19
 322.821289062 635.821289062 322.821289062 635.821289062 322.821289062 627.821289062 c 2,20,-1
 322.821289062 550.821289062 l 2,21,22
 322.821289062 541.821289062 322.821289062 541.821289062 330.821289062 543.821289062 c 2,23,-1
 405.821289062 557.821289062 l 2,24,25
 466.821289062 570.821289062 466.821289062 570.821289062 514.821289062 558.821289062 c 128,-1,26
 562.821289062 546.821289062 562.821289062 546.821289062 596.321289062 516.821289062 c 128,-1,27
 629.821289062 486.821289062 629.821289062 486.821289062 647.321289062 443.821289062 c 128,-1,28
 664.821289062 400.821289062 664.821289062 400.821289062 664.821289062 351.821289062 c 0,29,30
 664.821289062 307.821289062 664.821289062 307.821289062 650.821289062 267.821289062 c 128,-1,31
 636.821289062 227.821289062 636.821289062 227.821289062 611.821289062 196.321289062 c 128,-1,32
 586.821289062 164.821289062 586.821289062 164.821289062 553.821289062 151.821289062 c 0,33,34
 549.821289062 149.821289062 549.821289062 149.821289062 547.821289062 152.321289062 c 128,-1,35
 545.821289062 154.821289062 545.821289062 154.821289062 543.821289062 159.821289062 c 2,36,-1
 524.821289062 213.821289062 l 2,37,38
 520.821289062 224.821289062 520.821289062 224.821289062 528.821289062 227.821289062 c 0,39,40
 556.821289062 242.821289062 556.821289062 242.821289062 573.821289062 269.821289062 c 128,-1,41
 590.821289062 296.821289062 590.821289062 296.821289062 590.821289062 341.821289062 c 0,42,43
 590.821289062 377.821289062 590.821289062 377.821289062 576.821289062 407.321289062 c 128,-1,44
 562.821289062 436.821289062 562.821289062 436.821289062 536.321289062 453.821289062 c 128,-1,45
 509.821289062 470.821289062 509.821289062 470.821289062 470.821289062 470.821289062 c 0,46,47
 436.821289062 470.821289062 436.821289062 470.821289062 396.821289062 463.321289062 c 128,-1,48
 356.821289062 455.821289062 356.821289062 455.821289062 330.821289062 447.821289062 c 0,49,50
 322.821289062 445.821289062 322.821289062 445.821289062 322.821289062 439.821289062 c 2,51,-1
 322.821289062 284.821289062 l 2,52,53
 322.821289062 277.821289062 322.821289062 277.821289062 316.821289062 277.821289062 c 2,54,-1
 274.821289062 277.821289062 l 2,55,56
 267.821289062 277.821289062 267.821289062 277.821289062 267.821289062 284.821289062 c 2,57,-1
 267.821289062 428.821289062 l 2,58,59
 267.821289062 437.821289062 267.821289062 437.821289062 258.821289062 436.821289062 c 0,60,61
 230.821289062 432.821289062 230.821289062 432.821289062 203.821289062 430.821289062 c 128,-1,62
 176.821289062 428.821289062 176.821289062 428.821289062 147.821289062 430.821289062 c 0,63,64
 103.821289062 431.821289062 103.821289062 431.821289062 72.8212890625 441.321289062 c 128,-1,65
 41.8212890625 450.821289062 41.8212890625 450.821289062 23.3212890625 461.821289062 c 128,-1,66
 4.8212890625 472.821289062 4.8212890625 472.821289062 -4.1787109375 481.821289062 c 0,67,68
 -9.1787109375 485.821289062 -9.1787109375 485.821289062 -11.1787109375 484.821289062 c 128,-1,69
 -13.1787109375 483.821289062 -13.1787109375 483.821289062 -13.1787109375 478.821289062 c 2,70,-1
 -13.1787109375 303.821289062 l 2,71,72
 -13.1787109375 253.821289062 -13.1787109375 253.821289062 3.3212890625 221.321289062 c 128,-1,73
 19.8212890625 188.821289062 19.8212890625 188.821289062 60.8212890625 171.821289062 c 0,74,75
 69.8212890625 167.821289062 69.8212890625 167.821289062 66.8212890625 157.821289062 c 2,76,-1
 53.8212890625 107.821289062 l 2,77,78
 49.8212890625 96.8212890625 49.8212890625 96.8212890625 41.8212890625 99.8212890625 c 0,79,80
 -22.1787109375 121.821289062 -22.1787109375 121.821289062 -54.6787109375 173.821289062 c 128,-1,81
 -87.1787109375 225.821289062 -87.1787109375 225.821289062 -87.1787109375 298.821289062 c 2,82,-1
 -87.1787109375 641.821289062 l 1,83,-1
 -87.1787109375 641.821289062 l 1,0,1
EndSplineSet
EndChar

StartChar: yen
Encoding: 165 165 95
Width: 609
GlyphClass: 1
Flags: W
LayerCount: 2
Fore
SplineSet
676.587890625 86.587890625 m 1,0,1
 676.587890625 79.587890625 676.587890625 79.587890625 672.587890625 77.087890625 c 128,-1,2
 668.587890625 74.587890625 668.587890625 74.587890625 662.587890625 78.587890625 c 2,3,-1
 270.587890625 314.587890625 l 2,4,5
 264.587890625 318.587890625 264.587890625 318.587890625 258.587890625 319.087890625 c 128,-1,6
 252.587890625 319.587890625 252.587890625 319.587890625 237.587890625 319.587890625 c 2,7,-1
 -48.412109375 319.587890625 l 2,8,9
 -65.412109375 319.587890625 -65.412109375 319.587890625 -65.412109375 339.587890625 c 2,10,-1
 -65.412109375 399.587890625 l 2,11,12
 -65.412109375 409.587890625 -65.412109375 409.587890625 -61.412109375 412.587890625 c 128,-1,13
 -57.412109375 415.587890625 -57.412109375 415.587890625 -50.412109375 415.587890625 c 2,14,-1
 230.587890625 415.587890625 l 2,15,16
 240.587890625 415.587890625 240.587890625 415.587890625 245.587890625 417.587890625 c 128,-1,17
 250.587890625 419.587890625 250.587890625 419.587890625 257.587890625 423.587890625 c 2,18,-1
 660.587890625 663.587890625 l 2,19,20
 667.587890625 667.587890625 667.587890625 667.587890625 672.087890625 664.587890625 c 128,-1,21
 676.587890625 661.587890625 676.587890625 661.587890625 676.587890625 652.587890625 c 2,22,-1
 676.587890625 577.587890625 l 2,23,24
 676.587890625 568.587890625 676.587890625 568.587890625 674.087890625 564.587890625 c 128,-1,25
 671.587890625 560.587890625 671.587890625 560.587890625 664.587890625 556.587890625 c 2,26,-1
 343.587890625 371.587890625 l 2,27,28
 334.587890625 366.587890625 334.587890625 366.587890625 334.087890625 363.087890625 c 128,-1,29
 333.587890625 359.587890625 333.587890625 359.587890625 342.587890625 354.587890625 c 2,30,-1
 664.587890625 166.587890625 l 2,31,32
 672.587890625 161.587890625 672.587890625 161.587890625 674.587890625 158.087890625 c 128,-1,33
 676.587890625 154.587890625 676.587890625 154.587890625 676.587890625 145.587890625 c 2,34,-1
 676.587890625 86.587890625 l 1,35,-1
 676.587890625 86.587890625 l 1,0,1
237.587890625 162.587890625 m 2,36,37
 224.587890625 162.587890625 224.587890625 162.587890625 224.587890625 179.587890625 c 2,38,-1
 223.587890625 560.587890625 l 2,39,40
 223.587890625 567.587890625 223.587890625 567.587890625 226.087890625 570.587890625 c 128,-1,41
 228.587890625 573.587890625 228.587890625 573.587890625 235.587890625 573.587890625 c 2,42,-1
 267.587890625 573.587890625 l 2,43,44
 278.587890625 573.587890625 278.587890625 573.587890625 278.587890625 564.587890625 c 2,45,-1
 279.587890625 172.587890625 l 2,46,47
 279.587890625 162.587890625 279.587890625 162.587890625 269.587890625 162.587890625 c 2,48,-1
 237.587890625 162.587890625 l 2,36,37
89.587890625 162.587890625 m 2,49,50
 75.587890625 162.587890625 75.587890625 162.587890625 75.587890625 179.587890625 c 2,51,-1
 75.587890625 560.587890625 l 2,52,53
 75.587890625 567.587890625 75.587890625 567.587890625 78.087890625 570.587890625 c 128,-1,54
 80.587890625 573.587890625 80.587890625 573.587890625 87.587890625 573.587890625 c 2,55,-1
 119.587890625 573.587890625 l 2,56,57
 130.587890625 573.587890625 130.587890625 573.587890625 130.587890625 564.587890625 c 2,58,-1
 131.587890625 172.587890625 l 2,59,60
 131.587890625 162.587890625 131.587890625 162.587890625 121.587890625 162.587890625 c 2,61,-1
 89.587890625 162.587890625 l 2,49,50
EndSplineSet
EndChar

StartChar: florin
Encoding: 402 402 96
Width: 447
GlyphClass: 1
Flags: W
LayerCount: 2
Fore
SplineSet
412.517578125 85.517578125 m 1,0,1
 412.517578125 80.517578125 412.517578125 80.517578125 409.517578125 78.017578125 c 128,-1,2
 406.517578125 75.517578125 406.517578125 75.517578125 402.517578125 76.517578125 c 2,3,-1
 359.517578125 83.517578125 l 2,4,5
 349.517578125 85.517578125 349.517578125 85.517578125 349.517578125 96.517578125 c 2,6,-1
 349.517578125 210.517578125 l 2,7,8
 349.517578125 218.517578125 349.517578125 218.517578125 341.517578125 219.517578125 c 2,9,-1
 -155.482421875 306.517578125 l 2,10,11
 -217.482421875 316.517578125 -217.482421875 316.517578125 -252.982421875 354.017578125 c 128,-1,12
 -288.482421875 391.517578125 -288.482421875 391.517578125 -288.482421875 455.517578125 c 2,13,-1
 -288.482421875 523.517578125 l 2,14,15
 -288.482421875 537.517578125 -288.482421875 537.517578125 -274.482421875 535.517578125 c 2,16,-1
 -237.482421875 529.517578125 l 2,17,18
 -233.482421875 528.517578125 -233.482421875 528.517578125 -230.482421875 525.517578125 c 128,-1,19
 -227.482421875 522.517578125 -227.482421875 522.517578125 -227.482421875 518.517578125 c 2,20,-1
 -226.482421875 468.517578125 l 2,21,22
 -226.482421875 432.517578125 -226.482421875 432.517578125 -208.482421875 414.517578125 c 128,-1,23
 -190.482421875 396.517578125 -190.482421875 396.517578125 -145.482421875 388.517578125 c 2,24,-1
 342.517578125 303.517578125 l 2,25,26
 349.517578125 302.517578125 349.517578125 302.517578125 349.517578125 309.517578125 c 2,27,-1
 349.517578125 378.517578125 l 2,28,29
 349.517578125 387.517578125 349.517578125 387.517578125 359.517578125 386.517578125 c 2,30,-1
 402.517578125 378.517578125 l 2,31,32
 406.517578125 378.517578125 406.517578125 378.517578125 409.517578125 375.017578125 c 128,-1,33
 412.517578125 371.517578125 412.517578125 371.517578125 412.517578125 365.517578125 c 2,34,-1
 412.517578125 299.517578125 l 2,35,36
 412.517578125 290.517578125 412.517578125 290.517578125 422.517578125 289.517578125 c 2,37,-1
 495.517578125 276.517578125 l 2,38,39
 558.517578125 265.517578125 558.517578125 265.517578125 591.517578125 227.517578125 c 128,-1,40
 624.517578125 189.517578125 624.517578125 189.517578125 624.517578125 128.517578125 c 2,41,-1
 624.517578125 45.517578125 l 2,42,43
 624.517578125 33.517578125 624.517578125 33.517578125 612.517578125 35.517578125 c 2,44,-1
 573.517578125 41.517578125 l 2,45,46
 568.517578125 42.517578125 568.517578125 42.517578125 566.017578125 46.017578125 c 128,-1,47
 563.517578125 49.517578125 563.517578125 49.517578125 563.517578125 54.517578125 c 2,48,-1
 563.517578125 119.517578125 l 2,49,50
 563.517578125 147.517578125 563.517578125 147.517578125 542.517578125 168.517578125 c 128,-1,51
 521.517578125 189.517578125 521.517578125 189.517578125 488.517578125 195.517578125 c 2,52,-1
 421.517578125 206.517578125 l 2,53,54
 412.517578125 208.517578125 412.517578125 208.517578125 412.517578125 199.517578125 c 2,55,-1
 412.517578125 85.517578125 l 1,56,-1
 412.517578125 85.517578125 l 1,0,1
EndSplineSet
EndChar

StartChar: franc
Encoding: 8355 8355 97
Width: 613
GlyphClass: 1
Flags: W
LayerCount: 2
Fore
SplineSet
62.5 295.5 m 2,0,1
 48.5 295.5 48.5 295.5 48.5 312.5 c 2,2,-1
 47.5 644.5 l 2,3,4
 47.5 651.5 47.5 651.5 50.5 654.5 c 128,-1,5
 53.5 657.5 53.5 657.5 59.5 657.5 c 2,6,-1
 91.5 657.5 l 2,7,8
 103.5 657.5 103.5 657.5 103.5 648.5 c 2,9,-1
 104.5 305.5 l 2,10,11
 104.5 295.5 104.5 295.5 94.5 295.5 c 2,12,-1
 62.5 295.5 l 2,0,1
636.5 561.5 m 1,13,14
 650.5 561.5 650.5 561.5 650.5 549.5 c 2,15,-1
 650.5 94.5 l 2,16,17
 650.5 84.5 650.5 84.5 639.5 84.5 c 2,18,-1
 588.5 84.5 l 2,19,20
 576.5 84.5 576.5 84.5 576.5 97.5 c 2,21,-1
 576.5 452.5 l 2,22,23
 576.5 465.5 576.5 465.5 564.5 465.5 c 2,24,-1
 318.5 465.5 l 2,25,26
 307.5 465.5 307.5 465.5 307.5 453.5 c 2,27,-1
 307.5 150.5 l 2,28,29
 307.5 139.5 307.5 139.5 297.5 139.5 c 2,30,-1
 244.5 139.5 l 2,31,32
 235.5 139.5 235.5 139.5 235.5 150.5 c 2,33,-1
 235.5 454.5 l 2,34,35
 235.5 465.5 235.5 465.5 224.5 465.5 c 2,36,-1
 -78.5 465.5 l 2,37,38
 -91.5 465.5 -91.5 465.5 -91.5 479.5 c 2,39,-1
 -91.5 547.5 l 2,40,41
 -91.5 555.5 -91.5 555.5 -88.5 558.5 c 128,-1,42
 -85.5 561.5 -85.5 561.5 -77.5 561.5 c 2,43,-1
 636.5 561.5 l 1,44,-1
 636.5 561.5 l 1,13,14
EndSplineSet
EndChar

StartChar: lira
Encoding: 8356 8356 98
Width: 615
GlyphClass: 1
Flags: W
LayerCount: 2
Fore
SplineSet
53.8212890625 107.821289062 m 1,0,1
 49.8212890625 96.8212890625 49.8212890625 96.8212890625 41.8212890625 99.8212890625 c 0,2,3
 -22.1787109375 121.821289062 -22.1787109375 121.821289062 -54.6787109375 173.821289062 c 128,-1,4
 -87.1787109375 225.821289062 -87.1787109375 225.821289062 -87.1787109375 298.821289062 c 2,5,-1
 -87.1787109375 641.821289062 l 2,6,7
 -87.1787109375 652.821289062 -87.1787109375 652.821289062 -76.1787109375 652.821289062 c 2,8,-1
 -23.1787109375 652.821289062 l 2,9,10
 -14.1787109375 652.821289062 -14.1787109375 652.821289062 -14.1787109375 643.821289062 c 2,11,-1
 -14.1787109375 613.821289062 l 2,12,13
 -15.1787109375 576.821289062 -15.1787109375 576.821289062 18.8212890625 549.821289062 c 128,-1,14
 52.8212890625 522.821289062 52.8212890625 522.821289062 124.821289062 520.821289062 c 0,15,16
 133.821289062 519.821289062 133.821289062 519.821289062 143.321289062 520.321289062 c 128,-1,17
 152.821289062 520.821289062 152.821289062 520.821289062 163.821289062 520.821289062 c 0,18,19
 170.821289062 521.821289062 170.821289062 521.821289062 170.821289062 529.821289062 c 2,20,-1
 170.821289062 626.821289062 l 2,21,22
 170.821289062 633.821289062 170.821289062 633.821289062 173.821289062 636.821289062 c 128,-1,23
 176.821289062 639.821289062 176.821289062 639.821289062 182.821289062 639.821289062 c 2,24,-1
 214.821289062 639.821289062 l 2,25,26
 225.821289062 639.821289062 225.821289062 639.821289062 225.821289062 630.821289062 c 2,27,-1
 225.821289062 536.821289062 l 2,28,29
 225.821289062 528.821289062 225.821289062 528.821289062 233.821289062 529.821289062 c 2,30,-1
 314.821289062 543.821289062 l 2,31,32
 320.821289062 544.821289062 320.821289062 544.821289062 320.821289062 553.821289062 c 2,33,-1
 320.821289062 626.821289062 l 2,34,35
 320.821289062 633.821289062 320.821289062 633.821289062 323.821289062 636.821289062 c 128,-1,36
 326.821289062 639.821289062 326.821289062 639.821289062 332.821289062 639.821289062 c 2,37,-1
 364.821289062 639.821289062 l 2,38,39
 375.821289062 639.821289062 375.821289062 639.821289062 375.821289062 630.821289062 c 2,40,-1
 375.821289062 561.821289062 l 2,41,42
 375.821289062 553.821289062 375.821289062 553.821289062 382.821289062 554.821289062 c 2,43,-1
 405.821289062 557.821289062 l 2,44,45
 500.821289062 571.821289062 500.821289062 571.821289062 557.821289062 546.321289062 c 128,-1,46
 614.821289062 520.821289062 614.821289062 520.821289062 639.821289062 468.821289062 c 128,-1,47
 664.821289062 416.821289062 664.821289062 416.821289062 664.821289062 351.821289062 c 0,48,49
 664.821289062 307.821289062 664.821289062 307.821289062 650.821289062 267.821289062 c 128,-1,50
 636.821289062 227.821289062 636.821289062 227.821289062 611.821289062 196.321289062 c 128,-1,51
 586.821289062 164.821289062 586.821289062 164.821289062 553.821289062 151.821289062 c 0,52,53
 549.821289062 149.821289062 549.821289062 149.821289062 547.821289062 152.321289062 c 128,-1,54
 545.821289062 154.821289062 545.821289062 154.821289062 543.821289062 159.821289062 c 2,55,-1
 524.821289062 213.821289062 l 2,56,57
 520.821289062 224.821289062 520.821289062 224.821289062 528.821289062 227.821289062 c 0,58,59
 556.821289062 242.821289062 556.821289062 242.821289062 573.821289062 269.821289062 c 128,-1,60
 590.821289062 296.821289062 590.821289062 296.821289062 590.821289062 341.821289062 c 0,61,62
 590.821289062 377.821289062 590.821289062 377.821289062 576.821289062 407.321289062 c 128,-1,63
 562.821289062 436.821289062 562.821289062 436.821289062 536.321289062 453.821289062 c 128,-1,64
 509.821289062 470.821289062 509.821289062 470.821289062 470.821289062 470.821289062 c 0,65,66
 458.821289062 470.821289062 458.821289062 470.821289062 436.321289062 467.821289062 c 128,-1,67
 413.821289062 464.821289062 413.821289062 464.821289062 385.821289062 459.821289062 c 0,68,69
 375.821289062 457.821289062 375.821289062 457.821289062 375.821289062 449.821289062 c 2,70,-1
 376.821289062 292.821289062 l 2,71,72
 376.821289062 282.821289062 376.821289062 282.821289062 366.821289062 282.821289062 c 2,73,-1
 334.821289062 282.821289062 l 2,74,75
 321.821289062 282.821289062 321.821289062 282.821289062 321.821289062 299.821289062 c 2,76,-1
 320.821289062 439.821289062 l 2,77,78
 320.821289062 449.821289062 320.821289062 449.821289062 310.821289062 448.821289062 c 2,79,-1
 234.821289062 435.821289062 l 2,80,81
 225.821289062 434.821289062 225.821289062 434.821289062 225.821289062 424.821289062 c 2,82,-1
 226.821289062 292.821289062 l 2,83,84
 226.821289062 282.821289062 226.821289062 282.821289062 216.821289062 282.821289062 c 2,85,-1
 184.821289062 282.821289062 l 2,86,87
 171.821289062 282.821289062 171.821289062 282.821289062 171.821289062 299.821289062 c 2,88,-1
 171.821289062 422.821289062 l 2,89,90
 171.821289062 431.821289062 171.821289062 431.821289062 162.821289062 432.821289062 c 0,91,92
 135.821289062 431.821289062 135.821289062 431.821289062 104.821289062 435.821289062 c 128,-1,93
 73.8212890625 439.821289062 73.8212890625 439.821289062 45.3212890625 450.821289062 c 128,-1,94
 16.8212890625 461.821289062 16.8212890625 461.821289062 -4.1787109375 481.821289062 c 0,95,96
 -8.1787109375 485.821289062 -8.1787109375 485.821289062 -10.6787109375 484.821289062 c 128,-1,97
 -13.1787109375 483.821289062 -13.1787109375 483.821289062 -13.1787109375 478.821289062 c 2,98,-1
 -13.1787109375 303.821289062 l 2,99,100
 -13.1787109375 253.821289062 -13.1787109375 253.821289062 3.3212890625 221.321289062 c 128,-1,101
 19.8212890625 188.821289062 19.8212890625 188.821289062 60.8212890625 171.821289062 c 0,102,103
 69.8212890625 167.821289062 69.8212890625 167.821289062 66.8212890625 157.821289062 c 2,104,-1
 53.8212890625 107.821289062 l 1,105,-1
 53.8212890625 107.821289062 l 1,0,1
EndSplineSet
EndChar

StartChar: uni20A6
Encoding: 8358 8358 99
Width: 737
GlyphClass: 2
Flags: W
AnchorPoint: "Anchor-2" -3 366 basechar 0
AnchorPoint: "Anchor-0" 739 341 basechar 0
LayerCount: 2
Fore
SplineSet
458 7 m 2,0,1
 445 7 445 7 445 23 c 2,2,-1
 444 722 l 2,3,4
 444 729 444 729 447 732 c 128,-1,5
 450 735 450 735 456 735 c 2,6,-1
 485 735 l 2,7,8
 497 735 497 735 497 726 c 2,9,-1
 497 17 l 2,10,11
 497 7 497 7 487 7 c 2,12,-1
 458 7 l 2,0,1
276 7 m 2,13,14
 263 7 263 7 263 23 c 2,15,-1
 262 722 l 2,16,17
 262 729 262 729 264.5 732 c 128,-1,18
 267 735 267 735 274 735 c 2,19,-1
 303 735 l 2,20,21
 315 735 315 735 315 726 c 2,22,-1
 315 17 l 2,23,24
 315 7 315 7 305 7 c 2,25,-1
 276 7 l 2,13,14
739 82 m 2,26,27
 739 71 739 71 727 71 c 2,28,-1
 9 71 l 2,29,30
 3 71 3 71 0 74.5 c 128,-1,31
 -3 78 -3 78 -3 84 c 2,32,-1
 -3 133 l 2,33,34
 -3 139 -3 139 -2 144 c 128,-1,35
 -1 149 -1 149 5 154 c 2,36,-1
 566 540 l 2,37,38
 573 545 573 545 572 548 c 128,-1,39
 571 551 571 551 565 551 c 2,40,-1
 10 551 l 2,41,42
 -3 551 -3 551 -3 565 c 2,43,-1
 -3 621 l 2,44,45
 -3 634 -3 634 10 634 c 2,46,-1
 725 634 l 2,47,48
 739 634 739 634 739 622 c 2,49,-1
 739 564 l 2,50,51
 739 556 739 556 737.5 552 c 128,-1,52
 736 548 736 548 729 543 c 2,53,-1
 180 168 l 2,54,55
 173 162 173 162 175 157.5 c 128,-1,56
 177 153 177 153 183 153 c 2,57,-1
 727 153 l 2,58,59
 739 153 739 153 739 141 c 2,60,-1
 739 82 l 2,26,27
EndSplineSet
EndChar

StartChar: uni20A9
Encoding: 8361 8361 100
Width: 1049
GlyphClass: 2
Flags: W
AnchorPoint: "Anchor-0" 899 352 basechar 0
LayerCount: 2
Fore
SplineSet
651 -143 m 2,0,1
 638 -143 638 -143 638 -127 c 2,2,-1
 637 872 l 2,3,4
 637 879 637 879 640 882 c 128,-1,5
 643 885 643 885 649 885 c 2,6,-1
 681 885 l 2,7,8
 692 885 692 885 692 876 c 2,9,-1
 693 -133 l 2,10,11
 693 -143 693 -143 683 -143 c 2,12,-1
 651 -143 l 2,0,1
491 -143 m 2,13,14
 478 -143 478 -143 478 -127 c 2,15,-1
 477 872 l 2,16,17
 477 879 477 879 480 882 c 128,-1,18
 483 885 483 885 489 885 c 2,19,-1
 521 885 l 2,20,21
 532 885 532 885 532 876 c 2,22,-1
 533 -133 l 2,23,24
 533 -143 533 -143 523 -143 c 2,25,-1
 491 -143 l 2,13,14
899 -109 m 1,26,27
 899 -118 899 -118 894 -121 c 128,-1,28
 889 -124 889 -124 881 -122 c 2,29,-1
 172 84 l 2,30,31
 157 89 157 89 157 105 c 2,32,-1
 157 167 l 2,33,34
 157 185 157 185 171 190 c 2,35,-1
 738 349 l 2,36,37
 743 351 743 351 743 353 c 128,-1,38
 743 355 743 355 737 357 c 2,39,-1
 172 519 l 2,40,41
 157 523 157 523 157 541 c 2,42,-1
 157 603 l 2,43,44
 157 621 157 621 171 626 c 2,45,-1
 881 829 l 2,46,47
 889 831 889 831 894 827 c 128,-1,48
 899 823 899 823 899 815 c 2,49,-1
 899 751 l 2,50,51
 899 742 899 742 896.5 738.5 c 128,-1,52
 894 735 894 735 887 734 c 2,53,-1
 305 570 l 2,54,55
 294 567 294 567 294.5 564 c 128,-1,56
 295 561 295 561 304 558 c 2,57,-1
 888 392 l 2,58,59
 892 391 892 391 895.5 387.5 c 128,-1,60
 899 384 899 384 899 374 c 2,61,-1
 899 318 l 2,62,63
 899 309 899 309 896.5 305.5 c 128,-1,64
 894 302 894 302 887 300 c 2,65,-1
 302 136 l 2,66,67
 293 133 293 133 293.5 129.5 c 128,-1,68
 294 126 294 126 302 124 c 2,69,-1
 888 -41 l 2,70,71
 894 -42 894 -42 896.5 -46.5 c 128,-1,72
 899 -51 899 -51 899 -59 c 2,73,-1
 899 -109 l 1,74,-1
 899 -109 l 1,26,27
EndSplineSet
EndChar

StartChar: dong
Encoding: 8363 8363 101
Width: 506
GlyphClass: 1
Flags: W
LayerCount: 2
Fore
SplineSet
31.5 265.5 m 1,0,1
 31.5 270.5 31.5 270.5 34.5 274 c 128,-1,2
 37.5 277.5 37.5 277.5 42.5 277.5 c 2,3,-1
 77.5 277.5 l 2,4,5
 84.5 277.5 84.5 277.5 85.5 280 c 128,-1,6
 86.5 282.5 86.5 282.5 81.5 287.5 c 0,7,8
 72.5 296.5 72.5 296.5 58.5 312 c 128,-1,9
 44.5 327.5 44.5 327.5 34 352.5 c 128,-1,10
 23.5 377.5 23.5 377.5 23.5 415.5 c 0,11,12
 23.5 467.5 23.5 467.5 48 509 c 128,-1,13
 72.5 550.5 72.5 550.5 121 574.5 c 128,-1,14
 169.5 598.5 169.5 598.5 242.5 598.5 c 0,15,16
 312.5 598.5 312.5 598.5 364 574 c 128,-1,17
 415.5 549.5 415.5 549.5 445 506 c 128,-1,18
 474.5 462.5 474.5 462.5 474.5 407.5 c 0,19,20
 474.5 363.5 474.5 363.5 460.5 338 c 128,-1,21
 446.5 312.5 446.5 312.5 427.5 291.5 c 0,22,23
 422.5 283.5 422.5 283.5 424 281.5 c 128,-1,24
 425.5 279.5 425.5 279.5 433.5 279.5 c 2,25,-1
 627.5 279.5 l 2,26,27
 637.5 279.5 637.5 279.5 637.5 269.5 c 2,28,-1
 637.5 214.5 l 2,29,30
 637.5 206.5 637.5 206.5 627.5 206.5 c 2,31,-1
 44.5 206.5 l 2,32,33
 37.5 206.5 37.5 206.5 34.5 209 c 128,-1,34
 31.5 211.5 31.5 211.5 31.5 218.5 c 2,35,-1
 31.5 265.5 l 1,36,-1
 31.5 265.5 l 1,0,1
366.5 281.5 m 1,37,38
 390.5 305.5 390.5 305.5 403.5 331 c 128,-1,39
 416.5 356.5 416.5 356.5 416.5 388.5 c 0,40,41
 416.5 445.5 416.5 445.5 373 482.5 c 128,-1,42
 329.5 519.5 329.5 519.5 244.5 519.5 c 0,43,44
 186.5 519.5 186.5 519.5 150 502 c 128,-1,45
 113.5 484.5 113.5 484.5 96 455.5 c 128,-1,46
 78.5 426.5 78.5 426.5 78.5 391.5 c 0,47,48
 78.5 358.5 78.5 358.5 93 334 c 128,-1,49
 107.5 309.5 107.5 309.5 129 295.5 c 128,-1,50
 150.5 281.5 150.5 281.5 171.5 281.5 c 2,51,-1
 366.5 281.5 l 1,52,-1
 366.5 281.5 l 1,37,38
535.5 142.5 m 2,53,54
 524.5 142.5 524.5 142.5 524.5 155.5 c 2,55,-1
 524.5 407.5 l 2,56,57
 524.5 418.5 524.5 418.5 534.5 418.5 c 2,58,-1
 563.5 418.5 l 2,59,60
 572.5 418.5 572.5 418.5 572.5 410.5 c 2,61,-1
 572.5 150.5 l 2,62,63
 572.5 142.5 572.5 142.5 563.5 142.5 c 2,64,-1
 535.5 142.5 l 2,53,54
-92.5 202.5 m 2,65,66
 -103.5 202.5 -103.5 202.5 -103.5 215.5 c 2,67,-1
 -103.5 565.5 l 2,68,69
 -103.5 575.5 -103.5 575.5 -93.5 575.5 c 2,70,-1
 -62.5 575.5 l 2,71,72
 -53.5 575.5 -53.5 575.5 -53.5 568.5 c 2,73,-1
 -53.5 209.5 l 2,74,75
 -53.5 202.5 -53.5 202.5 -62.5 202.5 c 2,76,-1
 -92.5 202.5 l 2,65,66
EndSplineSet
EndChar

StartChar: uni20B9
Encoding: 8377 8377 102
Width: 579
GlyphClass: 1
Flags: W
LayerCount: 2
Fore
SplineSet
320 651 m 1,0,1
 330 651 330 651 330 641 c 2,2,-1
 330 457 l 2,3,4
 330 365 330 365 363 320 c 128,-1,5
 396 275 396 275 472 275 c 0,6,7
 536 275 536 275 568 315 c 128,-1,8
 600 355 600 355 600 434 c 2,9,-1
 600 639 l 2,10,11
 600 651 600 651 613 651 c 2,12,-1
 643 651 l 2,13,14
 650 651 650 651 653 648.5 c 128,-1,15
 656 646 656 646 656 640 c 2,16,-1
 656 424 l 2,17,18
 656 306 656 306 608.5 240.5 c 128,-1,19
 561 175 561 175 471 175 c 0,20,21
 414 175 414 175 376 196.5 c 128,-1,22
 338 218 338 218 315 251.5 c 128,-1,23
 292 285 292 285 280 321 c 0,24,25
 278 328 278 328 270 325 c 2,26,-1
 -67 196 l 2,27,28
 -74 193 -74 193 -80 196.5 c 128,-1,29
 -86 200 -86 200 -86 207 c 2,30,-1
 -86 281 l 2,31,32
 -86 294 -86 294 -74 297 c 2,33,-1
 251 415 l 2,34,35
 263 419 263 419 263 439 c 2,36,-1
 263 638 l 2,37,38
 263 651 263 651 274 651 c 2,39,-1
 320 651 l 1,40,-1
 320 651 l 1,0,1
618 92 m 2,41,42
 604 92 604 92 604 109 c 2,43,-1
 603 637 l 2,44,45
 603 644 603 644 606 647 c 128,-1,46
 609 650 609 650 615 650 c 2,47,-1
 645 650 l 2,48,49
 656 650 656 650 656 641 c 2,50,-1
 657 102 l 2,51,52
 657 92 657 92 647 92 c 2,53,-1
 618 92 l 2,41,42
460 92 m 2,54,55
 447 92 447 92 447 109 c 2,56,-1
 446 637 l 2,57,58
 446 644 446 644 448.5 647 c 128,-1,59
 451 650 451 650 458 650 c 2,60,-1
 487 650 l 2,61,62
 498 650 498 650 498 641 c 2,63,-1
 499 102 l 2,64,65
 499 92 499 92 489 92 c 2,66,-1
 460 92 l 2,54,55
EndSplineSet
EndChar

StartChar: uni20BA
Encoding: 8378 8378 103
Width: 557
GlyphClass: 1
Flags: W
LayerCount: 2
Fore
SplineSet
-89.296875 521.703125 m 2,0,1
 -89.296875 529.703125 -89.296875 529.703125 -85.796875 532.703125 c 128,-1,2
 -82.296875 535.703125 -82.296875 535.703125 -75.296875 535.703125 c 2,3,-1
 638.703125 535.703125 l 2,4,5
 652.703125 535.703125 652.703125 535.703125 652.703125 524.703125 c 2,6,-1
 652.703125 451.703125 l 2,7,8
 652.703125 439.703125 652.703125 439.703125 639.703125 439.703125 c 2,9,-1
 -5.296875 439.703125 l 2,10,11
 -15.296875 439.703125 -15.296875 439.703125 -15.296875 430.703125 c 2,12,-1
 -15.296875 388.703125 l 2,13,14
 -14.296875 318.703125 -14.296875 318.703125 26.203125 268.203125 c 128,-1,15
 66.703125 217.703125 66.703125 217.703125 157.703125 183.703125 c 0,16,17
 162.703125 180.703125 162.703125 180.703125 160.703125 171.703125 c 2,18,-1
 146.703125 112.703125 l 2,19,20
 145.703125 109.703125 145.703125 109.703125 142.703125 107.203125 c 128,-1,21
 139.703125 104.703125 139.703125 104.703125 132.703125 107.703125 c 0,22,23
 81.703125 124.703125 81.703125 124.703125 40.203125 152.703125 c 128,-1,24
 -1.296875 180.703125 -1.296875 180.703125 -29.796875 218.703125 c 128,-1,25
 -58.296875 256.703125 -58.296875 256.703125 -73.796875 305.203125 c 128,-1,26
 -89.296875 353.703125 -89.296875 353.703125 -89.296875 412.703125 c 2,27,-1
 -89.296875 521.703125 l 2,0,1
414.703125 282.703125 m 2,28,29
 399.703125 278.703125 399.703125 278.703125 392.703125 295.703125 c 2,30,-1
 280.703125 604.703125 l 2,31,32
 278.703125 612.703125 278.703125 612.703125 280.703125 616.203125 c 128,-1,33
 282.703125 619.703125 282.703125 619.703125 289.703125 622.703125 c 2,34,-1
 320.703125 634.703125 l 2,35,36
 332.703125 638.703125 332.703125 638.703125 336.703125 629.703125 c 2,37,-1
 453.703125 308.703125 l 2,38,39
 455.703125 298.703125 455.703125 298.703125 445.703125 294.703125 c 2,40,-1
 414.703125 282.703125 l 2,28,29
249.703125 277.703125 m 2,41,42
 234.703125 272.703125 234.703125 272.703125 228.703125 289.703125 c 2,43,-1
 115.703125 599.703125 l 2,44,45
 113.703125 606.703125 113.703125 606.703125 116.203125 610.703125 c 128,-1,46
 118.703125 614.703125 118.703125 614.703125 124.703125 616.703125 c 2,47,-1
 155.703125 628.703125 l 2,48,49
 167.703125 632.703125 167.703125 632.703125 171.703125 623.703125 c 2,50,-1
 288.703125 302.703125 l 2,51,52
 290.703125 293.703125 290.703125 293.703125 281.703125 288.703125 c 2,53,-1
 249.703125 277.703125 l 2,41,42
EndSplineSet
EndChar

StartChar: colonmonetary
Encoding: 8353 8353 104
Width: 600
GlyphClass: 2
Flags: W
AnchorPoint: "Anchor-2" 11.6162 353.283 basechar 0
AnchorPoint: "Anchor-0" 541.616 354.283 basechar 0
LayerCount: 2
Fore
SplineSet
512.616210938 365.283203125 m 1,0,1
 495.616210938 370.283203125 495.616210938 370.283203125 500.616210938 387.283203125 c 2,2,-1
 506.616210938 408.283203125 l 2,3,4
 511.616210938 424.283203125 511.616210938 424.283203125 526.616210938 419.283203125 c 2,5,-1
 638.616210938 390.283203125 l 2,6,7
 645.616210938 388.283203125 645.616210938 388.283203125 647.616210938 383.283203125 c 128,-1,8
 649.616210938 378.283203125 649.616210938 378.283203125 649.616210938 371.283203125 c 2,9,-1
 650.616210938 343.283203125 l 2,10,11
 650.616210938 335.283203125 650.616210938 335.283203125 645.616210938 333.783203125 c 128,-1,12
 640.616210938 332.283203125 640.616210938 332.283203125 633.616210938 333.283203125 c 2,13,-1
 512.616210938 365.283203125 l 1,14,-1
 512.616210938 365.283203125 l 1,0,1
512.616210938 248.283203125 m 1,15,16
 495.616210938 252.283203125 495.616210938 252.283203125 500.616210938 270.283203125 c 2,17,-1
 506.616210938 291.283203125 l 2,18,19
 511.616210938 306.283203125 511.616210938 306.283203125 526.616210938 302.283203125 c 2,20,-1
 638.616210938 272.283203125 l 2,21,22
 645.616210938 271.283203125 645.616210938 271.283203125 647.616210938 266.283203125 c 128,-1,23
 649.616210938 261.283203125 649.616210938 261.283203125 649.616210938 254.283203125 c 2,24,-1
 650.616210938 226.283203125 l 2,25,26
 650.616210938 218.283203125 650.616210938 218.283203125 645.616210938 216.783203125 c 128,-1,27
 640.616210938 215.283203125 640.616210938 215.283203125 633.616210938 216.283203125 c 2,28,-1
 512.616210938 248.283203125 l 1,29,-1
 512.616210938 248.283203125 l 1,15,16
-81.3837890625 333.283203125 m 1,30,31
 -87.3837890625 335.283203125 -87.3837890625 335.283203125 -89.3837890625 339.283203125 c 128,-1,32
 -91.3837890625 343.283203125 -91.3837890625 343.283203125 -90.3837890625 351.283203125 c 2,33,-1
 -90.3837890625 379.283203125 l 2,34,35
 -90.3837890625 386.283203125 -90.3837890625 386.283203125 -85.3837890625 388.783203125 c 128,-1,36
 -80.3837890625 391.283203125 -80.3837890625 391.283203125 -74.3837890625 389.283203125 c 2,37,-1
 46.6162109375 357.283203125 l 2,38,39
 63.6162109375 353.283203125 63.6162109375 353.283203125 58.6162109375 335.283203125 c 2,40,-1
 52.6162109375 314.283203125 l 2,41,42
 47.6162109375 299.283203125 47.6162109375 299.283203125 32.6162109375 303.283203125 c 2,43,-1
 -81.3837890625 333.283203125 l 1,44,-1
 -81.3837890625 333.283203125 l 1,30,31
-81.3837890625 450.283203125 m 1,45,46
 -87.3837890625 452.283203125 -87.3837890625 452.283203125 -89.3837890625 456.283203125 c 128,-1,47
 -91.3837890625 460.283203125 -91.3837890625 460.283203125 -90.3837890625 468.283203125 c 2,48,-1
 -90.3837890625 496.283203125 l 2,49,50
 -90.3837890625 503.283203125 -90.3837890625 503.283203125 -85.3837890625 505.783203125 c 128,-1,51
 -80.3837890625 508.283203125 -80.3837890625 508.283203125 -74.3837890625 506.283203125 c 2,52,-1
 46.6162109375 474.283203125 l 2,53,54
 63.6162109375 470.283203125 63.6162109375 470.283203125 58.6162109375 452.283203125 c 2,55,-1
 52.6162109375 432.283203125 l 2,56,57
 47.6162109375 416.283203125 47.6162109375 416.283203125 32.6162109375 420.283203125 c 2,58,-1
 -81.3837890625 450.283203125 l 1,59,-1
 -81.3837890625 450.283203125 l 1,45,46
551.616210938 353.283203125 m 1,60,61
 551.616210938 301.283203125 551.616210938 301.283203125 535.116210938 261.783203125 c 128,-1,62
 518.616210938 222.283203125 518.616210938 222.283203125 490.116210938 193.783203125 c 128,-1,63
 461.616210938 165.283203125 461.616210938 165.283203125 427.616210938 146.283203125 c 0,64,65
 415.616210938 140.283203125 415.616210938 140.283203125 412.616210938 151.283203125 c 2,66,-1
 399.616210938 206.283203125 l 2,67,68
 396.616210938 213.283203125 396.616210938 213.283203125 405.616210938 219.283203125 c 0,69,70
 434.616210938 239.283203125 434.616210938 239.283203125 452.616210938 258.783203125 c 128,-1,71
 470.616210938 278.283203125 470.616210938 278.283203125 480.116210938 300.283203125 c 128,-1,72
 489.616210938 322.283203125 489.616210938 322.283203125 489.616210938 348.283203125 c 0,73,74
 489.616210938 399.283203125 489.616210938 399.283203125 464.116210938 437.783203125 c 128,-1,75
 438.616210938 476.283203125 438.616210938 476.283203125 390.616210938 497.283203125 c 128,-1,76
 342.616210938 518.283203125 342.616210938 518.283203125 276.616210938 518.283203125 c 0,77,78
 209.616210938 518.283203125 209.616210938 518.283203125 161.616210938 496.783203125 c 128,-1,79
 113.616210938 475.283203125 113.616210938 475.283203125 88.6162109375 436.783203125 c 128,-1,80
 63.6162109375 398.283203125 63.6162109375 398.283203125 63.6162109375 346.283203125 c 0,81,82
 63.6162109375 298.283203125 63.6162109375 298.283203125 87.6162109375 263.283203125 c 128,-1,83
 111.616210938 228.283203125 111.616210938 228.283203125 157.616210938 199.283203125 c 0,84,85
 162.616210938 196.283203125 162.616210938 196.283203125 163.116210938 193.783203125 c 128,-1,86
 163.616210938 191.283203125 163.616210938 191.283203125 161.616210938 186.283203125 c 2,87,-1
 145.616210938 143.283203125 l 2,88,89
 142.616210938 136.283203125 142.616210938 136.283203125 132.616210938 139.283203125 c 0,90,91
 106.616210938 154.283203125 106.616210938 154.283203125 82.6162109375 174.283203125 c 128,-1,92
 58.6162109375 194.283203125 58.6162109375 194.283203125 40.6162109375 220.783203125 c 128,-1,93
 22.6162109375 247.283203125 22.6162109375 247.283203125 12.1162109375 280.283203125 c 128,-1,94
 1.6162109375 313.283203125 1.6162109375 313.283203125 1.6162109375 353.283203125 c 0,95,96
 1.6162109375 427.283203125 1.6162109375 427.283203125 36.1162109375 483.783203125 c 128,-1,97
 70.6162109375 540.283203125 70.6162109375 540.283203125 132.116210938 572.283203125 c 128,-1,98
 193.616210938 604.283203125 193.616210938 604.283203125 274.616210938 604.283203125 c 0,99,100
 356.616210938 604.283203125 356.616210938 604.283203125 418.616210938 571.783203125 c 128,-1,101
 480.616210938 539.283203125 480.616210938 539.283203125 516.116210938 482.783203125 c 128,-1,102
 551.616210938 426.283203125 551.616210938 426.283203125 551.616210938 353.283203125 c 1,103,-1
 551.616210938 353.283203125 l 1,60,61
EndSplineSet
EndChar

StartChar: currency
Encoding: 164 164 105
Width: 537
GlyphClass: 1
Flags: W
LayerCount: 2
Fore
SplineSet
77.5 373 m 1,0,1
 77.5 431 77.5 431 108.5 478 c 0,2,3
 113.5 486 113.5 486 107.5 492 c 2,4,-1
 62.5 536 l 2,5,6
 53.5 545 53.5 545 62.5 556 c 2,7,-1
 87.5 579 l 2,8,9
 96.5 588 96.5 588 104.5 579 c 2,10,-1
 149.5 535 l 2,11,12
 156.5 529 156.5 529 166.5 535 c 0,13,14
 188.5 548 188.5 548 213.5 555.5 c 128,-1,15
 238.5 563 238.5 563 267.5 563 c 256,16,17
 296.5 563 296.5 563 323 555 c 128,-1,18
 349.5 547 349.5 547 371.5 532 c 0,19,20
 379.5 528 379.5 528 384.5 534 c 2,21,-1
 429.5 578 l 2,22,23
 439.5 586 439.5 586 448.5 578 c 2,24,-1
 472.5 554 l 2,25,26
 482.5 545 482.5 545 473.5 536 c 2,27,-1
 427.5 491 l 2,28,29
 422.5 485 422.5 485 426.5 477 c 0,30,31
 440.5 455 440.5 455 449 428.5 c 128,-1,32
 457.5 402 457.5 402 457.5 374 c 0,33,34
 457.5 316 457.5 316 425.5 269 c 0,35,36
 421.5 262 421.5 262 426.5 257 c 2,37,-1
 474.5 209 l 2,38,39
 481.5 202 481.5 202 474.5 197 c 2,40,-1
 443.5 166 l 2,41,42
 437.5 161 437.5 161 431.5 166 c 2,43,-1
 382.5 215 l 2,44,45
 378.5 219 378.5 219 371.5 216 c 0,46,47
 349.5 201 349.5 201 323 192.5 c 128,-1,48
 296.5 184 296.5 184 267.5 184 c 256,49,50
 238.5 184 238.5 184 212 192 c 128,-1,51
 185.5 200 185.5 200 163.5 216 c 0,52,53
 157.5 220 157.5 220 152.5 215 c 2,54,-1
 104.5 166 l 2,55,56
 97.5 160 97.5 160 91.5 166 c 2,57,-1
 60.5 196 l 2,58,59
 54.5 202 54.5 202 60.5 208 c 2,60,-1
 108.5 255 l 2,61,62
 114.5 262 114.5 262 110.5 267 c 0,63,64
 94.5 290 94.5 290 86 316.5 c 128,-1,65
 77.5 343 77.5 343 77.5 373 c 1,66,-1
 77.5 373 l 1,0,1
143.5 372 m 1,67,68
 143.5 336 143.5 336 160.5 308 c 128,-1,69
 177.5 280 177.5 280 206 264 c 128,-1,70
 234.5 248 234.5 248 267.5 248 c 256,71,72
 300.5 248 300.5 248 329 264 c 128,-1,73
 357.5 280 357.5 280 374.5 308 c 128,-1,74
 391.5 336 391.5 336 391.5 372 c 0,75,76
 391.5 407 391.5 407 374.5 435.5 c 128,-1,77
 357.5 464 357.5 464 329 480.5 c 128,-1,78
 300.5 497 300.5 497 267.5 497 c 256,79,80
 234.5 497 234.5 497 206 480.5 c 128,-1,81
 177.5 464 177.5 464 160.5 435.5 c 128,-1,82
 143.5 407 143.5 407 143.5 372 c 1,83,-1
 143.5 372 l 1,67,68
EndSplineSet
EndChar

StartChar: exclam
Encoding: 33 33 106
Width: 244
GlyphClass: 1
Flags: W
LayerCount: 2
Fore
SplineSet
-233.5 319.5 m 2,0,1
 -249.5 319.5 -249.5 319.5 -249.5 338.5 c 2,2,-1
 -249.5 407.5 l 2,3,4
 -249.5 422.5 -249.5 422.5 -235.5 422.5 c 2,5,-1
 -150.5 422.5 l 2,6,7
 -138.5 422.5 -138.5 422.5 -138.5 412.5 c 2,8,-1
 -138.5 329.5 l 2,9,10
 -138.5 319.5 -138.5 319.5 -149.5 319.5 c 2,11,-1
 -233.5 319.5 l 2,0,1
-55.5 341.5 m 2,12,13
 -62.5 341.5 -62.5 341.5 -66 345.5 c 128,-1,14
 -69.5 349.5 -69.5 349.5 -69.5 357.5 c 2,15,-1
 -69.5 386.5 l 2,16,17
 -69.5 393.5 -69.5 393.5 -66.5 396.5 c 128,-1,18
 -63.5 399.5 -63.5 399.5 -57.5 399.5 c 2,19,-1
 481.5 420.5 l 2,20,21
 487.5 420.5 487.5 420.5 490 418 c 128,-1,22
 492.5 415.5 492.5 415.5 492.5 411.5 c 2,23,-1
 492.5 329.5 l 2,24,25
 492.5 319.5 492.5 319.5 482.5 320.5 c 2,26,-1
 -55.5 341.5 l 2,12,13
EndSplineSet
EndChar

